<mxfile host="app.diagrams.net" modified="2021-09-05T13:38:56.509Z" agent="5.0 (Windows NT 10.0; Win64; x64) AppleWebKit/537.36 (KHTML, like Gecko) Chrome/92.0.4515.107 Safari/537.36" etag="WBHwYbrUooOqFc2i_Phf" version="15.0.3" type="github">
  <diagram id="WA0YBxl7r6Y6JblWOuV_" name="第 1 页">
    <mxGraphModel dx="2607" dy="1263" grid="1" gridSize="10" guides="1" tooltips="1" connect="1" arrows="1" fold="1" page="1" pageScale="1" pageWidth="2336" pageHeight="1654" math="0" shadow="0">
      <root>
        <mxCell id="0" />
        <mxCell id="1" parent="0" />
        <mxCell id="ujFVM9XAjsb7zgqNAqnT-18" value="" style="rounded=1;whiteSpace=wrap;html=1;" vertex="1" parent="1">
          <mxGeometry x="150" y="490" width="620" height="540" as="geometry" />
        </mxCell>
        <mxCell id="ujFVM9XAjsb7zgqNAqnT-16" value="" style="rounded=1;whiteSpace=wrap;html=1;" vertex="1" parent="1">
          <mxGeometry x="900" y="490" width="740" height="550" as="geometry" />
        </mxCell>
        <mxCell id="ujFVM9XAjsb7zgqNAqnT-2" value="" style="shape=image;verticalLabelPosition=bottom;labelBackgroundColor=#ffffff;verticalAlign=top;aspect=fixed;imageAspect=0;image=data:image/png,iVBORw0KGgoAAAANSUhEUgAAAOUAAABQCAYAAADmzrLQAAAgAElEQVR4AeydB3yV5fXHcdRVt1VGyLi5MzsBMqF1K3skIZOtoOLAhSArZAOOLm1t66i2trXLWq3VamulVetGkCF7yspO7nzH9/85z3sviRiGrH+1Xj4v9+aOdzzv83vO+p1zepimyfHc0AEvENLQaSdAOz6C+NHR8GPQzl4dOgI6NO1GHtW/W8noxzewDNCM3eBbA4EAaNARhFZTo53dBGjA0Ezwg2kc3+s4nmP037RvDBM0HXQN9OB+myY3BPnOf9M5f9XOpcfxviDrJssNDqArOGoEBWymAAkwdAJ6gFDIpwD57FubyKtYRtqiXSxa2kbQ0MH3KYbRgmkYaCHrt7qpYRDARFfvH+/r+J/av2HdG+uaDUxTNtNa+OSz47yQ/6/v/7iD0jR1DDrQ8RMyDUKyCOtgaiI9w5vWIujkt2+vJ/HOpfRZ0IKjRiPrnvU8/bcmgkoYduDX26wV3GeCD8wQBGkjQCNynP/1m3ksrt/AFIVEbXJ7Iq+7PoswPRbH+nof3Wscxx2UBiIZvQTk2QAtCKaotCIlddN6Bv7w1hpir/sD0RXN9K0FR4VO/7mtfHv2Th76Z4BdCA59GOYuCLRbKnEAgqYfL00YCpRfT5YjneiipkR+qyP/DHRT6SHqNulKJzHUJ/sk59cSc9+YRcbuWDyfAFAqGUlAMBiWkIYWRDda8WltmALId/YSVfwsUTO24FkECZUB+lW2kVLlJ6rKIGVhKz95o4M9AkxzO4a2AQIdStL6NZN2XcP4eoIc0QQxDAPZdN3SNDQtiKm3YxpeSxWRm6bpGEEfht6BqbdhGqEjOtaxmLD/C/s4AaAUy88gJCqP6ECGSUhvpk1vpAN49r21nDfiWU4v3UByNaRWaWRVNpJZuRN3nY/zH4CoGsiZtZWH3mwU1w5+dqIbe8AwCIkKK2D/GpRHNAYiIQWQoVAITcBnhMAUz5yoMvs9jAB6SGx7seW/HvPjNedOACjFyxqyVFYxUgxDqbPi1vn9su3EjHiKHiPfJeZejeTKACkL20mubCGxtgPboiBRSwzi6k3cCzoYWLmeH7zRqCRmBx0EzQ6ZGah59LVH8IhAKVJSAKmeg+KCQznMV6/bxC9+9QKLljzKwz/+DX9+YSm7GlrErYYWlqrHa1L+r+/3uIPSFECKTNTFoLQkpdz4595fiyP/t5z5ndVcMGkr/Ra1klbVgLOymdjF0GsxxNUbpFc1k1TbRNyiIO75XiUxH/+PTwHTTzum3qwM1f/1G3k41y8L2P7fEzDKewJMeeza28hdVfdjzxxMTMowopNGE5M0hpiU4eQNncjPn32JkNxL2Zf862afX793dONydKAUJUbupV/cdIK4DgVAUViVrioiTNcwgya6HqBD36tW4edX7CZm1K85+arX+EbBJ0TPbCSl1ktKjRdnTZDYOoipA2cNpFV6Sa7xYq81SKyE9LkBBs7fykNv+dgrs8hogsAWkJCKpsKheA0TAWyQZgxDExet0sa+7JPF8oxaThi5FstZprB0yP9CRoCA2IVmCNFVxFkjv5dnv78dQ0JTmsFdcxbTK/FKbJkFOHNKcWSXYc8qw5FdSt+0kURnDOPPf/uXOl4g1EpIa8XU5T53HeNwCOVrwB7RonV0oJSJEQalqeKQLQQVGDTluRNVVVx3Ia+OV/PSjp8/LN9EbOEznH7t+5w06iNOKv8XtgUtJNSCqxrc1eCpNtXmrjbVewJOZ628b5BYrZGwsJUBlet4+K0GZZciBINQg1q9ZcH36bJO+AnQjG4GVehEJs2XH5QGIYKKdrEPlAasWbmO555/kb+++g9eePEf/OXF13nupdf400t/548v/Y1X3vg3bQE/IT2ErvzgHSqEpEBtGPgDbQpkr/7rfVzpQ7EPKMSZU9LNVkrvpGGMGXcz7X4/uuFD15sxQn4LlGqMZen4GpRHM9eOGpTiJA+ZQQIE8KLhxZAQoootCibVCmw2K+z+ecVW4gqe4LSr/8kZI9dxyqjlnDnuHdyVPtw1Akiz281Ra2BbpGOv07DX6tgXadirdzKw/gMefW83TSrc2UpAb8UUsoH4KmTTTHTTT4g2cTV96UEpUk0XKRe+loh4fOAHP6OPMw139hW4+g3Fkz4GV78ROPsPxpb2HYYXTaaxXZw34tQRZpWAMiwpdSFkWLbk/KofEOu5FmdWcTeAtEBqzyoiod9g3vngI7U/LdTeaZooUCqr8ysw1kengv6/gjJECC8+OoQiIDF909IWlU9HGFsKDkGe/2g97rFPc8bVSzllzCf0GL2cHiPe4oIJq0itOzAgBaiOWp34RUEcdSHi60xiFkFUfQh7zQ76V77LI++30aDYfKKeNUPAa8UxZQE3QvhoQBP2z5c+6G1Yi4sCpby2Hkt+9CR9068gfuAYbFll2AdMID6rnPissdj6DWVEyY00t0tQShZJkZZhUIZVzlBQV8y6G2+pw5YwEldO6QFB6copwZZwLS++/Ka1P6HjCfVOrBcBpXIFfRUWwC8xKHWlUAVVyEPuj5hwwq7RTB8BQ4xNePHjXbgKn+Kb1/yLM8au46Sid+lR/Ao9xrxGn6k7SVFqa/dSUknPGp2EmgBJ1X4Sqg1stRBVC7Z6A1dFA3kL1/HY214alXm7B0PfCP52tUKIT6LNEGmpfQVWbzECxXEmm9AyBARQ/dCT9MwYTMygUmIHTiI2dyJxueOw5RXRN/0ahpdOpc0noDQxDK9iVyn1V0Ckyz0zFRvyhumLiHEOx5NbhntgmQKmO0/syWJEQrryyojPHIvNM5i/vvyuOnbA51caSScotX2S/Gikxf/yb49afVWkLFEZRQMSDIZMQoEGfFoTPnT+/vGnuEte4Kyr3uD04Z9wasnH9Ch5gR7j/kCPwlfpPa3hkKBMrDZJWxii/wIf/SpCyuETXwPx1ZBQDWnzvFw6dwc/ebuVRrGazC2Yxg7QQ4pB5JXF4ksvJa2VW1AkYy4SKQLKmh8JKIcQPaicaAHmoGK12fIKie1/NcPLJtPqa1ecKJNWSwUWNIuklLGRwQEW1v6EOM8w7APG4sorRQDpGViObUChAqYjpwRHVhFJA8bw5ttr1G90MeKFyPy1pDxmi/5Rg1IZbyIiZSEWYzJkENRFoYXnV24lbdKvOXXIW5xZsJHT8tdy0ug36VH4Aj1KnqdH4b/oOb2R5IPYkyIpE6ogdaHBgAU+shZ41WtnNdhrwFMFyZXgmeMjr2Idj33Ywh5MvDQTMjsU6V1OT0yor87qK84U8aJaCmz9w0/QJ/0a4gaWYhs4lvi8AuLzxuLILSSu32CGl11Pq09sSgn6t4epcmF1Uzf32ZQvvPJv4pOvwdYvH3deuQKlSEkBpkhI8cZGpY5g8JgbaWoLWNRG0YaE9SMA/9qmPCZz7AuCcv+JLYulMMPbLUkZtFZdEZp/XrmFxCkvctqQd/nGpI85ZeJHfKPofU4f9S6nj3yP0wo+okf+Mi64dRcJh7IpayzPbGqVn4zKJpKrO3DUGdgkbFKr46rzY6sPkrCwnazZ63nyPZ9y/njNDkXns1KROm2Eznjd/tfT+Z3/XgDLOVugNJV6Akse/ikxaZfhzC3ElTMWt2zZpbizy4hPH8OI4ltp6bBsStMUm9KwMnSUTWli6OKeC9Ie0LhpZg0XOq4ibsBYnLkSEinBPbAce1Yx0RkFRKWO4rcvLFVSMmTIoteqNJJ9klKd29fe16OZP4cEpeU2l4lgpUqJDSmKk2yyWgcRz2sQU5jmQdFh4NV1TSTe8hdOKXyf0ybt4ZTrl/GNyW/zjZJ3OavgY84Zs4HTx6ynx5gVnDd9K65aCX1ENuMzHlgJjzhqIb4OEmpCJNe046ntwK6cPgbOuhDOej9xiwJqHyn3BrhywXYee8enbEyDVgh+CroPU5f0IyXMEQeV8hWLm3bfKv/fD0pLDRdQihfW8pre99DPiEu9HHdOIe7sItzZxbizy3FnjSc+rYCRRXfQGnb0yGRR+xAhK5v8bfjRDNFtYFdzKzfdsxh7+lBsaUOITbmW6KSriUq4ktRBRTzy9EsKf0FdIygxSrMD4TKrMfyMNqJ2HXauyev9x9bKy5STkXsSmWeRZyu7SLQBmXd6OOFAwN4F8IrFFTlO1/0Lj/fQWUOiaVj/It/v+iw+iMixrONK0oM6l7D7Ul5bzsPO61ODa4UdVFqiitcLv9SU/clmHSOyr8+Pi8mhQbnPVhALsVVR5IKKOCckcD/tpskuXahaYrOE+PeqZtKnv0OPkvWcPG0jp0z7gNPGr+C08lWcWvoxJxct56SCZfQo+JAeo9/j3EnrcVUZOGtMnNWG2tw1ltNHAJnQJWZ5oJCJfN9VAwlVJilVOknzW8mt3sJP3msTSIK2A4I7FbFaVNm2oDhn/Qj9QIBpytyWEMrnJk7XG/3f8VpNBOXoCYZdPXD/Qz9X4HFKkD+nGHueqLAlOHJKsWWMZETxLfskpbJJD3KdMlyCkXfeW84PHnqSWffWs7Dqu/zi6WdZt3G7Aq5iASk2z34g2bffsL2qJPHnAacmrtyICMsrPMcU2uW1fKTmmMotQgv/swCkoqCdkr7LMaz7Jza3jI14gCOg6v7eiVgRyIuIsSgZ1l+WI032If+s48kr6zxkMQ8SUvFewUDYXxFZWNQ1iUdaFntRHQPWJpNMYubhI8q+ZE9Ka9k3btZ5HhqUalmV0/eri9Ulq0CALzGPEBihEAFN2DPwlzU76H/HPzizbC1nT23jzEkbOHfKB5w9cQ1njl/LaeWrlaPn5OLlnDR2GT3GvM83Sj7GVakpaems1vHUiar6WWl5QDCG45quGpP4ehNHnY6rVsNVF8JRuZu8mg95ekUTslzotKAZbRi6YXkcxQwyZFAC6KbYR18O7+yRgfLmwwalmtjKr6rw97n/dE1TPNlDL2CRRW5/SWYBWRGWZSIpqWLu01b2aS0W7+Qzk175BUQahyW8upHhNy0JJPu2NDhLKnUPxn3n3ims1XGU1Osq7cPHihzX0lKs46uswzAgrfflD9mhXJMAMhCu2hC+kPAP5Bjy/fDa02120yFBKbaGRZuTnQsrIOxlFRNFbeJy9fLyup14Zr3GqdM2ctZ0H+dOaqTXlC30nLyG8yav5+zJGzhrwlpOL1/NN0pXckrRciU1exQuI2ZWK4n14Fio4RGpV9UJSgGcbAcDpqtGyAUa9nqJY+rELYKYRSEctdvJq32bx5Y3I2nUHWYHIaMdlVoifg8pI6LL1TUqgsGXIY553EFpSKZIQMUzZQELBTSCAQ0tpKNrQULBDkVdPPhYCTi6qoKff61WdDWZIqqYeIm6oETmWkSCyuuum4BFyRhLhTeVAytCqpBjHVxCRkAZUZXlOQK8rs/7Pu967Mjr8LkpWaquNSypFGtFpKIfjLBaL78JH6PrGiS7iAA6ck7yfEhQRoSsGiABpABRygeEwpkfwEcbGsid+QqnT9/Eabf7ueCWFnpdv4lLrt/EOddv4bzrNnPu5A18c+I6zhi3Zh8wBaACygunf0rKInBWhHCLKlttKCAKGJ211nYoUDrrgnhq/bhrdRXH7F0LsQLUih3k1qzhqQ+sOKZQ7wxjO/gtgoGo+15RZk3vV1h9PbSkjBDTBUwSyzRlUpkauqYTCoQIBnzompAO/JjGobQKoVmGNRDlJQ7bhV3UQQuUlrpl2ceR+KulVO4TJZqJKXl/YfVQSsLIOeqmeAUCKh4uZAjhkcnyqsJFSh2MSOrPSksR/RYABCVh6peSbqKKiu0qyd1WgreVo2uBPHJ867zC9FLxUShTInLuQQxTzkGAIpuyidTxLDVYIGzZpftU8m4WkEOCUkztkJx/BJBBP6HQHnxGi8Lnm5vbuWbm+/S8fgPn365xwW0txE5fS+yNyzjnpo2cMr1BAVNsRwHlmeNFlf1EgVMk5kljP+KMietIqjbwVOq4q3ScVYalztaZ2OsODUrhxCZXaaQv9JGxMEhiFdhqIK4WRd9Lmt/CVRXb+OUy4fYYBI1NmNoWCAaUHd4eMgl0MzhdV6//ltfHS1JKTqVsmthCMqHE/pH4s6haIV2FTYJBL6GQJB3IRP3sZO/6t5gCISFsKNJGiKDEi03TCmeKpiqbIfmbfpWooKv8TJnYEclnOQ7NkIapycIQVN9T+zXFoyE2nYHP1PHqUobNS9CQhHnfPuKCkkz7nWPnNcrCIwD0omnNilQvZBfZr2XriTszbP2Zll2rG0F1voYuXOqQMtvEudl5zhYwQ8IBlwVDD6LJOJhy7UKukXP2EzDaCBlt+EMN6GYrhozzfud5GKC0WFQKgSKNtWba9V00YfLi+k+5dN6bXHLjbqLvNIi6TSP65p3Yb11B31s/4pxbt3Lazc2cN20b50/ZxNlhYAo4RZU9rWwVpxSv4OSiFdjuaSNFyoAsEIlnAVEAKbQ6R+3B1VdxBqUuNOlfEVBxzPQKHVeVFcd0V0FKJYhXNnfeOn65sl0pq5L8pZmSsGsluFjZSAeeaPsP3P/X38cDlDJZ5XqCwaBlL0Z8MxH7R6SUaJOSoK5J7qUKSH5uMkXGxJIHGj7NR1DR+j6rfSoNUBIVdM3aBHjKuy9QE8J9gIC/DV1VOxBpED4B6zTU/0J3kHfl07aQ1G9qV+nvAiXLEI1IxM/e0wgwRcXVdMXSDvOirJ3LkiM+CEnAl+c2OccuxxVwCjBD/nZMzcqGitizIlmDsriFNW+pLWVBtdNJFDDbafPuIqA1EjKaFDd7f1PgkKCUNUNsC0sai1hvo40gL25u5Dvz3qfnLdvoOc9H37u8xN/ho89tjVxy924uunMXl9y8hz7TGrj4hh1cOE3U2E2cM1mcPxs5Z9J6JTFFhT21eAVnT9pAokjKSkM5ekRtFVDaxIFzCFBamSWQWhlkwMJW0iu9uGt04gXkNSaeGg1njWSXtDFo4Vqe/KCdZjXwHWgSYxXXupgE+61Y+w/W5z//7A0/EZ8fa1DKfAsEpJpgyKpAoGl4NR2fbuDTTHwhEym50hE06QiZKpYZkhKUnxsrayxEskq4xKsF8MtzMERHQJyBJn7Zl9oM/EENf8jAF5JqhjJpxYSMeEJFOnZCobHFy38+XMMv//hXfvj4Myz60a+ZW/8oc2of4T/L1xKSTBdTipYq26pbUIp6HtkEmJGHNxBkxZqtPPW756n53qPcPPc+Jt9Vw3X3LGLynTVMn72E+Yse4ae/+COvv/U+Dc0CV+thyH7EKAyHZmTRkutp91vj1xHSVRqhpBL65BwNQ42H1+9FM6QkjmgK4iX+7Nzroeqlqp12Nc47X4vmrgtBUqpeiS2Jwb+27+XKqjeIm9FO1ByTXhU7sc3aReztjZw3o50z58DZMw3ibmwlafIuet+4g4tu2sYFYWAKOAWYSp2d8Amnln/CqaVr6HtnIyk1hkrREiDGy1ZvKLvywDal9XlcHQp8qVWtJNe24KgXQoGBvV7HVe8jbomX+FoNz2wvV1fs4DfL/CqOqZmtoDUqb5kClRoLieUZ4diYlLAMl1c8wEQ8EWCMHOPAoBzMgUMiB7Ip5T4baCKpwhP1zbfeoWjCdIom30bxlDspmXI3JZPvpmTKPYwpv5m67z4SmZPdLGIWMDWZgLrYTvDYL35Dfsl1lE+8jfKJt1M+8U5Kx8+gbMLNlIybxtI33lG+3oh6G4FLIGSy9F/vsbD6+wwZPYX0vHxsKUPp5R5Mn4QRRCUM54LoPH705O/V+QRU/DxsxymgdE50y162VNbIyW/dtpNHn3yW0WNvJnNQEY7UYUQlDKZvykj6pIymT2o+fZJHE5U0gj6ewcQmXUtq9khGFEzlew89yebNUsot/Ag7ceQvAeSC2gcZUzaV4skzKJ1yDyWT76Fs8kyKJ8xg6vRZbNgs5WyECCXEjc8v7D1UoWSlIUjIQ1Kc2jFNia2Ioe/lUxOahNvobVXu3mXbQ1z6wFouXrCX6Mo2HJUdxMxrIWZ2C33ubqbnzHYumtnBRXe20fPWBnpP38klt+zkopt3cP6N2zhv2hbOuX4T35yygTMnreUbEz6hx5RP6TF+AxdNXEHGvTtJqvYRUxdSUjJhoZ+UhWJrSj5lONeyCvW35F+Kg0fIAyJZ3QrQGp5qDVeNHnYWGbhrBbgigU1SKk3S5rZxafU2nlwRtOKYoU8hsH2f88obEk+tprJLQrQqKSqLcAQY/6/P4r5TYl0UI0utu++hJ4lJGYo9e9wB4pRdQSlAlIkg8TzZh9hFMmEt/uufX/g7fT3XEJUyhOj0a4lKH0Kf5OHEpo7gwtgsJk6/OzIVDzgeYlOJ00Qe8+of4lv2gapyQUzKCKuaQfIIolNG0MeVzZ9efFF9L+QPINkq8vhg1VqmzKghLlXAdy3x6aNxDijCnVWKM7NMkSIkkyU241p++syf1G+kprBSOsNkEDm8+EKUKq13EAhKgh+0dnj54c9+w6DBk4hOGEZ8WiHOfkW4BpSq/bpzJuLKmYwjaxKO7PGKWujKLsWVXYwzq5D49BH0cl1O5uXj+P5PfofXJ+CRHPsOpW57AwHGjJvGBa5v07vfKKLShxGdOpK45Hxi3INJzxnCmo2b1W+kWqCM+/7zqYeKaWqilvpVIF0TGpZ8UeJ5hk6LYahqcWIVrNsVpPR7n9Bzzl6i7wNnVStJFQ3Y5gWImeMjanY7fe5ppc/MZnre1chFd+zlwhm7ueS23Xzrlp1ccNN2Bcxzp23h7Os3cebk9Zw+cS1nTFzFOZM+5vT8/3DxDRtwLjbU/uOWgHthkGQBWW0IV50XV10H7ppgGHBCs7NYPRHCgSVRP58KJqwgAa6ossIMci9sIK9mBc+sFIeVXOteTF0WHitiEhT7QI2JhAB0azz+CySlUpdkxqlAsQUkAWV06lDis8dhzy3phjxwIFBGHBUSe7T29Ze/LsWRMVYRzx15Y4jPKyQ+y6LsRXkuZ+odc9SEkv/2n0yRv6W6gWVFwsIHHqNvylCcOeU4csaFqxkIbW8ctvQr+fPLL1v7sw7PT3/xexLzrqZX8lWq+oFnYCnxqgpCEc6cYlw5kutZjCO7iJiMwfzsmefU7w0lXdqtcREwKlCaaIYsEKLWwvKVqykon0Zv93eI6zcSZ3YRrhxhQJUgKWldE7uFeOHIETKGPIe3bOs77txSotPGEJ10DeMn38GWLTuVBmloIbz+ACXX3U5UxnBiB45THGS5dk/mZFwZY8m5vIA1my1Qikd2f9VVxrCH8FpkE99QSGq1iFgVRoXYy2JnyUTFx4pmneJH1hM7fy/2+yC+EjLmBkib2469IkTcfAGml+h7O+gbBmfPu5q45I4Get/RQM8Ze7j4lp1cON2SmALMbyqJuY6o8qX0Lfs3Z5Sspsf4jZxx61aia5qx1XuJlRhkrYZ9USuOxXtxLN6Nc1EjzvoOS/qFebEHVm8tJ5GowfH1mkqUFudR/OIQjuqtXHHfezy9qgnJvfebkigdTtqV8KtIR3FI0EaIlsOOf0Um5/F4PjGgLMSRNZZOUJYoLu2RgfJR+qYMwakmeHkYlKVK1Y5Pv4rnXv67AozIyPsf/hV9ky8nZsC12LKH48gZjXtQIY6cMTjzxuDMze/csouwpY3k0d+8EAalSCzR7oTRYsWfNV1CO5b0ffnltxh0aTExCVfizB5D4mWl2HNlv6PVdcq1Wlvn3wJ+Z3Z5l62M+OxSnLnleAZNxJVVRJTjOwwZOZlP1llspw5fiJIpdxKbNhS7cIdzpYpDGZ7MSbgyCg8PlB3sxY84PMLODpWxb600lpmhsbkxQMkjq+m9YDd9FlkpU8kVJv0rIbHCUMF+Bcx5fmLn+hQ4BZi9Z7bQ664mou5qos+djRYwb93FRTd/qqTmudO2cs71G4ie+DaXlL3PGZO20mPsh9hu+w/lT24nee5y4uoDRC8CR10Q+yI/8YtbiV+yF/viBpz1XiUxJVPkoKCsEaeRhqMugLNOU0T2qDrouyiIvXIzeXXLeWa1X5HYZSxMcy/4fVaidFCwKWWgm5WdeTyA9kX2+VUApVPUwcwy4tMG86e//VOB6nuP/o4+CdfQt99oYgcWYs8di2dgMe6BRXgGFePKK8SZWxAG5RjcWUXEp4zhiV9Z6q/YxhZLyIoN6hK6ECce8PJL79A/sxRn0lgSssaT8O3xxOXmE5/XuTny8rHnjbbArxaA0Yrcb6muor5KraISXLnjceSOU6aCO2+CUqtjk65hWMENfLqnQ+UVl0yeiS11GB6RrEcCyqBkIAo/L7LQeP0YoTb1nlgs6/eaTP3+Wuz3bid6MTjrQ2RUN5NR2aq8m1LkSgDhrNSJXxDENj+ggCkSU1TZ3nc3K0CKtIyosaLKCjDFxlSq7NStnD5pCz2KluG6YSkvrm5nRxBm/WoNjoodiozuWgCuSrBVmdgX+xUwRWKKKiupXQcFpeLQaiRX+UmtDCg+bVyNVZxLCnIlzG/gqqpN/H6llNoy8ZtbMPTNFjCFJyvex/8SGt4hQZlzLNTX4ykpReqW4R5QTlzqMP7yr3dY+uFKbBlDiR9QjH3geGLzSrD1L8adNQ5XZimJeeOUiunJKSa+32ji+4/C3b8Ae/Jwfv50GJSa0CdDVmKEOOmE6gZ8uGwVeYNKsbkKSex/I44BU3BklxOfW4hjYDnOvHJsWUVWEnduMY7MfOLShhGbOpS45MHYUoYoB1N00hDs/cbgzBpL4qDxxGcW4cgehytnEq6sYvq4r+DWWffRHtIpnzoPW9IQEjKLjwyUkvSqvKpiJ0stj0ArQW03PkJ83BTguoe34rqjAXuVSWy1SXJlI7mVm0iv2UPvJaYqBRkBpdDkBJhx8/xKWkbNalPA7BsGZq/b9ypgCjgvvnWXUmXPu3E7J9+4m5Ov24hr+tu8uFwUSXGQe9nhN5j+q10kzd5F+r0myfeCaz7EV6EkpmPxHtx1HQpkBwOlENvFwdOvIkjWAtZAd5gAACAASURBVB8ZFbrKw5QkacnLTK4ySZ/j47IFW/j1qnalrPrNbRjGXuXuDkrBZ1GJ/mdsyuMMypxxJGROxpExmp/99mXyp9xNTOowHJlSwqQU16AyXBlFxCfmE+sZSc+4K0noX0ByZiEDLi0n89IykgaMIN5zKY89bnlfjZCOKWQQXWKtlsq6u6GJMcVTiU8aSmLWdTj7T8OZdb2ljkp6W+543LkTcGaXYUvPJ8ozlKTMsVw2+AbGjpvNTTOqmXF3NdPvWEjxpLu4fNhkknJGcbFjEK6sUXhyS3FmT7CcQVn52NKH8NPf/J0pMxZjSxlBojiHjkRSGsIKlbiT2FBBCai2qXp073foTPzJSjz3fKoyMGKqRIU0SKppJb16D0k1bcTWozYBhMr0qNSVxBRVViSmsjFntxNzTyvRM1uUxBRgRmzMb91iAfOsKe/hvvV1/rzSqqomIQojtEexNja1wz1PrSdr1mqy7g2SNg+cC8Fe78OxuEE5fyROeTBQymciTVMXagyoaKf/Qh9JVYZKknaEs0sSq0zcc1u4qn4dv1rZJhYkXrONgN4RtlG+BuWxsSlL8OSOx9VvIhmXTuba4ltxZg7HIwW5ssrwDCikj/sy0gaMpqj4DqrrHuNXz7zCi397lzfeWcmylev5YMVaXn9jGS//4w02bNqOxAv1YAAj6LcC+0HLsVN1/0/om/AdJf1c2eJkEqk2AU9WOYmiWmYWEJsunuWhDLxmIrX3/ZyXX/uA7Ttb8UsAQi3ESuCqEMbuRi9L3/6QmgceYdCQYmJTr1ZFxhLyyrD1G0lc/+FcUXArw8bNJr5fvuWxzZPk8C9oUwbYo8owqowPVS/V5L02HyWPrcJxzx6clQbx1T5F9o5bZBC9SCdWYoc1JikLRQLpnwOEAFSkpkjM2LlebPd2EDurTQFT7EvZet/ZyCUzGjh36mYyb3uRV5ZvJ2RoGMICoYMGw0+HeARDBjs6NKb+8m36z/xYScyEheCoDyjnj3hlJVxyMFAKh1aIBEJcT6tqI7W6CU+tV8UxbXUmrroA8Yvk7xDuOa1csWALz60JKYJBSHgdQuEKfp4O1Sk5TxxgD6m+HhPv6/GVlAKQ5JwbcA4owZU1Ek/OaDyZBcQnjsCTOow7Zi3i32+8j88rY26BovN/Maq6vimkeS9S4lQ2LWQB8t1lq/BkjcKeOYp4sR9zC7HnjFVASc4sJW1AKXEpV+AccCXzFz/Mmg2WoyZyHOH8KsaOsH4kBKVKT0c+hU2f7mZ29fexpY4gLmMECQMLceblE91/GI48UW1LVPUGe47Uz/2CoNyrBehQ/Dw5MKxr1Jj242V45mwgdhHIpHVW+XDXhbDXSzYGqliyqH1SokOkT3eAUDZmRRDHvAAJ9/hx3tNO1KxmLpndwMX37CFq5k563rCa1LvX8eoq4dfItYvnLIDP1BTNyS8RVr/4heGjgM6dT6+h/8yVpNZqCFlAvLLSDCitKrSvTmx35yKgtEtIpMYksTpIYo0PV20AKV0pmwDbsSiAvT5AYpVO+pwWrqndyDNrwnFMY5eVKK2JraKpkJHUH1ZV3ISqJ2lhEus7AertlxaU2WVhtbEUh8QbsybizikncVAx9v5DiU+9iquGTuSVf7yt5kLkPytkYKDobYaAVOLpPkVEF26pSElD0sk0H1qoA01q25owY9b9Kjaa+O0ybLmFxOYWYM/LxzOwgMTs0diTrmDQFcP4y6uvRQ6laIQKfIoHHQ47SaaH8uharR0kXCj7jzx++duXSM4ZTny/IbjEQSUhpFypcSShm7HYcwtUaMWdZXlfcy8v4JNwSMRa1D+/oPdoD0G7JvUDDNa3aNz5o9Vk3LoOT7VOz7oQsbW6Ctp3nexio3X9u7vXAkqRls75OgmzTOLv9dJz3h4unNtAr9ltRN2wjoEz3+f3K4VVL4/OMvjh4I2crfpM+lrK+rfJbzDjqTUkz11LXFVIEc49lX4SF3QoFlB359H9e5+XrAJcV61OYnWI5Go/nvm7GVS3it+sElKhFIfaA7IKm+2Kzym0R6u4rVQE2qPGTwR7p/T8fFD4WHz2pQdldgkJA8cRm1mMXcUGC4nvN5grRpTz8dpN1kxQTpoIyaH7cRRmkxADFH9C8KMAK1LN5L0VW0gcUICjfwHO7GIcuaXYcotw5BVizxqGrf8VpORdzVtvv2MdT4ljCeQf/Jhd7581R9XPefbFf+Dsfw3xmSNx5EptpCLcOQW4c8S7W4A9RwgPnaBcu8mKU6r53c2c6aGYOhis7tCY/NhaEuZsxVFpEl0BjkUStO9eEnY/2TvBGrEx7ZUGUZXQs0rnkgqh5XmJu2kPl85YzfMftakYqTTLE/R1vejO1xIvldL4LfgNnY1+uOmJjSTN2YStUsqAoKh4hzqfQ30u5AKp+SPPstlFGs/dxpVLPuIPa8T5I+HwAH7jU0KKmhdOYzO8KjgdCvOgO8+7+8l0tJ9/aUHZJU5pFwfIwAm4B5UrO8yTPYzX/rNczfCgdP8K+Q8ZE94HSvHpyKbSrqwFvuq+x4hJGIwnW8gGUoGhhPi8YuwqzjmSuLTv8Phvn1fH6wrErq8P9z75xQsI1P3wcXonXopLCpblCClBjl2kyBdfHJSE2NLkZ+pPPyJu7hZ61cMl4bSnxBo/CVWBQ0rF7ia8SlSuEltO4+L7g1xcC9FzwXFbG5fPWsbzy1uskg3abjB81sLTrfonZInWMA2uXUnONa0w/WdrSb53LbF1Gr2lWsEhSeudC0Z35ytAlDpAouZKXdmYeuhba2BfuJOBtR/xzCcBpVJ7zQaCZqOVDqjoiUIs1qWapZUo2+01HDuAfhVAKZLLLhXysscSnXY1dy38rhJ4/pCmUsek78whQaHq+IYT76WKhEqj0tjT1sE1Y6bhyBijahUpUIbtbCEi9EocxHW3zyUgPzUs6ShgPBJAiikTCHqVjre71ctVBdcRmy5ECWH+COWx/MhA+doOkxsf20TSrFW4ZIJXQ19hydSZJFcHSar5vCOnu0nd3XvCVXXUBuj7QBM2qdF6h8aVs7fw/OpG/DQTVLaa8NoONmkFlD5VNU0LSv6b5e7e2Gxwx8/X4bl3DfH1Fu2uu3M43PdEdfXUhEiqDqlFSHIx+9ZD/CIDx7xPGbxoAy+t8dEm8lJrs/JXVc0taR3foWhdKmv9a1CqJkKdNLvPM3qcuWLnleHIG0ti7nDe+3iDkjaSy6lpASt3UqiNBxtLBcpwaUvRYoV+Brzy5js4+g3FmWWxkAQgjlzZxmLPHE5izhBef9eSyiGJbSr+qcUhPujxuj0X8S+0E9AknghP/+kV4lKuwi11knImYMueoEp+Cl3vC6mvKQ96iZnXgLPCT2JlSAXYxaZKrAqqauSHYz8ebOJ7JDhfFyRpTjPXLNjIi58IqU/SPXcQNCVpVmkeB70BwhGUiI0kzQgn1Qh40QN+tntNbnpyNZ556/HUSAmRz9uKBzu3rp+JLZle1Ub/hS1kVHqVjSoSU7y2wpVNnb2NqQ+tZ127ZI+YwsnDCFmlRLRw8/fDLUPxxW9+56L15ZeUJTjzyojJLqFvv2EUTJyh0rnUrA5Xfz+colcWKV9V2LJCVmHPxKIfP0bf5GuxZ5Xva7/gEFJAbgEx6VdTcv2digwifoyjd8xJBQY1K9Xp72rs4PIRE1SYJT5nPLFHCsoL63Vi70MlBadWaPSvaiajeg+JNR0qPilV4rpO3i/6OkE6Zt2rc2n9Ln6/QfIYNQKmXwV4JSDvVUWEOidddxNWvF1SUkfaEohtp2qN+vYgDqDlIZOip3YSP19KTB75uYrXNa3SR+bCJjIrmkipEu+spc4m1OikVLTx7Xlr+OcG8RQLKKUludCgmwgKKIXSdQKqF3z5QSl80FJicku4OPFy6r7/mJrQFsjEt6D6fh/Spox4RJU92envofTG24kSIkLuJBWKUO38coXDWkBU4mU88uQz6niiulqOloPPve7mY+d7GqYubejFjrHclTMrltAr4XK16MQMFElZ9Dnv6yEdPY7avdgr/XgqpUQjuGuDuOtacdX5VH/IowWlQ0gHNQaDlqznrzskBmmVLlG+HU0KCUq62MGb76gbZQZU8StJwNEkvSy0G8mhe6PZx7DHtuNYGDwqUAqJQECdXumnX2WL0hjstWa44LOJu8rPgOr1/H27LAsdIDVrDMlODyrusGJFnQDWz1cFlLZB5fRMvpLHf22lXkVSBUUnUon1h1jg9gelQGJHSzOX5ZcR1W8UtuzPgtKeOZrkgaN5d8V6BUpD+qZ2q5J+EZDqoPmtTWwX4Nd//Au2/lfTN3sMUVKxfpA4fr6g+jr8B+8wYO4GUudb0jKmPkTs/a3ELvJjr470jDy4k+RA0tNTJWUfTfos8eOs2cLI+z7iP+t8lhvbF8QMNqLRpGqjKK+0olCIf9varDILknAsxZq8BExp1iNZ3AF8eivL9rYz/kcfkThnI+5qybk8svOU81e5mbIoqdCIH3ed2KlSwAukb0ns3L0U/XQV60TdlhxLf4tSfyRqJpk1Sr+W0z7qG33wSfFVAWVsTjGx/Yfwp5fCcUIpBi3Fy/Cr+gOHGkcFynBGiPISAW8uW07qd4bjGliGPXdiOOWqTNmUsf2GcWX+FHa3iiEkHtvDD38c+FyEbys1e6R1g+WFXbZ6I67swSouGpVbhPRz+cKgfK+9g1m/3UHmnS0kCoXtfi+2720jpraF+AXgrjxylVBN9jqT2CUaMfdDnzl7GLF4HW9/YunhoVArTaaUPZKJKEq+6CHhArYqB05qtuhKxfWKt8znR/P66DANljZo5P/oE1Jn7iJtttT20ay4aJjqd6CF4kDvpy2AtAqpgGfS5z5JF9NJXRBkwAKduDmtDP7BNpZtsfps+s0guspAELZPwGpwozyxX4NSJvBn8ynDjp4u5AErd7EYW8ZgnnvldYURqc1jlYq07vmBgWAtWlZIRJK0LYeQ7OTFV/9NXPKVJOSWYc8sUawapyQqZ48jJu1aJs+YpQqkqQMqX8bBF8BDnYN8bi2SkuNoOZq27NzLgMsLsWUKkWC81dPli0pKKTS02Q8zntqFc+ZG7PVBbPU+3FU+kud1kFQpccojBSYk1mgk1TXjrA/gWAKOikaG37+BVzZIr2Wh24r3srPStBjfEhRWGePWmklImtAI2TiwB8Ps4KO9XsZ87xN637qF+Dk69jlB7BWyhfYB80DgO9D7VhHnDty1wvaRMpdS3cAkce6nDP/uSv6xQ+gVqHo1UhpJWghZme6ivoT7M36tvlrezM8kOXfjfVUhAwHltftSt5RzRwHzi4JSSlJa9twvn/krvZ3fJkGSkiONbxUox9M35Rruqb1f3UMFJnHiH4P7tT8odzW1MrhgGrEZ+diE6D7wCNRXOiTnzM9qv8ZNv9+K+94GEhZAepVO/8qtpNW1HYWthqK1ZVTuJqWqGXuNQZ/FcFGln28/uJt/bBGRLywZq3iQjJMIHNnkE2sdFPZ/EFQrtw42tLRStOhf9J62hV6z4VtzDXrPb8VWEcC+oBOYBwJf9+9D9H1tRD+wh5RqH/0WQIJIzQWNXP7gcl7fJpasFCMWIoPEtmQRkXKGskU4scpv8LX6eiBJ2YU8YMXxjiUolezjkcd+T1zSlcT3K8CRJbFCyeIQSTme3olX8OCjv1BfVPWIRLAdB1C2eAMUTb6b6LRRxOeUH5mjB58fPdRIB62s0+COp1tIvb2J1EqDpCXtiiMq5Rq7n8yHYcPVGFbD1wUtJFb5keTis+vhW9Vehj24hvc3qm4fynnVKR2FSWqpM5gSAxLJZLK60UfZfX8n7ob36Hl7iIvuhotn++k7rwnbAj+2+UGVOiYS84uer21JO7FLWpFskdR5kHRvI9d+fyWv7hJ3kiEl38KxSSmiJeUzxPaJ1AmV6gRhTeZrm7J79fU4gtKCJCx64GfEp1ytci8l37ETlOO4xH0ZP/pl2PMqJTXDBZ4PR0U92Hf2l5TtQY3iKTMVKO3SuPdIJKVAQvxdUqNHkLGtA2Y+/Sme+TvpJaTveonTWUnMwtJRTJ3D4L4KKCTGKQyZqEUCak0lRidWBYhZAr2WQNy8HYxasoK3N0ghXfAFRBpJJe5m9MBe9EALur9D1b5+ryVE/uIP6DVlFb1mtHLxnU1EzdxN/Mw9OGa1EC0pYnO8KmVMQNlVlT3kOUsZyiofHgmDSCL1bB8jHvyEf20XsrncQMPqvSmrq8RnVGBb1Flp0SLQtKT7iea+KjUMWBKu0WPPGX+MavQczyyRSOv2YycpI6Csqn+Y2KQr8eSUhmOUEUk5jl4JAsrfWl8VW/A4qa/tgRAl191D332S8gjU1x1S4UvgKBNOAocEWBfQuOF3jfSZ68Ouento+/IkhWh+uFIoAspLFlu80rSqdvpXNZFc6yWuOkT8YoOY+Q2MvX85r2+QPE5UsV9Ta0L3NRD0S6cv+LAxwLWL3+bccR9zwc1w7s1eet25Httdy3DdtRX7Xe30mdmmagNJORLJ5ewKTCHGH/Sca0zSKjSVBO2Y5+PyB3fzyjaV9Q3BvZhBE0VxtOoChlucWYRoGTZL1T7xknIfKH/4c6Klml3u/zYoa5c8gi35KlWGQ/ppdkrK8Sp2+KOnf/flAGW7RNpE5VIzyyCkt6piy6v9cPuTe0m4txlHtUmiFEeuCJGgekl2qrOHZPzUSHlHTVU6t9cZeGr8qnpBstiYtUH61INt/m6GPriBf2yV7hAmur8dIxjAq8PHjUFGLvgn55cs5fwbd3HWzT7OvXkPUbeswXbbx0Td+SmX3N1Bz7tb6DOzRQFTScwFnaqsgLJTWsq5d56/BVZU0nPynF1cXb+Kv22RKt3So8WPEQwRMHSVTrbPDa8aulgeY5GOSnhasegTalN+DUrxOsiyaD2qF/+YmITLlaR0hivPRWxKCeh/aUCJvg30dhUalDhgqx6kVQ8QMDWaWzVufspH33t9OKp03HUmiXWSxa+TUK3jlNo8B1FlJfaXVB0gq3IX7toAPZdA78WQWOejX9VeEqvaiV0MlyyBmMpG8r+7ine3WtUHZI1Y2RRgZMXL9BrzKtETtnLeDZs46+YNXHjLRvresJm+N33KeXe1cNasdr51Z6Mq0iV1gaRol0hLKU0SLzmdqnGQZf9a9WDD0r5S+l9aII2paGHQdzfw6lYpf68jQVHdD9IAucNswm9u7tKrQtzwYQK6OAsi2wEzXY7e9R6xa7rGKQ8KSuF77utP+UVLTH451dcl332Mvu5LFSjduWUWMTzs6BFQ/vhXVukQZSsdJ/W1I6BRev0spb7aco7U+yo0IZWLZqpKXEGVxKkYvsrG3NEGt/5yN70qWrlokRAMNC5buJvMBQ30qgVRTQ+mGgp4U6q8qt6qcEklPUp6hQhYhW9qr4Go+wyc9xukzd5B2eJ1vLbD4K02jSE1r3LGqOf51sQNXDBxM+dP3cT5N6zn4ulbuOSG7fScvpuLZzQoQPa8o4E+dzXRd2YLsbPbiLu3HdscL/Z5ftzzNVJng2uhTq8HdtPzwV3EV4XImAv954GropnB96/k9c0dShWVmrcEQqrqgapgLbVDpZX4vk68XUF2YryuEVBa/Rc767WKjLjvh08QmzI4nEQsk1HsNtmKicsYxrCSG2mR+hZiEu9jsljNVa1izPvXfT0OoOwSp5Q6q3JuRxMSUQuSIplIjNBi0/zs8d8Tl3ClKvfhyp6MI2eCVWs2t4g+Sd+h/iGL0mdKVQHpOt5NIeTOce56jw/0WnahvCFgWsl97e1+RpXcRt+MkcQNLMY28AjIA2rF77LCd+UDWnw+k03tGlN+00rPuU2463QGVLWRvqCZuIVBog+jwWuEkyqqbkTdjbwnDJq4+3Vi6gW8Bun37GLUDzZw6aJ/cHrR05w1fiVnjN/KNyetV60OLpi6lQunbeWiG7Zx8U076H3LLvrctpteM/aoEiNSpCtSE0hKkMTP8eKcF8AzN4S9sp2+i/fQZ3EbthqT5ApIvns3gx9cw983WWlhUqRb3eN9jT/DmQgngK1zOBNCum1EOj1ZHTgioLxWZfJLoFxqlapCwrnFqmDx8LIbafJZoOwkzZ9gUHbxvnaSB448Tqk0hki1+HCGyB//9CoxrstwDyjDlSVV6wSYZaosZd+Uy7irYokSkiF/SHXO6jrXD2fs9/+OMl3UHiVmbYXN9uxuZuBV5UT3H43t20XEHxkoD7QKWO9L514J53/qh1ue2IJ97i76SP7iIhgwbxfZCxsOKikPJkXlM8n471MfoPciQ9HZXKJSVu0h+p4POGPSUr5Rvp7TSjdz1vhPVO8R6UEivUjOv37zPmBecvNOVR3vEgHmHQ2qBpDUARKAxs4SidlGVO12bNW7SZyn4ZlrUeeiKnZxxf3v8fpWITCAVKBXpR4EkKptgxCkpczHiXHi7H/Tu/tbVOtIuwGlZneRlG4FyM+CMjZjCIOLprG3zaKXdTaU+f8D5bGIU34GlGE2zWtL/4M9+Spc0uIgW9oOiKQUUI4lJv0qxk6ZgTcUptcJ4eOYSErRP2RsrdDeqtVbScnKJ06Kcg0qOlJJeXBQBiUmF5KKbl52tOjc8HQTF89rJ7oWsqsayavce1SgdFcbxNX7iF1i0KdSEovBcb+Jc4mfi2/fwaklGzm9bLNqmyd9LaWdXqRzVwSY37ppBxdN36FaI0gldgGmbFIAOvrucJ+T2q3EVzaTPAuSZoNtThP973uPP+9oV7InkkNm6sKzFVVVqIASi5TAh1X0sjuQnOj35HzEuSHAlNfyeODhp4hNGYI7TCnrKimj064lf+JtNId7XkjOoqUdfdlBGaZlCiDDoFz1yWZyLi/GNaAQV1Y5DlGZhd0jHNQBQ8m9pphte60CzYo4cIxAKZqLlccEz7/4b5zpo4nLGkv8t4uIy/t8jZ5DZokcalK1qzZjGoQTOde3wbSnduGYux1HvYZDJQdbJSY7PZyHQSrY5yAySKhvwy2dsSSxuAYFeJc4hKpN+tywi1Pzl3PG+DWcNaETlAJMkZhKlb1xu6ohe9EtO1VdWVXG8va9FijFxpzVimNWB/bZBs75JvbZzeTM/4BnVjYospwmaeia2BhClhcwtqvkVSn/IVM/wjA61FidiM+tWKis9gIqi15WtfgnxKYMxZMz0apD2kV97ZN8FeU33kOHSAjxEuzLvvgqgDIcy1OhA5OW9iBDC6ZhSx+BJ6dsX38QlU+ZlY8nezivvPGRWshUOz81HgcXSge7p6I9SxcBTQ8QUr0uYdGDTxLlHoItq5i4gWOPjJB+sIPKZ6ItW70cRbUTJU9jR0uQ6U9u4cL5jfS6HxKkbEaFRQg/ZExwHxgjwDVIrmkhqaYFd23ISheTcpCVBqlVOhkLOjiz5CNOLV3JmePWqA7QIi1lE1X2gqlbuPCGrZx/0zYuvHmHUmNFWva63ZKYfe9uIu6eDhJuMnHeYdJ79jbSa97itx83KpVVNA8h+EtupAKkkpASHxVAyj/L6S5q7aHG6kR8boFSJpKAykq4uf7mucSlSEU1mYgCzE6bMirlaqbPqlM1vqTLUyTzxvp9p8Posw1+joOjp4tNeWzU1/DFqwa2ostY43HdrfOISx+CW4ot50jNVUlwFk90Mb2TrmDxw08pUAaPRZaIgFKTGLZftWTf0+rlmjHTiUsrwJEridz52FQvlC+YunWoiSQtrSWLQxKM5Rm9DYx2tnih9Be7iapoxFml74tjfhFyQcTelDIcnlofnlo/CdVSksMkqcokpUan3xKNnrduoUfhMqQd+6klH4fbtHexMa/frNofnHfjNi6c/qlSY6UCu1RiFzW2710tJNxu4Lh1G/0WvMbPV+5Qi40KcYX55CFBpmR8mMLUsTrSi5RUdGfR944BT/JQY304n1ugtBYImV0NLV6uGTGJ2BSRDpOxZ3balM7cYi52X0rldy2voya1hJT6GgH1VwSUhqjklir/w8d+TZ+Ey0jIkxqv+ThzJMlYmvKUEZsxgivzr2d3m7RSl+yto0vfEkBqQSl/KcIKfv/iP4lJHqIqvTvzJhCfV3R8QKkaqmotCpAiMf2SGa63KptmY0uAaU/uJmqOJBgbuKsMkuqt3ETxrnb1tkYA2N2z1HCVQlWO+iAJNT4SKzWSpGKBNI1domGv8XN62SpOLl6ubMszxq3htLLVnDl+LWdPXM85UzZw9nUbOWfqZs5Xquynn7Ux72zi4ru2kXzvv/jl+5vVtYRCppKQUqfFYK+lD6ibFPFvWkwd5fJWesrR3cDDAdzhfEdAqR7KFQ8vvPR3EjOuVhXG4zPG4cruIilziuidfBWP/vYv6icCys7k3q+I+iqAUKAUaQlvfPgxrqxhuHPGqE0qylmt7MqxZxZgy7iaZ154xRrCY6C+SoKCgLvd76dw0m3EJA8nvr/0KJmAXUB5PLyvSJEoTRJ6rbacXkNHE2mii6WlsbEJrvt5KzHzm+izRGramAyobCOrspn4aoNei6wiyJFQSHeglPilANNRp+Ou0UisFo6tVeoxrt7As9jkopu2K2l5eukqzixbzRlKnV3NNyd+wtmTN3P2xD2ce/16zpu+gvNuXsMFN+/loukdfOvWZi66ZS2ee/7GEyt2qtaiqnW3Hi6qrGKPDSBlI5U0tGiRaiVVNy3sUDjKVVUBTok5AYOEJwKIFiJdojVVwElHOkWp1DWlZloxMLnhmhQcDldck++EQjL2Vih18o2zFd9TmsxIWX679IHME+dGMY4Bo0nOHs1bH6xV31cquspd/X+QlF3ilK5jEKdUPi4Rjur+SX5rAM00aPQFGFJyE7Gp15KYW4gneyyu3FISBk3AnVNE36QruDp/Ms3SGVhurYy9xOZlcVZdlS1Pu9yqz2zqWGGiiAhGMWd0Ez3c6PbhR39DfPLVeLJLlbbiyBuPLW/s8QmJHGr1L9X+zwAAFqpJREFUlgvb2hKk7KlGzlvgJaYW8qpayJu3g/iFAS4SCVhjSc3uAHk47yXUofpenjT2I04uWMaZxR9zZvEKzixfyVkTV/LNiRs5e/xuzrl+Fefc8g5n37Kas65rotctGudetwbnPa/xzAfblOPaCvEKI0cy3f3h9mnhwT4hGR5ipUpM1NI2ZPykzXZQ8xPUOtCNUDjAL0CUtudCXNAIBPwKtH5/K5pmgfKRJ57DliqkAanEbVWIi5MSFAOlZH4R7oyhDB1xPc1NVozSckxEJP4JlpTHA5QKHJIS4CdkeumQBHmg9geP0zfhMhKzC0jMGYsnrxSXJD5njcWdPYbohMupqP+p5YXWDNVB2tsh5V2EzyxJ2rJZBdI+C0wBr4kWslrSmxJWAf72yhv0yxyNKz2fhJxxOHPHESdFoL8tXcSOiDwgq+ZRbIZ0gdbZ0A5THvsU+9ydqgKckAySF7SSNr9JVcU7HPAd6DvSFt1TY3Ja+WpOHvMBp41dzmmFyzitZDmnj/uYMycu58zJ73L69R9x2rSNnDGtgYtuaOfiiStIuuV5fvrBVlXfp82UZA+ToKRdhR06EocUc8QKExzFOBzWGIoUluiiT9UlavV20OoVkFoPSVhT4lq0ENnE1S8gDfpU2Qnr11ZGypN/eJlU6a+YMcoqOCy1VHNLiR9Uji2vDE9uMdHO7zBv4fetVV0mmmq5ILVp5HpPMCiPh6NHgVJGNKAqI/qkrbt0bF6/haTs4cSlDiVBNIacEuIyi3ENHIdLKqX3H0V8ylU8ESaoy278WoCQIcxrsbOt1ghWvqy8tt6Xz/26H7+uen+rm/aXV98kPWcUztRhOPsVkDRQWrKX4ZAO1HnifT0OIZFDAVZWFF3V8A+wpSHA1Cd20nNBBz3rIaOqjSsqtpJcHTqKRGkTt3TGqoPzp23lpNHvc2rBh5yS/z6nFonzZzmnTXiXb0z+OydP+ZhTJjdzxuQOzhu/kqQbnuMXb29Q2SfipApIy3TDT1Aa9khz2HAcUqmqJ8C7Kh5cgaDVHQVeePV1xpTexI+e+COvvf0hO1vDMbQwSPd/8vpD/P29FUy9dxHR6ddgHyB2k0Wps2qbFqvEWqc0Nu0/hsSMIby29D21m6B0pVIlViL1VL8CoIyor2pE/UiZlg4REsC9VT+kb6J0xcrHmVeKPW8csdmi1o9D2qPb+43Enj6Iuh/8mD0tVuDfWhxFrZUMIYk7iF4lW4eSxlLQS/Ytj0/bWljyk5/jyh5NbNowXJn5OAbkY++fr9rBuweW4BxYRJz0Esk9xt7Xg4FSllyfYeCTVV1sT1NndSOM+3kD0XP3klgfIrWmA7eQ2SUUUmXso9kdSCp2975HGtPWGPS6dQ89xnzAKfkfcvLo9zi58ANOKfmQU8o+4NTxH3DKuE2cNqGZM8pWE3vdCzz+1iblZdP8luQREEptHc1oQzc7VMEuCyRWmZ2DXeux+MwCpbIm1Y39/V9fIzrhCqISrlbOiSsLplAy9W5um7OEmu8/zpIf/5L7H3ma2u8/yYw59QwrvQlb7kguTh1CbJZ0ebKqcEd4rtJQxpVbTkLeeKITrmX8lHvw+q2qbZou2oEA86tEHpBIrUU7FMAEjCB+0dFFWq7dQvqgQqJTh6j2CALIuNzx2HLGK/VSwjKOzJHEpV/D0JKb+fVzr7KnUQB44IcAcu22T/npb/7EkLLr6J12BX0lmVqaz+aMxZYxnLwh13HpqOnYBoxS3aiPC83uYJNRQCnWSotaW0QHV0sXG5t1pv5sI1HzdvOtxZCwWOKOVu/Kz6ZRRWKVh3iugeRF0OeOBgVKUWFPGfM+p4z9gJOL3+fU0lV8s3QP55bt4szCd4ia9Ee+v3STKt6sesXIoidVn5V09GJI1yYVh5RbaQHyRMQh5aaKVLaULPjjy0uxp43Eo7pQFdA3Yyg904dzyX6bei9tOD0zRhCTW4gtrxRb3jik4K9DbcJckd4Vhao+jWvAWBL6D+PPf7WKUlkxPDmqbOEMly+5+mrNS7GPI+wm69pE/luwhCUPP0mU51I8qg1eCXHZ5apyuYyZK2cc7pxJeHImEZM8hrjkEVw9cjp33vsgP3n0Dzz7p6W8+Nc3ef4v/+J3z/6DRd/7OdfPqCH32olEJV9LXL+RuL49jr6qNYF0ERuNPeNqvvfYs0y4pdoqyJx7xIT0o7OjZBCEAyN0XFEIlfNE72Bzs07RE7u5sLJN1X0Vaems1FROpusLloJ0SgGreoib1UaP/A85adR7CpQnF77PScXvcXLBx5ybv5MLCt4juuRJfvrvtYqJ6JfTEdtfTjAkjHKxDUQF0dT03Ke2ClpOQBxSDY+qZWB5/p59aSmO1NEkZJarEhb2XKFljSM2r7zbLS5PelMUqW5V0jTGAqTYMFZGiCuvUKlR0Z4ruG1mLZp4E5XrQvQBsViljkKEBPHlVl8tZpIsMLIJMEUjCL8O0+7a/AFKJ99BbNLleFTzVqlEIGGj8Xiyx+OSbtIDppA8cBqufmU40guJ8QwlPnEYCemjVK9MW8K12BKHEps4zGLqpOXjzi63CBq5E4iV9gu5+fRy5XD9rXPY0+Znwi0L6Js6jPickuMTEjmYpFShMkMadrbti2MKD8bUJKIZ5OMmjQmPb1ONY1VR5yppq6fjEcZOONH4YKGSiCorpPVEab4zx8tJAsrR73PKmA/oUfA+Pca+y8mFH3L68DfpXfgLfvLPFcoakCIKig8gzg2zRQFSfNziTRNIyCbSUc3S8B8Hv9ajW7xk35ZHR9Zxyxv63F+X4koZTeKA8bilrXiO1JU58OYST2KOTIqxKrteJodLJkjYrhTidd+ka7h61PVs2dloeRCFEKGKe4lDzrpm6zq/SqDsBKeViB7EVCoSrN2wg0uvLSVeWD5ZY5VWIp2cZSH0ZI3HkzNB8WTFa+rKLCYhp0Q5h2SMXVlF6j239CXJKrFeZ5eofE0pY+kSlbh/PjHJV3DZ4AK2725UxTsKJ80gOmM48bK4nmibUoFSa4fgbgwjoBwqbdJLUpc6O2Ish1i3N0TRz/zEzmlTXa0ku0Sa6KRV+fFUaYrvKiGTCAC7fZbEamm2c6+Xk8d8xMlj3ufk/Lc5qeAdTi74iB5Dl3Lx6Kf44evr1Dn45IYIOScgk9BHB1vQTckbtWJPCpThONSJBaUAU45uue7//NeluNNGkZg1AXfWOFxhl70AT7aEnAL1HPnbky3vjyExb6yaYO6s4jDHsxhHVj69Eq/iytHXs2z1VmUY+UMB1bdRvLiWmz/SMlwWGAGlZVGL/OxKs7NnjEXKaUj/DXvuWOJlUuaW0ifhCqbMmLPP6DrQIqYblu0qX1z4QKTuq1D/OhcQSd+Suq9/+ts/1f6suq/i6bQYVQfad+R9oXxYqrgAUtRYUXVEG5KCrlI7OEhIcmKlSPO7H5FzZTG2tCEkZBXhySzBM6CUhJwiPDmFJOYWKSB6VF9JufZ87FniNS3FniNmQqnqyuzJLSNBKHsDxpCQLc2JJO55Dd++upQ33/5AHau53U/JdXcSnTGC2Nxy4pT3txxX1kSc/QrJvaKQNeH+lEqL6cZr3yNykUf+LMFXUR2suI7wK2UCWINkafebmzTKHt3JeZV+1RJvQHUHVyzYRmJFOxcshuj6g8cx7dJteQnEzmzn5DEfc2rRh5xa9G/OKPo3p1z9Fr2H/o0nXlql4pDSmySkMj0k7Urc2xZlTuzdyDV2BujD0u+oswUOU4qqMludHrxn//o6jtRhuPsX4xkwQQWd41QvxVJUBfHsYuIkUbnLZhP1VTpI5eTjks7EuaNw9L+WPq4cxk66nTXrLEDKtQrxQMRz5Lo//2xNZvVdYVYjWQ7/wN6/BEfWRMvuyhWVTzikhfRKvopJd1ap7x1sv7rhI2hY+anzFv+I3gnX4FJ23HjcUphYYoZyjIzhPPeSBUoJP4inU4whiTtaqujBzv1An1nXJGQLif8KY0se765Yw7CSqfRNvBJn/yLcQkcckE9ynkjPAtyZYo8Xq56W7kyRjKXYsiYSmz2V+LypxGdL5+kJuDNLSc0tV5kgfV1XqoTmFautJrBCJvD5NUqm3E2f1KHED5qII28SzlwhLsjxChhw+ViWr5cqFiI3hPRgOeK63ptjAEoZnIid8vmBUiNiGqxohuJHG4iZ20BirVWNIKmiA/sCLy6l1h7Y2SM9Lj0PGPS+axs9Rr3JNwpXcWb+Kk4f8RoXDn2CH728Wd3SdolDCvNFqYfi3bGaj0YCwF0v/P/ltXKyWPmZMi7Pv7yU+KQr6OO8HFvyCOz9C4gXL152IbacQvUsf+/bxMmTMxpHzmjceaOISbuSqIQ8Mi8byQ9++jQtUrtE2YwSppJqAtaEPJxrVbVQgRde/DvxaQL0EpWXmJBTiDNzBM7MYVziHsj4W+epY1jH+fz9lmOJJhAIWWGGisUP08dzudICXFmFuLPG4Mkc83/tXX1sVeUZN2HLli2Lc591qNDaj0ur3doCFwTBUUojrkhx2CES/tA1WVyWjH3JHIGVsNaPjcFQ1C2yZS5bAmO1BdtCB9U4WGAoILKUIbRpa6EgUrzl3nN7z/ktv+d53/tFW1qhWJKSHM69p/ec9+N5fs953+f5vc8rIGA6yK3bG7XOJgyhYSrlsg6m3v39RkBpKHCO2T6x9b3TeHz175BVcD/G5XxLpgpp/m8LYZ27Sisd7yGkC6F/CVL9SzDevwRpnIfSmEx6EFn5pUjLLkbupFL8svJFdJziVA2IhDy4jodgTxgLFz8mpPg0Uvxo0CZzKdkCpH9jLibePR/NLe3ijHLIQhKKYGI/XiVQJj40uaOE1oYIjp8JY+lzJ3HLim6h3+WscTDjF60oqAhoRvJLVpAoUNPXePA93YvPP3YQN5TuwidLmzGm6B3cVFyN5+oPgZvDi40Vb3BINwASt5NuPkpQDmQ4kus7XN91WwaOoZWm9cH5ALbW7MITFeswv+x7mHTPA8iaPBfjcmfh1jvuQUrWNKRkTUeKb7qcb/ZNR1peIW7PK0TejBIsLl+GDb9/Gcdbu0Qx2E4npGD8KG3gQ2q3NSDjjiJk5s6FL+9e+PKKMSG/CL6CWRibORGLHvm+lMX/+iuDQ0jXsGsqqjZgbIYfmXnFyMqfA1/+N5FdMAsZ+UW4LXsKtm5rMM8jWYKJrWm0Btan/spNuM43ZciV9KCRsGHnGBdC0563UP6DlUi/awG+eOccfOnOYnwtvwTjpyzEOD+PMozzfwfjJ5Yic3IJUr8+BzdnTMP47JnwzyjFj5b/Cv/efyTaDxGH2zOqAQwGglj0cDlu9U3F7QXFyCgoQlZ+IXx5s5GeMxNT7y5B8/E2ubc34sgmucm6Oeyg7GUsk7SwMFeXhHD0jIeFf/gAX37iAjIrXUxdfRa5FRejjp++55Sa3OqzSw/jEw80Ycx9u3HjfQ1YV3dapoSu14WgF8SHXgAOGH/kEIh0AROTu2aMnYGVSbxM4m1Rb29UqlzB2RPC/1o7sPONA/jzlu1Yu/ElrKxci1VP/harnlwn54qn1uOFP/4N23a8huYT7QjKzkL6FNK/wo5yZBOUcxAKzrdkLzNMeC463utEbd1rqHn1dQmp1NY1oba+CdXbd2JzTR32HjgkoKGV67ccWZsaEW7ooSPN2PJKA2rqd8uxvb4RtfWN2PJqIzZvq8eJtna1UJwLCr/YOqP6B32/5cbXiUuzwgoW8lvDThiO4yDMJXqm+/c1t+A3f9qMR36yGrMfLEfuzPnInDIXmf4SZE2Zhxx/Me4qnIcFDz2KZY9X4OW//gPvnmRSVv0nixno4Q4zNzA3+nEQDgaxd89+bKmuR3V9E15p2IXaeh67ZWqws/FfOPf+BbgRcm17ZUTDsUV8m4YVlBQcE1F3e0wOx738dOL9zlkXD29sQdqKToytcpFR6ZmEz30ne+aO0Kk/7sVnSo7iU/fW4aZ5L6FqR4vER6mMzPLOnbnCBpBcbMYhrI3JEbnJ1ii+E67V5ygo7Xiaw0sZYqqiWGEP6cxRgKwF1WfJ3H4I24VbojvPnhnuXq58+W08AJI+SzspF52mXu5x6qCR1R4qJ96qo5sBgJ9UZrIMxdUsMS+DQOqArKHUSLFGjGNVe//CBbS0d+DosRN4Y++bOHDwv3i3tQ1tnZ04H2BMLfGfJ+s4SdFkZXX3LUToXRxEoykzaaR1UiW2c1hByY5iFUkeswul1fsYwrHTIZS92I7PrQog9SlmmtNF0swtm7wmM3s18NXvduPTs/fgK4WbsK7ubZwVt4ALJuOTGIjwHskpDUoUklE5kouFzzCSQCnaZj2FTGVBb6F6DCXFRz/KJm0Ry2KAbL2NosxcvmSOOIdWsqIO/rsNMWhkUz21JhYoo4+Y06yvZ6rxUTBwYEAY8G4J64tjg843mkzTD1EjZUDJWwfwU/RVZl/XZJpAexd/SAyTOXW42as5xBt+OTBZbzU91uaQtgja4+RIWeqoQ/uNzkaO2FQXRR9tfSSuemlfDjsoaTm47waJBSQYcMYHiWOGcPCch/tfaEPqim5JoKUZDBwhn0eHseS9VgA3LjqIL8zZhGer3zZuHM4kmT/IhceEtXxbsKxol6lgRSDsbxnCJlqkvgQ5nNesG1/V0So+BWiPOIFbwSedBcCS2IvCtwqhZ/VYXirkobWJPUiSRYyIrSRtuyB6cE4Y9jeBZVsUBaUBoI5ijIGxAVSJIytxzhqhodU9Ub58hoA73o4RHFIreue5Skh3j5YwCumiZH5xxMD9RiKsvZWNOYspUUkmytNeo1zZWjW2WhbvVVCa5pt5M69fKq9hBiXBEAKcTniRgLwxuTtHMNKDSC/nfWE0d11E6fMfYuzPQxKrJLGA5HOyeJh+MqcSSFnWjjElm1BVd0QAybWdFDqdaiH3PCLMi0DXN3XTTSQH2DclpXMlAr4a99JkMMGIBmlkA0Bh2YjyiALxk1Xjvs9cNSKHvF0tsClYVYorrydryYRhnALwzGkAY4f2GAwo9Y2n7xbeSTqjAkSMJEFC80kNpcGUQ8bhhm1l6YAfXWZ8PoNPnDBxpCijabtGUoAVW7tqQ2TUJ0aG7KEOJ/axAseCPFplqbqaWJZjJaZbJfKbOq44wLFgtC4F9o3yyvj8xHYOMyi1oxFhNryQKCBfag43yGGuTsnX6WLfWQ9lz59C1k/PyM7PKUyeVQX4ngliwsoAbimrxdqafUKdI5SdiPGqEmjCEiAxQAUc3wG8xO8jAZDseIUNRaaCpJCTBaIKoCAb/Oe+nnMl1+zbwVh9GWbFG4DBPVuUXah98l40baVMYvdHtVWMJr2k2jsWCPG/HepnY6bimEyqD/oclmVGtgY0vYbxZfXG/i65XAWnxuNjbVRCI8GmMXHKMB5wWraUKbrAqR3/roCPL2PYQamFxTrDeFxighEL42J/VxiLN5xC2vJ23LbGQ8bTEUyoOIb08tfxzN9PijENuB56XA8Ol4uZmJ+1vPGNGv0cU/rRvrj++uIagXKgjmG6i7BMtf9z2sXijW+hYEUrcpefwtSf/RO/rj1sVqFAtllXIhYhSWuuw1gCc1T5Burj0b9dT/oxIkCJYJBUHFnHsL+rG0vXH8W0Hx7G+h0nZR7KGcZFD+iJuAh6hCN9d3ZuMzKcONeT0EfrOrKN1A2J0ZeP55sXisC76MLtPYcQQvjLmwE8+mwHTogrvQeu2y0T9hCTSAl06XSIgVKcOR9P1UdLHe2Bq94D/weeam+0MH35tgAAAABJRU5ErkJggg==;" vertex="1" parent="1">
          <mxGeometry x="190" y="520" width="229" height="80" as="geometry" />
        </mxCell>
        <mxCell id="ujFVM9XAjsb7zgqNAqnT-27" style="edgeStyle=orthogonalEdgeStyle;rounded=0;orthogonalLoop=1;jettySize=auto;html=1;exitX=0.5;exitY=1;exitDx=0;exitDy=0;entryX=0.5;entryY=0;entryDx=0;entryDy=0;" edge="1" parent="1" source="ujFVM9XAjsb7zgqNAqnT-4" target="ujFVM9XAjsb7zgqNAqnT-7">
          <mxGeometry relative="1" as="geometry" />
        </mxCell>
        <mxCell id="ujFVM9XAjsb7zgqNAqnT-4" value="" style="shape=image;verticalLabelPosition=bottom;labelBackgroundColor=#ffffff;verticalAlign=top;aspect=fixed;imageAspect=0;image=data:image/png,iVBORw0KGgoAAAANSUhEUgAAALoAAADFCAYAAADjeujlAAAgAElEQVR4Aey9BXRV19Y9/v7j+37fe32vLRDXG3e9cSNoIAkSEtzd3aVAcYcWKKUt0FKhaKG4W9EiCe7Bg7tLYP7HXOeeyyXECRB4MMbl3Fw/+8y99lxrzbX2P548SQf/PXr89OMtj2Pw+Ek6nj2X4Xvt/9KfAfy8j9ehYHHI6/P48VP84yPQcz+wT54+ewXQN2/dxvETqdi8eSvmzf0D303+DsOHDkffPn3RsV0HtG7ZCm1atUabVm3Qq0cv9O/bHyNHjMTUKVMx/4/52LJlG06dPovbd+699NmcPx+Bn/trk5WB+Aj0XFrvjOA+c+Ycli9bgeHDhqNB3fooEVUc7s4u0FhZw8LEFMZFisDos89hXKQoTIsZwayYkRx536RoUXmcz5sULQZLUzN5n7e7B8qUKInGDRpi3JhxWL16Dc6nXXgJ+B9Bnz/QfwR6DkA3ZCRHj53AlB+moE6t2vD19NYBuijMjIxhbW4OO2sbONhq4Kixg5Odfa5vfD3fZ2dlDSszc5gZGclEsDI1g9bXD40bNsJPP/6EkydP60H/NP35R3qTw7UztO4fgZ7JYBFE6r+Ll67g9xkz0aBefbHYtMAENi13VoDm43Y2trCxsIKFqTnMjE1hUswYxkWN5WhmZApzEzNYmVtCY2UDextOjlcnBj/H1tJKVgJ+r5ebO9q2aiOW/vFTxaf6CPjcWfiPQDcAOh1B/uNx8+Yt6NGtO4K0AXrqQYudlaV2tLOHjaUVTIqZCIjdnJwQGRyEpArl0bBmIto0qYN2TeuhbZO6aFQzETUS4lGmeAT8vTwF5KZGpjIRODE01jaZTiJOLtIeUp3EyglYvGix3gk2tF4f778K/o9Af/wUqgW/d/8B5s6ei2qJSbCxsBT6wGNWlpug53OWphYgUEMDtOjaujHmTBuHI9uW4PrxLXiUlgxcOwDcPgLcOQrcPip/P7m4B7dObkfa/nXYuXo2Zv4wBoN6dUDVCuXh7e4OcxNzmTTWFlavfD9pjrmRsVCnOjVrIzk5RT9BP4L8VZBzTP6rgU7HTrXgjHzElSsv1psgUrl2diC3NLMAaUhsqWj8MmkELh/+6wWgrx1A+qW9eHIxRcD+8PxuqDeC//GFFDy9tAfPruwDbhwE7h6TicDHTu1eiYW/foNubZsgKiRIKA5XCtIcwxWFv5EW3sXRCRPGT8DHyFnmIP+vBrogHMDWrdtQq3pNxUIam4j1JEUgD6djSI5MQBkCjNybwCsdGY6Z34/GvbM7BagErQrm/B45AXB1v2L5bx+RVWHFnB+E9vh6eAjHJ7dXOb2zvYP8RuPPi6BJo8a4dPmKnNpHy/4y6P/rLLoK8CNHjqJj+w6wt7EVUJN/MyxobmyCAF8/NG/cBDN++QXfT5oET1c3eR0dTDqUAT7emDz6S6EetMS0wnkDdjIepqm3FDxM4039+8XxUVoK0q/sB+4cA24dxemU1Zgw/AtEh4fC1MgEVmYW+gnIlYchzbKlSuPQoSMfwW7ge/3XWPSHj5+Kg8mrf+nSFUnkELyMcZOD03rTaletnIDJEycieecO3Lp+TW6/Tp8ONydnsaR21rbo0a4ZTu9ZLRY8/fLeHAD+ArQC5PPJeHBuFx6c3YH7p7fh3qktuHdyM+6l/oW7JzYqt+MbcPf4euV2YiPupW6S19w/vRXPLqcIvbmVug0/ThimA7wpbK1s4GyvRG0Ypw/y12Lrlq0C9o9xd8Wyf/AWXeXhDx4+klh0WHCIEqOWeLWxgLhFk6ZYumghzp0+JeC+feMa5s+dg7iYGFibW6DY50URX6Yk/lr8i96ZzNKCq5b5/G4B9L3TWwWsBO+do2tx68hK3Dq0XG43Dy7DzYNLc3W7dXCZ8r7DK/Hw5Abgym5cP7oBYwZ0l3Og80p6RSpjYWwCL3cPrFm99iPYdZb9gwU6rbj6j6HChIqV9VlI0hMHjR1aNmuK9atX4/KFNFy/chnnz5zCzu3bMWTQIAHPv//5b0kCjfqyG+6Sh98++opjKYAXcKeIdb9/ertY5ttHV+PWoRUgQFVAC1hVwOrAroI+98cXn/fg+GrgwlbsWPYjypeIhKmRmfgYBDuTTTwuWbL0I9g/5KgLry71J/379hOwMpJC68wYdLUqiVi88E9cSjuHq5cu4tSJ41i/Zg3GjRmD8mVjhKsX+fRzlAgPwcZFPwtdSL+8Dw/PvYicvAB4sljuu6l/4faR1TpgL5XjrUM6K5xvUCuWP/tJsAzPzm7AxeSFaFS9EkyMTOFgaycgpzNNsC9fvuK/HuwfnEVXNSk7d+5C+bLlYPR5EclimhuZQOvji2/Gf40zJ1Nx5eIFpJ09g21bNmPc2LFo0ay5JIdEp1LUCC0b1MQlhgvvZGbFFe5Nrn33+Aax3KQgenrxRoGdOfgfn1yLO0dWoEOTmq9YdvojmzZtFrD/t0ZjPiigP9WlNufMngM3Zxd9NIVUpVb16ti+ZTOuXrqAC+fO4sjBA/j5p+no1KETmjdtjrCgYJgbm4Kx8RH9uiCd8e3rB/Dw3K6XHc40xaG8m7rxBcDfiuXOHOCqtb95cDkepq7BvaOr0KpeVbHsDEEKZzcxhb+PL/ak7P2vBfsHA/SnOunsd5Mnw8bcQmgKY+AaKysM6NdPrDgBfv7MaWzauAFf9u2PZk2ao2P7joiNKQczYxPYWlnjxwlDJekjEZWXqIpixRn9uH14FW7RghcCgKtA55Fgf5S6Ftf2L0GthPJi2VUHlZGl6MgoUHXJf/9tlv2DALoaWZn+03RF8mppJUBnWHDaD9+Ls8mIytlTqfjzj/no0K4DWjRrgc4dO6Nh/YbQWNtKnHzeT18LVWF6/qWoCp3N87vFySwYhzJ762wI3rzeJ9ifnlqPU9vmolREiEgJ1NAjhWE1q1XH3bv3JCX+3wT2DwLotFArV64Wp5NW3MbcEh4ubpjz++/ibJKTnzx+DD9OmYoWzVuidcvWAnbSlpCAIFiYmOHXb0cA945Jaj4jyB+c3Yk7R9forPibA2leQZ3V6wn2Z2fWY/ui7+Ht6iIqSlIYSSp9XgT9vugnVv3J0/+eSqb3HugU1J4/fwGRoeGwNDGVdLi7kzPmzpwpDufp1BNIPXYU337zjVCVtq3bon3b9ujauSsSKydKIuirwT3FkjP9/irId+D2EZWqFH6QqyvOnaOrJdY+64dRoDCMWV3SGGaCrc3M8ce8+ToK898B9vca6GqEpXfP3pIE4kWkTuWHyZMF5LTiBPqU778XkLdr005A3qVTF3FAbSxt0KxuNXE8n15+la4wqnKbCR7h4+8HyDkp75/aKhP2yaW9wM3DGNC9rWhzaNFp2RliDQkIxOnTZ3Vgf1kX8iFSmvca6LxKe/fuh4eLKzSWVqJT6da5My6lnce5M6cE7PPnzkOb1m0lukKAd+vSDa1atIK3hxdC/H1wbu8a4PrBl2PkjKwIyGnJcxEL12U4VWuaq/cUdAjy4DKJ4z84t1O0M08upOA5xWH3j4ssuF61yqKTV8VpJkWKomf3njoK8+yDd07fW6CrDiiLjOlkMRkUWzZGois3r13Fgb0pmPzNN4gpXQYhgUGICouQ+xQ9sTbTzMhE4eV3j75KV87t1Cd/suLB8jgnAQF2dLU4qqJdObVFdCrK+3IxSQoK8IdX4MGZv/GI6sebh0GH+tjfS7F12Qzs2/QnNvw5HWEBWr3Ulyufq6Mzdu9WtOwfohU3PKf3Fug0RTdu3UF0ZKQsxVQfjhw6FIv/XIBO7dohNDBIZLacALyodFJ539bCUuLlVeJicPfMTjy99Kow686xtTnTlYNLZTIQ3OT1z1SVIZWGNw4D1/fh6ekNuF1QQM7ucw4uw53j68WR5upEWW9ShXLwcHHR6+qD/fzg7+UlWVPVqpsWLYZeOqv+oYu/3jugU8OiVnTOnTtPIi3k5q6OTvD39tGrEalKJLiZLFK15coFtpOQW92qlQQYLIzQO6BpyaIkzJ56KFb87okNokSkNIDZ00uHN+KPn75Gv66t0a5pXQzr2xVbFv+IxyfX4e7RlbiZHVBf97mDy8D4Pi05o0fUq5sYmShjY6uRmlQWbWTU1XPSB/r5I/XkaRlTQwv4od1/74BOS37r1m306dVHHCuCXLVQvM8b0/h0uKgrb1CnDoYOHIiZv/4qAq4mDRrA1MhYrF3y2rnAtYMK0NOScf/Mdr2yMHPKooCc0tqH55MFWBR7TRz+BUK0/lIETb06teLFihhJfH5Yrza4d3SlpOcz/8yCcXLTLybjVMpqaH28UeSzYpIsMi5mIhlSKhszVidxzOic0gh8O2mycPUPDdyG5/PeAF1VI6alXUBCpcoo9ulnYrFUkPOiEeAaS2sRbU37/nuk7NqJi+fP4cbVK7h1/Soe3b+LX376SbH6xqaYNn4wcOuIgPbh+V058/KDy3A3dRNYEEEl4+Gti5EQWxZGRYxgLVU/SpsLKiMprLKxtIaFqQX+nDYCT0+vz2ESvR7gcWM/5v00HsU+N0JcqSj079QUXw/ohKE9WqFh9YpgdRLVjdSuq2PGI8eselJVPHr8BOnPPtwWGu8N0J89e45bt+8gKSFRhFqGF4scnBSlcnwFzJ01S3TllN1euZgmysRdf/+NxX8uFG1L7x694OzgKOG2/l3bSMSFDhzVh9mGEcmDj61Tip3vHBUnT+vtJZ/D30KLaWZsBlNjM9haWgtdoCX95F+fYfygznh2htqY1wNz1u9fhifntmDlzIn4fkRP3D68Ajj3l9yen9uIJ6fW4dimmRjdtz18PdxhptOu83fTt2EG+UN3St8LoKsRloEDBgrIab0F6Pb24nC62Dti+JAhAuprly+JaIvWfOaMGRg2ZKiEFpnyb9GspdRVent4Cr1oUb8myLEfnd+JW4dX5KBdWYH7Z/4WS75zzRyxkBYm5sJ7CW5/Tw+0b1wDv4zvj7WzxmPjvG+w8McRmDS0G/at+RnUjmcN1NefANS8U73IlYPCLsPvIvCpgUHaZhxY+wuqVSgrk1IdR9KXbyZO+qDpy3sBdF6B5N0pYnnoYBLkkvgwUXj4H3PmgACnvvzA3j34+aefwJh5sybN0LJ5S6jZUAq4mP738/KGaTFjNK1TTaIu96lEzC5errPmz68ewMVDG1EqMlz4OGkA6Umvtg2Qunm26MJpSdPPbBDAPT+7EbSo94+tkuILQ/C9ifu5ifCkn6aseDla1k0SsHMsuRo2bdQYVH8+Sf8wY+qFHuiPnz6TiED3rt2ktYNYcjvFkjO7t3bVSqkOOnvqJJYsWohePXoKwNnMk6l+w1tGoDevXwNP0nbhjkF5W6YAPLgMD05tEefzi86tpECaAOdkmzHhS6EIjK5k+t43RlfytwpQB8PfSoVjYmxp8SEYfaFM+dz5Cx9s9KXQA/35c+DM2fOS9GHIkEAnJ2c2lDFzcnGm+n+aOk2sN7OehuA2vC9Ab9EKvl7eonHp2qYJHp+l7DZn0Dy/nIz9mxbC08VVqu9ZKD1r8iChAzlOlEII9mdnN2LzgslwdXSUDmOMVq1ds+6DpS+FHugceQqQWBZGTskbQ4eD+n8pdIValu+/nfySYMsQ3Ib3O7bvJNbe081NnMiR/Toj/exfubLEuLYP44d+IdzezNgcQ3u2ElpCXvw+WPKMv5G/m7y9eZ0q4pyy1JCtrvnPMCz3odwv1EBXndDePXtJ22Vac1p1LrMpO3eIzpwOJx3Ntq0VwZYhsDPepyyX+nM6r+xxOP3r/qBlywiCjH8TFA9Ob0XDmkn47N9FULFsNK7tW/LGHcyMv6Og/2at6ZzJg0XdyDYZ7OPOZBzFch8KwNXzKNRAf/rsOe4/eIikhCoS7yXQLYxN0blDB7Hm27dskQqh1i1f5eMZQc6/WWhRu0YtCamxGGHD3G8k9JYTgJjZvH5wpbSeMylqgsXTR+VqguT0ue/6eVr0Q+t+RaCPF4yLFkOl+Aq4//AxOO4qQD6UY6EGOpdRln6FBgXD1lJp9smoy49Tpogycfy4r0RumxmoM3uMQE+oWElS5CH+vji+aSYenliTo0VneI7hwc7N6yAprqw4rwR/foBKPs/Py897X/c9PAdDqsVzuHFwGRLKlYRRkWKIDA3D2bPnP0iHtNADPSV5D1ydnKVwgMkNVrRvXLcOu3fskCohNXSYGbAzPsaQI9WMTNPXqlxeAJdbR/LukZW4uGcJUrfNk5R+fkF3de/idwb0Q+t/E8qlTjQ1vt6pWW3xWZTEUfIHydMLPdC5vQkdUEYFaM0jQkIkVj5rxu/CzTOCOau/WSfKW2RYuKTs+3ZoLLHu22wylIuoCEVZTMTkP/GzDA+OrcK00b2xdeF34gjm5nsL4jXKirQKg7u1wPJfx+rlCIy7M+bPjCnbXnN8lyxWGh59KJRFPY9CD/SFfy6UcCKVd4y8xJcrJ0AfNXwkWjbPOpSYEfAEOa0/2z5wt4nfvxkgF7kggJTtZ+g063eOrMKztG3o3aEperSuh/TT6/Mk4WX8m6sKned7eUlAUS9/eDmeXdiO3h2bo0nNymAPGNWq8/Omf9VX4umMZv08/eePFl2dHW/jqJbJMTVN4RGtOoFepWIl/L1tq6gXM0sKZQS4+jdj6GxSRBrk6uCArX9+lytHNFsQ57QSCMhWSpNQisbYEfeHcYOg9fbE6W1z87Q63D26Cmf/nocfRvbCya1zBOw5/jb5/lVgmzx25OV321vbYPfyH/XnTskARWesKTUpaoTRo0Z/BPrbADi/QwX5vLnzpFkmuTkjLgR6YqXKWLd6tURQ8sLPJbRYrwHsrDWIDNLizN/zcP9N6k8oGzi6BmppGzXvuH4IO1bNFtnAtDF9QIlAjmDVTSZa4V3Lpooj/dWXHXMhEqMlpz5nh5TW8bu3LP1NYuZ92jXUrWYr8OTUeqydPQEuDo6iI2Iol/8+tEKMQkdd1G5bP077SRoKsSqIqXYC3drMQoC+dPFi4dtqsbNqtbM7MuLChv+UzVavWFa0J/mNnOQMTqWEjiIw6X2u2+3i6cU9uHtmB8oUj0S56HABeUYBVlafzejQ4Q0z4OHsgvpVKwj9uJNd9EYkxX8pfdfP7wYbMt04vkVaTXs4O+Hw+t/ET6AcYNvC7+Hh7Ayjz4uiU8dOAvQPLZZeqICu7iU0aeIk6QZL50gFuQDd3AJJlROwcP4CSfPnBeiMuFRLrArjYsZo36iGhBWzBUpOtCS750kZjq55UblksK0L9e8Thn2Bz/9TBDMmDgDO5y4zS15+OWURSkeGws3RCXtWTceTbPU1itpS6cu+G4/SdotWZ2CPdvjX//0Hg7q2wLMzG/A4dS32r/kZPu7usq1NYuUqEkMn2lkD8LZW8Tf9PYUG6CrIx439StR01LM4Z9irk1nRCuVjwcp+Opd5Bbpo2YsYoV/HJnKRs7Ker/14NkBnZf7plFXwcnOTRM2JzbOQfnZDjupGTsoHJ9agTYNqonHv1bahUpOaqVVfJrJjNl56yF410mksGc+v7sW2xdMkYUZd+pGNvwPnN+Hwht/g5+kBjaWNyCto1VmIwSzpmwbg2/r8QgF0la6MGTVGKvrJyQlybmloxWodHeAJ9NLR0Vgwb55ozOlg0lIb3khR+HhGGtO5UxdUqZwg8eJRvdu8lYiLlNypvdPlmKyvThretzP+9c9PUaVcSZzd8Yc4h9SUZzfJGCGZMqoXWCLn7uSEvxf/oA8Vvvq+ZWBd68NzO/DwzDbcT90gqxjDic3rJOLfn3wu8mJq1E9unY2wAD+pPmJ0iztad2jXXmS7z559GGB/50BXHc/vvv1O3/2WILcnyG3t0NTdHSWcnKHR2EmYkdLclcuW4YveX6Bp46aoUbU6KsVXRMW4eCmxq1urDtq0bIMunbq+BHiVurDsbUj3lm/WogutIWhZlbRWtnBh5EPZzmUrHp/bhpPb5gm4Pv13EVSOKSnOcU5ZWqbsSTP8PNxR9HMjNK2VIFaeYUdDoHPCUAOPcxv1md/r+5fgYvKf2LtqOlrUSZQCcdJBFolcTlmI4iGB4iTzMUeC/fMiYKEL/30Im/a+U6Croi3uzExrrdIVgtzM1g4DvL3xIDoS9dzcYGGrJI1Y6T921CjExsRIpIDWnx1z+V4eaZHYt6VcmRiR7RLgtO6ic6lZS4oNurWsK/w2N/JcQwDl9T5j5QQbS9kenlgt3QCU4ohlQNomzJw0EJT7spi5Y9NaeHDi5RR9xu8jfWFr6DYNq4lVZ6u5Gd8MED284WuZ1Dq47ld80b4x6iXFo0r5UigXHYGwAH/xeZQ9jxzw2adF0btdQ6FN5UtGiriLQOdNLTL//vsfPgjn9J0CnSO4evVaiZGz1TMdTwXkGgzx8UZ6iSg8LxGFZh4eMNNtgcjXMKbOzlxq+walGJnbjCsyXjWLyi3FKeIi2BlebNq4iVTm16hYVixgRktoCJbXuc9sKyM6FH9NGd0b6+dMFF0NrSqtMukDNSdUDjLaYW5qjqjgAOmAm1PmlXHv9XMnChiZ+ArV+slnPz61TtpG83fz85f+PFomEGkOe76zBQaLRbgdO3emLlbEGOVLRODoX78L0CuWLSGvIV3kjauqYjysMXvWbAH7+xxyfGdA58gdPnwEWh8/SQgRwOTiJrYa9PH2wpPoSDwpEYkrUeGIdXERrq5aGwKc4KbUlroVVuDTMvKCMqrCPud8rRp/J71hU1E6r96e3gjy9cKJLbNk2X8dQGf1XoL19Pa5CPL1weefFpNkjK+7O2JLRqJuYhwa16wsFpag47lYmlsKdSBXzym2T6vOyUKnlFX9rFdtVjtB3sfIDH8Tjxd2/ynfR6tNkNP6c0IZFTWRlbBH6/o4v2u+aOpJaeJLF5fXuRLgOr+I14ThXY7lmve8KOOdAJ0gT7twEeXKlJWNbFXHkyBv5+mBu8UjcT86Eo+jIzHK1weWthqxMirQeeG4x2bl2LIYP7QPls36DhsXTseSGd9iQI92YHU+J4ETVwgbW6k1bdKwMbp37Y4yJUuLpmPFjHHZOHI5VxxlBXI+TqCnbpktQCcQCWb2YOfvZgU+H+N90fDYasS6sj3Fo9Q1+tR8dp9PKpSy4kf4uLkJgHmuEwd3EQrDJBF1OZwM+1b/LLWhJcKCwRuLoof1ai2ZUVp9+gRceSg0I70xNrVArLMz2nu4w9oA7GqPnH379otlf1uRkoL8nrcO9PT050h/9kwafdLhUcFraqtBfTc33CgeIbz8UXQktocGgxbGVq36J3c3NkNkcKBsIf744h7g3nFlW/Kbh6VjFu6dwImdy1GpXGnRtNAqMR5fPDxSGozWrllbPmPEG468kEszTu7p4iJWlNaXK461uRWszK0kcWVc1ESsbM82DfSWODuAGz7HrOqEQV3kXKR+1c4BK38bh+fnlLg8HVKCnZnPq/uW4MqeRWL1+TyTRKp/woSVCvRiphaIc3bG/rBAtPVwh7mtnd7AmBYrhrhysbh+4+Z7Cfa3CnTV+aR+hZXntHS05ua2GpR3dsaZyDCx4jeLR+BpiUgM9PEWKqNOBnLSimVLKRva3jsObknONmzcvZkNhZ5f2S8xY7aIS921QrpncTtzfg8lqOwKwJpSO1s71E6IFV15bmW6hiDLzX0CiTtPHFr/K8YP7IxmtatIZVKZqDCUjQoTC9quUQ0s/HGkAJKUhcKt3Hw2X6N2FqheMUbAbmVmiWA/H2lnQR6vfhYtPHUyBHRmCTLSnIspC4W6FDOzQBUXFxwOC8Th8EDUcXMVsKvjzyqkbl274dnz5xJ6LEiL+6Y/660CnaZg06YtwhEl68m0vsYO/g6O2B0WjPQSkWLR70RH4lrxCFR2cYGlrdLDhUt9eFAATiWvku5aTLww27dm3hRMGtkPs6eOxVnu6HzrsLSwoKWf+vVgsepCEWxsUbNaDXFK3V3cEOLnI/SCSZjcgis/r6NVpRVV20wwu3l5zyK9ElEc00yTPjmDntb6wLpfEeznradFDFXy8/m9uen3SKBf3rMQdEYJ9OquLmLRU8ODsD0kACWdnMQ/kpCvja0klBgl4783Dc6C/Py3BnRW81+/flP28TQ3NtZHWAj0X7X+El2hJeeNIcWD4aHQOjgKbaFFpoO54OcJytbkV/ZJU8/61SvD3NhMKvrNjE3h5+mJrwZ2xf3TW4AbB3Hp0EYUDwsRZ5VcPb58HBITqsDeVgMXBwdsmv+tLOP5AXBe30MLTz5MYPFWUCsJ+8j8OXW4OOOMplBX3q5RdfETaPVz+p38LWm7F8iGvEXNLNDAzU2s+YGwQJwMD8KsAF9Zde24iYBOWBfkH4ATqafeK7C/FaBzrxz+Y5KHvczVpZDOZzcvT5CP39aBXKUty4MD5XUMN9LZqloxVtrBUZz07Np+tG9WH//8f59IuIyfx60GGVlg78EOjWvg3jFla5MvOrWQpZ2vkcgOu8vaaiTU9vukt6RJz04X85rPkZqw3d3Y/h0kCcTok5mJGYb1bC1JsZxCqHScKfuNCgpAUXMrtPJwx/HwIBDoAvaIIPT39oAFQ7e6GDvbTbdq0RLp6c/eGwrzVoBOkHNfeob71PQ+HR16+GlRYWLBVWtOwN8vHoFvuRzT89ewzbMZvhvzpfBwXDuAnavnyFK75OfRYKUQeThBzpgx1YncPZmOGq5uF601EyRcFdQoB8N5RkWNMWvSwLciBcjJqr7u87TKjKDQkhsXM5Ux5nj8OPYLfSQmq++g00xVpL+XJ4wsrdHVywMnI4KEvtApPRyu3E9ydYG5LijA1ZGS6dmz5743Vv2NA51fcOv2XcTHxsHCxESWP0ZRPOwd8FdokCSFVJDfKh6Ba1HhOBcRjK98vQToLAigVppaatw4hKeX92HP+nk4uO434NJWtK5fVax46cgQDOzaHDHFwyXKQcfs3M4/cGLzTFH7ff5pUaVczMpGkizsNHt9/9ICoxBZAeltPEAUaFcAACAASURBVK6GE8nNk+LK6BqdKpN73g9DJQtLy5/Zb2EEZufSqdJG28zKBoN9PEF+TpDzti8sECfCg7AyyB/+Dg5CJVUKEx4SinPn0t4LsL9RoKtRlonjJ4qORTKXEmWxw3g/35d4OUFOwB8LD5KBHu+rWHRyc8bFj+9YBlzdjwfnd0tT0PQzG3Fq6xyJNFC2unv5NOD2bhzZMEMeY2LktwlfSuSDbeMmDOos5XNrZ49H2q4F0ieRnFmNTmQGgvfpMZ4HnVPuL1omMlTi9Qw7shPXgqnDxbIbdgBQz43vod6FtM7Kxhbf+Hm/BHQV8KcjgvCVr7cEDwwpDBNx/FfY9etvFOgcgGPHTuh3oiBPpmalkosLrhYPl6SQoTU/GRGCvWGBOBURBBXovFhab2+k7loum09Rcnrv1GZJrhDcnDx1E+OV5MeRlSI7nTSkKz7556fo3VappKHqT9oon1eiH/ePvdnOtiqICuQoisbsVY3q99Cyk68nL/9RklWkL2ra/8exfUQnk9GyM+oz85uBsOIWjbZ2+D3AVyy4CnD1eCg8EAfDAlHV1UX4Oq8laShpzPp1Gwq9VX9jQFdViT279QCdFw4MHUs7jT0WBwVIKFEFOXn5+chQATmXSi6dP/r7yOttrW3g5eqG5HVzgesHJE5O+SlLyzbOmyRhtT7tGum5NrkqrZq3m6uo9Bhmy3hxVWAU/iN3mluFW4e5BWTuwM5zosZ8xW9jlciWjUb8F/o6f/0x6ZUoE40A4/xGxmbwsrfH0kB/cUZVgBseeV3mBvjBhddRp4dhK7tqSVXx4MHDQr2RwBsDOqf4tq3bFYWhTnvC7GdbDw88NIiyEORXosLEwyfIObD0+hcE+sHdzgEaW42EzpbOnKzbnWK3VO8wXU5uSSdz1BftXuqcRas2sk9btG5QTeLJ7yXQdTWnLKpm3amyc3XuwE6Kwuqhri3qSuaVu2/QYs+fOgzpZ17svMFxocGggrGYsTnCHR2xKUSLIwYc3RDojMKQr3f0VLKmNF4cf0oEZs1UhF8FGfsuyM96I0B/+vQZnj5NR5OGjaQ8iwNCB9TXwQF7wkL02U/y8htRETgaHiTWXB3UI+GB2BqiRZijEkdnjHzMgO4K0M/twu3DKyUzeGrbHGnAP65/R71Fp0VjSO1SykJZwgsqXv3Wrf/BZbjHjXF1hRvc9/SW9KDJHdg52dnSg/SFUScvV1fxY+h8qufCCcHxYZa4iIm5RMFIHQ/pDI56PQyP9KH+CtYi2MERNrrYOrs0xMaUk6ADdyYpSIAW1Ge9EaDTmpO3kb/xRueF4cQxfj6vRFlO63i54WCSC9J6JDEzqlMp1kiIl+qcx2m7pEyMF4na7iqxpTC818sVQ+SqdDRJY3KTHVQvfGE58ryYB3jIzXHPJ0uBNfcQ5QRnMUdufie1MN8N7wFLM0uJr9dOKC8UzjCuTtkBuyFQ8FXM3BKN3d1wNFwZe8PrkfE+fajRvl56x5R+Eq36zN9nFVquXuBAl10TnjxFw3r1JdLCUBSzn8WdnETLwqwnuTmt+eWoMH0IK+NgMivX28tDnFc6Pe7cZ4c8/eo+3TYsy0V9yHg5BVrUd+QGAO/Da24fWoarB1borHmy9IXJizXnWDCaUqdKrICcYP9hVK+X6B3HgdadLTS4H6mJlQ36enm+FEPPeE3Uv6mF2RMWiLLOijyAKzateuUKFXH37v1CydULHOic0usMrDkHgaKtMb605grICXSqFI+FB79EWdSB5JFc8HetLxzt7GCvsYepsSkG9GgP3DyI21I6tkys9rkdf0jtJC34+wDinH4jV6E9K39E9zaNcfvU37h/kpuIKds+Zvde8m3Kd+lcsuB6QJfmEpGiBp3UhXIHPm/4GdTfzPt+KKwtrWFtq8EkP+9cAZ3Xh1bdMNxIrk7t+oL5fxZKq16gQGekhRytZfMWL/qZa+wQ7OiIIxGh4oQS5HRAz+miLIbgNrzPcFZyaADKODnJisCd3gJ8fHB8x1I8PbNJLr5KUUT595qpdEMAvMv7BN8PI3vKjh5HN82RErzsfg85NkOEBPjuZdPQpWUd2XmOeQSjIsbwcnWRDcPYNTdjHJ2lfv06NYGxsRnc7O2xMNAvy4iL4bXhfaobd4Uqoi+u2GLQjIxRu0ZN6SBQ2OpMCxTonMq7k/fA3dkFdtZKlQ9L4Pp5e+FpiSihK2r281BYkGTdMg6g4d+pEUHo6+0hqWfyfAqWOrdsiGdp21+5aNmB4X15jtyctGNgl+ZSjLH4p5ESKsz4+9UqI4YRKcFdN2ei7IjHxBmlDSyTY/y8Rd0kKb5gDoHc3DA5pnJ1ynyNTM2FWlKtqKb8Da9DVvdp1Uf6KBlsXh/6Y7TsGzZsLHRWvcCArmZB+/frr4+0aOzs4W3vgN1hISLcUq35mUwc0MwGk9GYtWrqWQaSKkYbzJ4yUvYOygiAzP6mtafFUy507hy5zD7nbTxGoNPKjujTFp/9pyhqV4mVek5c2Cwlb8oud3+Jk019CltfVClfWvY4ZREHtT7c25TVQit+Gyc8XaUrsvodWSn0hZadFIlZ5EAfbxhZWqGWq4uAnIGAzK5FZo8xDMnJEcV9kHRW3ayYEdq3bQeqVQtTtrTAgM4PunzlGqIjIvV1hqzk76JTJ9KS83Y1KhwHc2HNObCMvDBJ0c3TXboCcHlkuMzb3R2bF3wHAiCrGDkvJmPJ5PBrZo1H2u6FAva3AdjX+Q5Slz+mDJNKJIrPKpUtga8GdAR7NX4zpKvsCF2jUjkpo6N4jdabN1YtUYs+e/JgCRlyUtDy04rzyLGg+GvhtJFi5Z+nbcLc74aI5TezsUUvL49MU/+ZAdzwMQYNBnl7ii6JVp11Btze8uixE4XKqhcY0HlWfy5YKG0ruHwxC8oTXxMcKLRFteancmnN1cGkVd8cokWoo6NSAGBvLyEz6l+W/TpWWrrRahnyT2ZDacVnTRokvVNYfjd/+ng8v7A9TxnG1wFsft9LDTmLlVVxGsFc5HMj6ePCthif/aeINB/ifRajsAtA5+a1pe85Jz2LPFQND//mCsHoCjsRcO8l1o2ytI6cvmvLujAxNpNs9XR/n3wBnXH1NcH+8LN3kKJqhhpZbzBxwkQF6E/SC0VcvUCALk7oc6Btq9YSUqTlZWVQvIsLLkeFS7FzXq25CnQeT4UH4Xt/H0k6UUIgAiRzS+GDX3RoLOVj7InCPoa8gOd2zJe2c7T+LEamnn3ZzO+Bq3tfijrkF4z5fZ80FlKpVDZRIvJ0NuwP9feDj7ubtIsL8PYS/Qp7LzaoWgFfdm6GJdNHy4rFTbd43mrkSRzU0xsE5NsXfS8F0qxXZZhx84Jvhfdf2LVA+jiamltK8ie7jKjhtch4n6suE3x13Vz1GhjG1CvGVdCFGgtHJVKBAJ09+k6dOoMgf60sXQQ6ndARupAiQc5IS265eWaDKY6pl6cknrhacLMtSnhZUc8CZDpVrRtUle5VbNRDrsp2EkZFjdCgRhXcPbsTj9N252Ir9JxL2HIGuhIOvHlwqW4FUXwDWmtWA1E6S9BzYpJi0OJSaEYLzEokHsmhLyYvxLG/fpfeKyyOOL9rgWyEy+foYJKOsHCC1IQ1oVzZ+Jl8bMuCydISgxbWpJipRGBG9m4j7+Fqt3LGOBkfc2tbKZ9jNjQv/NzwGpG+jPd7oWxk3oM7/23b9nehoS8FAnSeDesIOZM5sHZ2it6cVfyPS0QKN79ePFyKblU9i+FA5eY+LwSXyR6eHkJhVOeHk4pVNYwX84Ky2p4RBz7Ogo3E+BgpqXt+7SDYdFOyi3kQSOUM6lcnBr/jzvH10vuQLemUuL/SgmLbwu8k5BcZHID+nZsJp961bJpIh1m/ykQPgUgKQr09rmwDLm8FLm5Rbhc2y5EWnL+NVpwT5crexRJeZDa0WnxZWe04FpzspD81KsbgxoGleHBc+Q72daGRYOZ5gLenlM3l5jpk9hrSyw3BWgQ6OAp9EUNnZIxxY8Z9OEB/wvYV6c/QvEkzPW2hFLeWm6sA/I7OmlOdmF+Qc3D5XsbW6ZxSwkulHUViVNFxYDPeSFtKR4bj/L510imAOvaH1MkcWf3GeTp7LCpdbFMkhU+1pao+JEAX/TRS+PUn//oMFmZKhzJ26qoaXxYt6iaC7S8oSuPuFr+O74853w3BHz8MlZVgxsQvJbU/f+pwsfoUtlGrwjQ+KR3By0nPckEnjpGxGaJDg6RzLicRrT3VnRGBWlhaWIkScV5A7uPnmQGd9IXSgUYG9IWZ0mqJSXjw8BHY4qSgNCv5/ZzXtuikLdwikc0/uac8HVBaie/8/UTXQtpCRzS7LGhmg5fVY1xeydlXB/mjibubXCgCnt+pgp6rCh3Qrwb3kr4v3G1Cvd05tk4PuvxY6xzfw/bOsstEsoCclv3e0ZVCNWh5+X6CnfyaDrUa87axsJYyQP5ugpNWmOFCsbq6lnKMwtDn+PcnnyHIz0foDycBQ5Hk37Te6oTnGDBpRJDvX/uLrBKkS6RKv3zdD2yPYWWrQRlnJ+wODchWyJXVtTB8nAboWz/FjyIG2M7Ox8MTBw8eLhRW/bWBzrNYvGipcHNGW0hbGDtP1sXOCXRV02I4MK97n1JeygSWBfnjC28PVHBxgY+urZ0sncamGN63izQ3UkFOJeDdExvfLNDZc+X0Njy6kCJHUgt27WJ4kJEP8msV7Ec3/o5OTWtLqZ/SI9FSscQZViiC9sXNXnIJ3ASXgqz5U4bJBOHzPG8e6XhyolDrIv3Xz2zQ05xbB5ejalwZeQ8Lnjt7uss40iq/zjUhfdloQF/4O6xMzTDjtxnvP9D1SaK+/fW0hZZVibZE4G60ws/zGlLM7YDz4hDwzNCx1GuEj6ckLmhRyM9bN64jW5o8ZjN8WnVWJ53cnCug0yHM7bYrL1l5ymtPbsKjC3twN3Ujnp5ahzmTh+B//udfKB4aKB2zGCFifPvRSSUMunfVzxjasxViosNB7bj4GsZmAkb6G/RBSEVoSPg8H6PsliBe9NMoWRWoBeL7GHJk/SwnFicZd8VQM6Lk/kwk0YnX2Cht/mZmUVGU22ugvo4rLW+sQFJ78TB51KlDRwH643e87fprWfR02cL8ERIrJ+i3MKcct6vnixYW16PCJeP2OvxcHczsjqQzv2h9oNHYS7NSXvDYUtG4mboN6Zf26oF+/8x2sW4vgTODToYgp55dmn4ey1sHLXLxO8c3iKSYNOmuJG2WoUuLOvjkk89EacmW0QwBEoD8LlIaRlGoR+FueUwMsYloQvlSoNPKailaa6bYCXrqfgh0bpDLzQDiSkahRqUY9O/cFMt+GSOb5urj6bpz4/fREWVPddIf6lNinJ2RUgC0Rb0ujL5wdVWBTpFXmZKlcO36DRBo+eXXBfG+1wI6p+qJEycR4Osv1IWWlM37f9b6S0s5hhQvvKYTqg5iTkda9mVBfkKb2GyHIS5PF1ekrP8DuH5Qx9GTpVonp8gL5QIM7XEDWob18tTNi9u6HFkFbtTFiIsaOydl6dCkJkyMzKQvOsEubeUMJplY4FPrlc5ezGQeXYVzO+dLqj5l5U/YNH8S1s2eIKFDNhC9um+xTFp+B5Nk5N+SAT36auMiZlyZISaloEUnbWHFP8GZ09jm9nny9F+1vnCwU3Yp4TVwdXTCjr93vXP68tpAX7VytYBK+LnGDl72DtgRFizaFvLzkxFZS3FzO4C5eZ2qdiznrKgdeUGZKPp54nB9CZ7C1ZMFgGoUJDPLTivLCAWtKjf2YgLHMPOa2Xuye0xoSupayUgy40ldytj+HQXItORMzWf2fn4ntTrsvUKrz9+kaM3X6UsE1Q5g/M2ZfQYfo/CLcXpuCkBrzmovhgL/CtFKdVduxjc3r6H2Rc1i8zvkGpiYYtrUH99/oI//ery0fubSyoZDcc4uuBQVjnvRkZDYeXjOKsXcDGJOryFfp3PaxaCekRGMlg1qIv3yPhjy9Lupisw3K2DwcfLZP34YJi3vqB8hILN7fU7PEey0ttzqkGPFrVmSYktLk1FaZkZi+B1M+tD605qTbhDAFHspiaSMR5bCrci0eajh76GlZ8sLtq4m1ye9/IJFFgVozXl9yNFZlFHX1VWiYDxPlaczOvcuRV75tuj80VSodWjbTu+IMhvaWcfP7xSPxEVdBVFOIC2o5wl0OlekUMyekssG+/nidPIqpVWGziHNDU8nrZC9fUIDJfPKrVJoUQ0BlPf7K4ReTB7eXSwrEzr0JRgD79y8joT9yNEZpbmyd5GAmM4krXhmN9IVrgZsxET6ktnv4aQ5v3M+SkeESAiS3LyEkxN2hAZkWQT9OteDXb4o8lJ5uqWpqfhwd++zS8C74+n5Bjp/9N17D1AproKSEdXpW77285X4Ofl5ZvWgrzOIOb1XLeqt6OIsFoVLJ0NtM38YY0BfknOdOGKB8dTRvWW7w5qVygmQmHDJDFC5fYw8nOBjhT5Dina6dhQMB4pswVYDrZentJZOKFdKQoSkHK/cEuNRq3J5EX+xXQXpDS2/4e/gasBz4CYDnFQOGqVIfbKft0SqchrP/DxPnj5F16qEO5hwb6rw4FCkXbj0TrdzzDfQSbpSU08hSBugxNB1lf5/BGr1akXGVllVnp8By+97aFHYt5GWiwPNbrtN6lRF+pUM9CUX8XRadVrLyuVKCthZEKHw9fyX7VEXrupTOjWrLWCnVeek5I2+jsbKRr9ZADk1KZjhjUkkVg/97/98Ak9XFyQvnyac3RDkvE+x1/o5EyRjymgNQ7/sf06KoRqF/I5zVu9jUODPQD/ZwEH6+DAo4OqG3btT3ilPfy2gs9e5GvbiSbnZ2WNLSBCelIiSvYc4oG86rJhxwFVxUg12lLK1k42pPF1dsXfj/BfRl7RkvKAvmS/5KmgYrdjy52Q5T1Y4MSXPyh5uyKW+Jq9H8nXG0kk7vh3WHRFBWomZMw4uoT9dhy3Gy3mjnIHNU9WMKS0/i8UbVKuAXcunZUqpOJlIf7g3EV/PSW+vscM0f58C5+aG14DGbX2wP4JE96L0faFGffHipe8v0BctXCxFFrRCFFmFOzrhmK42NO0thRUNB1m9T67OjlOMAHHjKQJ0BLOkt47opQCMwHAb8+yiLyqA6ShOHtZdHEg2PGWGsyCcU9IYOorcWOvPacNFelsnMU74dHigv0yAyCCt9FJkTJ2bcrEdNHUv3G+UFIjOa8aWHkJZzm7EkB4t5dzps/D6RDsp6X7We6pjVdBHtZa0rK7Wl6sUu3lNnTL1/QX6tKnT9IpFLosVXVxkpwpmRJkNfdvW3PCiMaLACAx/F6tviocGi4qR28HkNUsqvDp1Dbq0qCsUhp16966eLtRAnQyvc2ToT426kGuzKy4dyLRdvC2Qvwle0iZOME4OOqKU52b2vc/PbZTGoVxtGWnhkUBny5HdoRRgFVzs3HDMeZ+rOPXp1Q0iL9zGZ9DAQQJ0ZtMLIgGU18/IF3VRU/8jh4+UvYg4a0kT2ET+XrSiPT8aHvxOgU6uuDTIH5729tDYsse6OaaNHyw91pV4uqpmXJWjVafFpPW8cWAZ6iXG45//9x+UigyR6AhDhpmBLb+PEdCkNAS/euPfTGLxuew+l5EXWvgz2+eiVESI0B2CnDfVqvf08hBR3Jvi6Kosgzvb0cjwu1lxxI0D+O9dhRhfC+g9u/eEqZGxcjK2GvTn/qAloiR+fvAtxc8zWhT1by6hbJdR2slJrBmjL2WKR+D68S3imObVqpNXM2lDS1uhTHH86/8+lX08j2+aKdY4OwC+jefU38e4ev1qFYTPqyBXjxJy1dhhpK+XRF3eFNgZeaHGXQW6hbEJalarDhrId9UG47WA3rpFK33/FsbQh/l441mJKFyMDHun1pxgPxsRLM3r2e+R8l3hiiZmmPLVINmmUW/VydVzqVG/eWiZJJKObJwhsW/KZUuEBYHpeVb25GRx3yTgSX2u7VuCVvWTJELD8yXAHWxs4GhjI/f5N8eCNKaft6ck2JjNLGiKycgX22AQ6FxJlNK6eNy6dQfp70jzki+gq7OyXu264GzlABLoY319pLk/mxMV9OCpljqnI/nhmYggacZTSmfNVYvGMF5kcBAuHFyP51cP6Ln6/VNbc6QvepAyw3l2A/at+UUKk//z78/Bek5u0EuwZ9Sv6N+XIcZdUI9TIsDvZfMidgGg460HuZUVPH0C4e7pCwcrqxdg1yg1Ax083CXMyMqtgrxeVJOyOIYhXgKd4q5S0SVw8eLldxZLzxfQmSy6feceqlRO0CeLyNG/8fMVi37yHfBzLsOU6rKIgOltV3tFkqCCXD0SCP27tpFtGh9fYHGEIt9lgcQt1njmEpC0oNsX/yAFENyG3Eljj6++VPQrlA/k9nPy+zpydjqm1w8sxZh+HWRnC/oh6nnaW1jA0ycA5doOQkybgfD0DYS9pbLdOV8jOQZbO9lLlB23SDdyMiK5fZ4W/Tt/KkmVXAbDiyGBQTh56sw7i7zkD+jPgZs3b6NibJxs2sRZS53LVH9FtUivviAtRHYDTOeHERaKutg7MMrRSXrAUK6rXnTDIxMn1HSvnjcFuHtcF26kqnGH0nQ/i1R6ZoAk2JNX/Cg6c7afYPaRGVTZZub8JnFgM3vf6zxGgPN7acn/nDYC5UtESJEFk0wspXMiuKys4BtaAuXaDUGFHl+jQs/xKN9uCLwDI14CO6+bqa0i110XrC2wbCknzXStj1hzTiiNpRUCfP1w/Hjq+wV0zg7uGcqe2NydjANG3sf9Qh9HR+JwLhsUZQfg3DzHyAoHdXaAr2wXI6FEHTcVcPOiW1vBwcoSDroWeWqrjGB/P+zf9KeU2j2SHuS5TyIZApWgO/bXTCTFlUaxIkaiTHR3csLgbi2lAojJJYYCDd+T1/tM7VNLTopCsRcr+NnEiOVzTCSpE5mUhdtQBsdWR8Xek1Cx10TEdRkttwo9xqN8h2HwDgyHg4Fl53sp8gpxcBS6dyYi+LUtO/MY3J+UO2PQAWZZnS+bGh09/p4BHcCVq9dFVE/+JbNWY4e5gVrZOpFW9k1adEZUyMMpM23h4SaDSerECccL56jRwN7SEo62tvAOikRktWbwiygjgOfzbJVBCW+wvy9WzZsqzik16yx/e1GBlH3GVAUrHVCCmSHAAZ2biTpQrfdkX5bRfdtLuwrRitMSH1slSkT1/VkdGT1hSFN53wac/Xsefv6qn7SbY7ZUsp26XbVVoNOau/uFQFu2CiISGwttoUV/Afav9WA3pDF8P40ESxF/0foKBWQ8PDfGJrPXqDIA7jxoKAM4dOjd1Y/mi7pQcnn58lVxMFSgs7HQgqAA3C4e/sZAzsGno0P9zFAfT/g5OIgTzME0BDgvuH9kWZRq0AXx3cahUp9JcrH9wkrpl26CnRaRRQi9O7TAke1LpFsA6czTtL9x90j2MWsCnFxcDTmyQIPbPbJKn2l3ZeWwkvI2X093dGxaC0t/Hi1duNg9i9aZHJufwUQQ4/FM9PAxlZoc2zRTakJZV8oklZkxmzFZCPXSg9uwvtTeAc72jrJ62VuYw83dC6UadUeFnhNyBLvax56fyx4tp0gH8wl2OreLA/0kM80oDwswPFxcceDAoffMoj8Hrl67gZjSZWBtrugoKLSfFaDFzTcEdC6HtBQ/+ftI5TqjPPxOueAaO9hbWQo/peUu1aib8FK5wF3HIK7LKOGqsR2Hw0sbJtae7+PFZXmaSTETeDg7o03jOvhj+nic3L0S90+xsSfBuFGAp4KaVpY3ApyV/PWrVpByN18Pd+moVS46AnGlouDt6iqbAfN7yJ9p5bmPENtacG9UbmDAWlLWcG6c9w2W/jxG9O/UvnRvVU9ax/l5ekg7DL6XkmN1xZJzNgS4OtHpZOoiHXwNrba7h684o69a9qHC2RUao4wjx4NjShrKODhpYX7AzuvEFhpsRa1SF293Dxw+fPT9A/qNm7cQVz5Wz9EZSpoe4I/rUWEFqlgkTTkdEYwVQf6o5+aqJH9UgPPCWlmJBfMNjTYA+HjEdSHAFX6qHslTY9oMeCXcRlDQSf3Pv/6Nz//zmdRjJsTGoFPzuhJJmfXtIKydPUE2B2MMnWIpNgqitIA7NVN0pbG2kXS7KsRSQ3yGoORj0ibP2EzeRwEXJwEf5/tk12tdEybe53MELqW8luZWMGV1kDWdzpcdbYKJE583RjpI43g9CFz6Jz6RMSjbboisbnG6iR/f42vEdhoBv/BSoPUn3VN/K60wqcyXulh7XmkMjdJvWl/l+3Uc3d/bR7biJNLzmr4viNfni7owvMjgf6X4itLSgJaGQnv2crkaVTDJIjWawi1E+nt7ws2eNEUJV/GCkH/TYnn4BKJ4rdao0P0rseKZAVwFOo8Vek1A6SY94erspk+kiBNnq0GdmrUQU6oMjD4vik/+3z/xv//f/+Jf/+8TfPrJpzAuagR7GxspVGZjT3Vy0D8hwLirB/vLqCtNjtaXgDS3hLWFtUwQgpnVPzyyNbY5W1YUM4WliTk8HRxQsUQE+jSpieplouGg69/C7+Z38rc0cHPDNK0f1oYE4fcAf5Rxdlbi2La2cHZxR0Cl+ohu0gsEenzXsWIEOGYcr6CyCWIsMiaWOFkm+Ga+wW5m3Fx9jCvBVGrSdYXqDC8G+mtxIvXU+2XRCfT79x+hRtVqBtX/Goz388GlyNcTc9GJZbaOXJxbu5R2ZrhQsVRicRhJsbSEs4MTQuJrIrbzSCW6IJbqZQtuCHC5z4vcbZy8PiyxMRy5kZitEm5kgcDGDRuQnp6OtavXYNzoMejUvgMa1K2HKpUqo2RUNPy8GDJzEKtMxSYtKa1mVy9P/Brgj+G+Pqjr5oYAB0exqiY6epUR9LTSXs7OaFSpHKID/eFgZQN7cyvYW1hJ/D/U2ws1YkpiQJsGmP/NAKRumIEHh5bjwRJAYAAAIABJREFUm16t4e/mKhOC4VxLWw0aurlha6hSo/u8RJTUAqBkcaSEhcDPgbv6aYTS+ZZOQGCVxgiv0x7lOw5XrHuX0XIkxYus2lTGVI1OcawJ9AAHBzD0mBchGOPoDPWSAvHcObaRYeE4e+78+wV0CnPY6qJpoyYvldGN9PVB2msCnU4QWzBQeUggqSVZHHhaHC7FviHRKN2sjwCWwH0F0BkoS3zXMajA13UehVIt+iKsVlsEVWsBn+KxYg35uTbmFqgYF4+TqUqsV66I7r/nz5/j4YMHuHnzJlJPnEC1xERYmJoJELjVO0pGSUaYQONmZCcjQjE/MACdPD1Fl61Y/BerkfBoWw261E1EyoLJOLBkCrbM/Aobfh6NlEXfI23HH7h/eLlEc3BzF64nL0QLFjYbmcLG2hacQKGOTpgdoJXtcp6WiARLF2/LTRHVUYrR3ctLVhqen1dYKQRVbY6Ayg0QXK05yrT6Ugf2MWLlK/aeiJINu8DVxV1kA2JUdDt9D8ljtwAaqbG+LyQADEGXLxsjfh0pREFQkbx+Rr6oi6peZHMa02JGAhbGYgf5eONcPoFOT52ZTToxbJPGRAaBrg44w4Uuzi4Ir9IQ8d3H6WhK9hacS3SF7uPEgpVo2gsh1VsioHJDudi0brzw/uWqwc3TVyaReTEjBGsD8OOUH3D1yiVDrL90v0rFSihmYorSTs64GBku4GbbPbUH/P3oSMkQp5eIwqmIMPyk9Ueiq+JfEPSkHKRL7JEY6e+LKYO74OzW2RJxwZXtssEBQ5ZsibFr/mSUCw0STm9hq5HEXDsPD5yMDJPJxd6W/F52Q6P0gvLo1IgQXIwKxS9aP3EuSbkYdgxMaorAKk1kDAITGiO6UXehLvHdFCpTsfc3iK7bAU72DnDUUSJe10557ObFBN5QA60L+zAmVa6Ce/cf4uk72of0tYA+oP+XIqrn8kQHiI2LTuUx4cAlkQBnf+6unu4CbDpCKsCFWtChColGmZZ9FSuu45hZWXJeON7KtR+K4g27IbhqM2grNVAucJXGsoQT6CrYefSOiIGLkwusTIxFvxMXE4NJE8Zjb0oybt+8gcePHoLV4CnJu+Hh7AojS2spBGeCjG09WCPLG++rf9PKcpdsUgmCf3lwIOq7ucmSzr4qPEcbK2vRp3g5OCKxbDQ61EnEl83rYHCr+viicU1oXV1hbmohYqxIJ8WKP4lWPpcAZ6eF4zrJBcOue8MCJBhAzc/KIH8Jwdra2MhklnNObKKcf0IjBFRqgPDa7VGuwzAxCOTvzKJqo2P12hjluua+bR19KzqjlAOr15GFFw3q1ZcmRu+lTHfihG+Eo9M68aQotie/5smqjklWRzUmvikkQAZFjYnT41dBLkIkeweEVayjcMkejKZkYcV19IQ0pWybgYis1xGBiU0UgCc0egncKsj1x8QmQmW0FerCMyhKeLhFsWIyiQP9/NC8cWNMmfwt/t66BRPGjZMaWXMbW3zlqxSCE3DsFpwaEYwTuhvvn4wIkQLxC5FhuBEVLlaeMubFQQHSJcuYWxbqeCydUHbW5Q4UnxmZ4v+KmuA/xUxha20rr6nk4oJzOivOCaWuHurufhkTdAwLJocGooyTM6xsbOHi6oGAivURmEir/mKy0wAEV22O0q36yxgzm8pkE7k6ryt9geE+XrnelpHXnsaLnXX1QDc2Qfeu3WVVfK8KL8iP+G/WzFlK1IVhM7ZRcHTCztAA6e2RFcD5OEFOqjLO11ssDmmKPiauW9aViEoASjXunq0V1/PvLqNRumV/hNduh4CERtBWbiBHw4ua0/2gpKYKnYmtCQ9tmGJxTU1FikypKZMe3J+HHJuOFjuSkZ4QbIwOqdb0hWWldVUsLAFAI8ASQ/Jn7gQy2tcHIY50XJVSRE5wjgMpUUdPD1RxdQG7jnFsuYVlakSYrA70BZ6UiMTd4hFCVTIrQOcYs8dKTVb6EOjObtDG1wHPMeM4CJ1LaIToxj3EokckNBCgiy9hZ48ZWl+x0tldU/U5fi8nHavNCHShaMYm+GrcV4KZR+9ThZEK9NWr1oiOQSrXNfag9pvxboJYPfHMjkwoDPT2lG0VeRFVC86jOJzWVggoEQcmeAyzeobWXPh3t3GI7TQSJZv1QWiN1gb8OwcLbmDRMl50/h2U1EwBfPnqCuDZpdfaCnZWbPhpIxybgGTHAwIuNy2xefEJSE4Igp1OKwFPK70lNAjN3N1hbKNsVUnq8zg6QsDVx8tDJhW/j4UtU7V+mOjni4WBATgbGSafldGac8w5sXgd2nq4w8LGFm7OrgiKr63j6S8suv78dcYhon4XaEvECdD5nWGOjtgSos11DxhOZr6e4jqJunC1NzHFrJmzFaA/fvr+OKMq0FNS9sLLzV0Bu2TllNnPOGpmAOdjXNbIHVm4zIEwBDkjKs6OzohMaiKWJV7ivC9TFYV/j0O59sMQ3bi7LLtivSs3fMVS6S9iDsDO6nVBVXWAp4UPjJDwm0xEg9YeBDrPKTOwZTYGBDuBzl20CXTuCJIaGYr6bu4glZkfqBWrfTEyVIDKFTJSBxrSiJJOzujm5Sk5i/3hoVn2tiTQeR04UUizvJxcEBpfK2ugyxg1kVXQzVsrBod+RH03Vzk/fl5m55PxMU4uGjteX9JQZp65IcG73ns0X84ogc43UthVMqq4COslXqqxw9gcEgyMsU7w81aWNT0ft5PkD4sESjfrBYa6lAyeCnIl/k0rXrbtIETW74ygxKY6elLwAM8IfNXCa+NrwyMwUrHothoJ7ylAz119LCcDJ8WZiDCRS7Tz9BDgMpvJZZ5A/sHfT8oRuUoQRMwMJ7m6oIiNBjXc3MAoC8OZnCS3ioeLpc1qkjHMx9Agt1f0c3JGZFxNBCQ1y9ogcEwr1oWLi7tEXbjafu3rlaf2GHREf9d1SxOxn5U1/H1836lEV8Xr48dP8Y8nT9LztLSwyujJ03TUr1NPnzSiBejm6ZHtwKgxVr5WEik6HkdPPzOqooa+GPdlsoMgZLQgMCcHM59WPCPIX/q7agtEVm6AQGdXoQNT/f0kQaNGPTJat8z+5s7Mh8NDsCo4CFO0fuji6Skt4kgTmOUkN2cugu+ldWROgW0qitpo0M7TE/ejlQ5oLD5X+XBm38PHVKCb2tgi0MUNpSrUgTaDM2p4fpzQfjFVJbyosdXA194Bq4O0OVJRw+9naJGTQ00WWZuZo2yp0rh+49Y7bR2db4uuxtK/NNgpWom8KJ2geBEMB0C9zxk/3Z+thZUqF4YPXVzcENN6ICoaqOzIx8WCtx6A0JqtEZCgi3+/C4DrJo1/YlOUq1wf5d09YGJtg0m69nuMW2fmEKrnbHik9eXYXIgMEUnzU10zVlZn0YKy/I+vPx8RLNSD8gdOAsofmrq7g5RGdXCzsuTq93EnP1IXU2sbhFPJWLkBtGp4MRNDwLyCd1R5yRgzUccmUHRos7qW6veoR9IbXt+Onu76rRjZ6qJh/QZiFN9VaPG1LLrK03+f8bsi7NIokRNGBzYF03nJHOhcutcG+8Pfgc2FlFAiHb2wSnVfcTyZ9SzRrDe0lepnvdxmcsEMrVRB3vdPbIKYKg1R29cfxtbWGOitFIPnp8ckJ4YC+iCciwiWLWooJ+AqR/Ead3Kupou6MPJC4JHHX4kKEy0+rTVBReePQCTIDHk073NFaOzuBjNra8T6BiAysQkCquji6JmMGy26R0CEZEZptCSsmI2/pQJcPTKkSWe7vE5nQ//LzMgYI4aNyBNbILYK+pZvi64CfffuZLg5OcNeF42gpaZyLSuHVL0oDJ1xMDkYjNmypjG2EzUYSpZOtegx7QYjiFboHVpydbJoqzRBRFJTtA+NgLW1NRq7u0siiDH03Fp0FRTqkWAn0GdqfWXi04FjksbE2hZFTM0llk/Nv5m1LdztHVDZxUXkEdwYa0Ggn0Q4CGoCnmPOCiEWpVyIDMau0ECJmtjZWCMpLBqhVZshIBOAy/npxtjVw0c0+iyaWBzoL9Jo9bfmdOTE4p5S4ohS0CV9JK2xfNmK9xvobBt9+cp1lCweLQ4pQUvwcrnNCugcLPK4ft4eckEl6kKebmOLqJqtXrbqXccgttMohNZolWlWUwXg2zz6JzVDp5LlEaih3sQRpyPDxMrmRCMyAwkBSsvMHfbYAZi7hTBez0yirZU1KpYsiYmdO+HnhIpo4ewEjbExipiZC41RfRyKrso6O8mmuC3c3dDNy0PktWN8vdDawx02thqEOTggsVwi/LJxRGnNtbE1JLLE3erinZ1lxcmLHp3X1bD6X1Utshkt/xW0lc7L572WRSfn4ge0aNZCL+4i0Gu6uuCQbknN7AIzjr6AwnxdTaFYdYq1QksoFt1AiUieHlmvU6EBundSMzSKr45EF2cRTC0JCsSdfBSbEECUPkz395GkmZG1DfwtLDGudk1MHDsGf8yZjdQjh3HlQhouHTqItOVLMXPoEESHh8OkmJF0SKM2XVYAa1sYmZqiqLExPjc2RlETE5hYWQvnZ3gvxMsXUYmNEZADP/eJjhM1JxNYvb2UoIIhHcrsWqqP8XW8rq3c3fT8nK1QatWoKQBXW6TkBZwF+drXAjp/CP9NnTINFiYmkgXLTZJBtRJixXT0hSIiSm9LN+0p1UCkLkJfuo1Fyaa9Cg3Q/RKbILZKQ7Ty8wfB2cPLS4CeW0DQ8tN/4YrHJj+kekzocEX7aeAA3Dx7GpcvXcSFc2dx8vgxHDt8CCdPpiL1zGlcuJCG/SnJGDl0KJISEuDv7S0JLB8XV8SVr4j6zdqjYbP2qFixKrzdPGBjaiqf6+DgBJ8yCQiu1iJLX0fh5+GiuaefwBBhdquyCnD1yDAoW42U0TUXpfEiPx89crRizd9RRlSdLAUC9OTkPXB3cdVnDXnxuGlTdgNFOS43i1J5umLVrRBaodZL9IWcvWzrAcoFSsgko5cV53yDjxMUbaNKwc3GBmGOTjgaHiKOX27oC8eEk6Kdh7tQFWtKj1lwYWWNcWPHCMhTjx7B8SOH5Xbz+nUBCv+7eeM6TqeewMXz53Ax7TxaNG0Gs88+RZMOvTFm7X6MWJWi3FYmo8/PixFbpynsrKykzNDF2RX+5WtI1vcVqkcntXJ9uLp6wtrGVsKZuZFyqCDnUVbpwBerNM+Jt/XrNihAfwMOpgri3BxfG+jUpd+5ex8VY+OFXxKw5I9MPTMqkJWlo+PCDCk339XoEkd0Sr20oYjtPEpfBUMtS/kOw0VDTQ3LKxfpDQI6q+/yTWqGWrFVUcbRUWLfP2n9pAVedkBXSgKDsDrYXzQsJja2sDE3h4+jE5xtbYWTsyX1/LlzBci05NeuXBaQHNi/HwP698e2rVtFRXnpQhpOnTiOurVqweLzz9Giz3AMW7UXA//crL8NXb4Lw1ftQc3O/cRKUyDn4uqJgIr1ROxmeG6cuH5lEyUwQNrS2sNNgJvVtTMEuHqficAvDBSLdKCjI6Jw+fK1d9ady3ACvDbQ1Xj6sCFD9X0YmSwIp0ZCwoyZywE4iIwU1HF11XM6CoA4UUo26PKCvuj4enjttoWGvjDMWKpKIyT6+Es8vY6bW5Zpcp6j2iuF4TpGJIwsLOBgbo7EanXRf8pclC0TC1szM1iYmKFsyVI4uG8vzp0+hWfP0vHs2TPElSuHf/zjHwgPCcH9Bw8E/Pfv30PtGjVgXbQo2vUbhaErk/UgVwE/eNE2jFi1B5WatofGzFQyngrQXxZ2MX7uGVpCworM0nJrluxWYxXc6pGTeE+oElZkdlelLaxXYMeId72ZLgH/2kDnh/Df1q3bpMUDnR9yPHJ1brFCT1wdkIxHPveNQcmVQl8sERST+FJhBelLVIOuhQboYg2rNkelqLJwZvWOvVJuxuVbncC0cKRnFDiN9vWSGk5aSzMTEwR6egs4RyzfhRHrDqD35FnwdaVmyEqyzIMHDBCr/ujhQ7C6qXWLFviff/wDDevVw6NHj2S8+V+1xCTYGBmh05DxGLpi9ytAJ+CHr0pBQrOOsDU1hU90vIjVDK05pcz829XTFzbWNhJJ2hLCjbwyz4NkvIb8myv33AClGJrFMqQszIjOmztPfquhZX1X9wsE6KQvsnFXvLJxl0pfGuQgCGLyiE2IghxZ2/gipu7hG6DUNeoKLAj0Us2/kOzoSxepIGkLL3g2UYmM38swY2xcDQEGq4ao8UmLCBaAbA3RYrrWFy093KB1cJAViw6nrakJYmPi8eX0hRi+Zi8GLtwq4Byxei+aduoLe3Mzqa/09fTEhrVrcPvmTQHKvbt3hbbcuX1bD3JOgEpx8dCYW6DruGkgVVEtuXoctmI3Okz8TboGuHj4KueX4RxJW1hlxaoiTsTG7nkTcRHotP49vDz0K7OthaXsbXXq9NlCQVsKzKKrVn3smLH6MCOznsx+rg3OWitB60cr2JwhKV3XKWm7YO+AkuzNousyJQ5p20HKhXoTPF2cMUoMci8QY4YxKqkJ4v2DoLG2ho+DozTspACLsW3SN6bt6X/Y0eG0sECdBi0xfNE2DMkAykGLt2Hogk0oWzIGtubmEjrs3L4DLl+8IMXaenQb3KFljy1TBna2dug+9Q8MWbrjJaAPWrQVQ5b8jei4KkKL/GOqvmrNdeWErCdle2n+Zq6w2a3CGS26Gm2hdEGVXJsZGaF923YKXXj67J3Gz9UVpEAsugr0PXv2SXECe+2RvpCvMYTGJTzjAKl/0xpwAylyQ75HoS9WCK1YWx99EYe04wgJj1HzktG6vtbfAvIGcPXwhXdoicyjElmsHFQClihfDd6strexkR6GjCJREKX6G0LlrCzRuENvjFyZjEFL/sbAPze9BEpa4GErk9F19Pdw12hgY2Eh47hy2VI80nFyA4zL3Vu3bqFkVBTcHJ3R5+clGLKUn/vCGR2xMgVNBn0NjbkZ3LXhoOT4lXEyoC38/Vx91gfnreKf1+8Xra++tQXP187KBqtWrZbfqQLtXR8LDOiqmrFe7TpikQhYzvByzs6y8wTFQSq4DY9U8/0dGqAX6qtA9wkurkRexBlVmhGFsXooD1b3lQubCWDpiPmWqiRNfHyCo1C8Ufe8VSaxwDo6Tiaoo5UVHNnMlK3hnFykEsnBzAyNWnXGyFUpGLRo20tgNATmwIVbMHzZTiQk1Zb4N2PQHdq0wbXLl/H82TMBDR1T9d/Vq1cRERoKrbsXvvxtGQbLBFKAPmTJdvSbux4BIZGiB9dWYGXRq0CXaItOrUjaUtfNFUfCFO2M4TXK6j7lHLTofJ+6IjOzG18+VtqKk9K+a4Cr319gQOcH8t/MGTP15XW00FwO2eMju+WQKrvunh5iEQl0KhrZdqEs6xh1xRekL8Ub0iFt8KplygTAuQE5X0NLJ0u3hbl0mmWfmIh6HUXrntvPCNTxXK/QUvCOKAO/skmKc2dijEqVq2H4kr8xaMn2rEGus8R0KHtOmgFP1nmamUsfmU0b1su4Hj16FGVLlUKl+HiknT+PK5cvI8DHB+FB4Rg8Zy1If9SJQwe0WrtesDE2gndkTKaURTn35vAMUaItXH1HUXsekfXqmxHwihPqJ71tmKFVy+a+nfSt/GYVZIXhWKBA54exJ2Pp6BJyoQhaLuXMgDLGrGZEMxuwhUw22CtbjzjZUftig6jqzfXRFyoZSzbvU/AWPakZPAMjdRZdWUUYxw+t2SZPlp3Wkb1igmu2BVPpdpaW8HP3QN+pf2QZEVGBqT/Sqi/fhYTq9cSqU+Lar09vPE9Px+RJ30qIkWHGxYsW4fLly/B0ckJ0+coYumQ7BukcWzql3aYtgJurG5xdPRWjkMEBlQlMXXrlBnB184LGxlbKIFcF+UuYNOP1yexv+lcMJjQySPmzUVFoYBDOnD1faJxQdZIVKNDVmPq4MeP0/V6YJWWnXTYHzcqqcwnkJKAsVc2UshtXYOlKqNCTbY9ZYTRWqvvlIhWgQ0qAsvKf/Qd9w0oqzXx6fI1SLfvlCeiKhdRFMMjZTU1QvVFrDF+Zore0ekAbcOmMjxGoPSf+Ck9HJ1iYmiIyNAyHD+zHsaNHUT0pCfVq18a1a9dw5MgRkCrFJdXGsOW7QeozaOEWib6UrcaJYiIrC6mZjFmGVU8oW+kE6eJF2lKHtCU899pzWnPFOCklczRqpkWLoX/ffmLN31W1vwrsjMcCBTo/nAmCkydPS689znCx6rZ2qCWtMLIeSC6Z43y9xIEl5VGzpHGdRyKOfVokQzpMerQUZIZUqEtoSQntscqJVIlNj/IMdJ3VdPPyl269lNT2mjQDw9ftzxPQhasv3YmEKjXEqpPCsMVGRqf0r40bYWVkhFoNW2EYozhcDVamoNWoHyTl764Ny5KyyKSk9lwbLtEW+lIc+9zSFlpzAr2Vh5sUuPMaMwDBrdD37t1f6GgLcVngQFet+sgRI/VWXe24xV0QsrLqXAY3MqYu/QLthKezRUPZFn2lgShrSPWUogAdUlo28ljGsIPKVJZID2lSXoHOCeMXk6RsrcKqKTt7VK3TBP1+WQLGyQdniIpktOSGfw9dwQjMD3DTaMSxT6hQUXQvT58+ERDxv4ULFsDSyAiNew/D8BW7MXjJdny54C8ER5WCvY1GUv2ZtbYQ657UFHRQXZxcobG1FfUki2F4DTKjKRkfI8jZ/9yTBdC64hl2bOvauatizQtJSNHQqhc40MWqPwfOnb+A8OAQ0amzcoaUJMHFWQYyswgM6Qv1L6w6p1aGzfzplEaxU25PpXHRm5DsEug+JeKlODskrobSfSBfQG8O39KVxbcQH4O9X0xN4O/ugQatu2LgzFUYsWZvrpxSxsCHLtqKmJh4WJmYSKZx9ozfcPvGDT3Qv/t2smRFO4z4VtL/TPXX6NAHNibGUg4XVDUbpaKUzJXTSXLtUJurbS5L5nid+FqJtOiSfLTm7s4uSEnZJ7/PEGCF5f4bAfqjx0qh9eRJk6WIgN44uTqXyK+4mWsWloPWnksoXyf0xcoSweWSXgC921iUaNyzQB1SscRllLbJYZXr5xvozKoyIuTq6QdHayuZqFzSqUq0NTFGsK8WTTr3xaC56zBi9Z4cAT9sVQra9BsFR0tLScI1bdRI9C+qBKBv796ws7RGn+9nY+Ta/eg65Q/p3eLs7p1pBlTP0/Wxcz89beE1yWqlNbTmBDk19GwJzbwHrynP0aRoMb01f5d1odlNqjcEdIUT3bh5G+XLxOi7BBDAYQ6O2JxFtpQWnT1BuJcOl0TWkjKeLj3PuyotL0q3oJNYcEkjOqNMgXMyRqj9ZPJh0RVK0AwBlerB3T9U2kUwckQgCIe1tILG1AQh2iA06folBs5Zq6M0L2c0VQpDKjJo9hpEBodLAyBPFzesWrYMd27dEqvZqG5deHn4YOD8jRiybBeKqxnQctWy5+ZVmytKRY2iRwp0cMCGLJJEDBCQprAKijdmsandYRZUFW+xiijIX4sjR44VWmvOCfDGgM4P57+5c+dJXJ1CH15wdmft4ukh+gg6NYYWgwNrWFxLoLh7+KBcu8HSF1Dp68Ia0qYFVkNKHquNrSlFH7KhQM/xEuHJK0dXLabS1q4Z/MokwM1LK/RAAbyi5dFYWkJjaopg/0A0aNsdX/62XAAvsoCFW15yXIevTBbaY2dmCnNjY3Tp0BHXLl/C1StXEB0ehpJl4jBm7T7U7fX/t3fe4VGUXRv/4/uu77XSiYQUSiiB9JjEEAggBBIISBcBBQk9VOkIUhWlg6IoIILlVZqCCFZAXxBFEHgRCNKE0EsCUsSAer7rd2afZdMg0bC7Sua6JpPsbmZmZ+7nzHnOuc99nhOf0iU1epRblMV+fq2sAmjOCRexi39mSi5Wm2wnlps6WOpSyW5TOdS8cmWrBtU2eDEOVBGNGTVa7zVguupi3nluVv22Al3Lp37NkMfbd7BTeLHUNLvlAnJBHYFuuC/JyKjRZc7Xqjp6GE3AoTOtyEv/guWmK9Abt1OFsFqPdre5LtPyPRk1QDJbAMe+8dv9g8KtOYdaeMstA/A+pUpJWPVAaf1kLxn22hKNoeOyjF9lJZeeXbNFRs5bJiFV/dVYhAUFy7Yt38k3X28U/3LlpF3yEBn+9sdStYq/VCzvp10tOKY5h6xb/a6JHaSSXxX1+3E/oF/gtkAnBtwAfWl4iNaeYrlxTzBO8Ha4J4Z8Z55UFbx9JDQwWKZMniIZ1yzL6Y5gv61AN1Z9y5bvpYqfn4agzMSUanYsRlY6qAkzklFV397LW2qaxJEt8hKtyZwCcl9adFGAIIVX46/46Fni1AoyVHoV8F0ltEFL8Q+OED9fX2vCapvI4cMzgfSvUFHiE1tK73EzZMKy9erHwzEnogItAJotCaSJEybIgnnzxMejjPSeOFvqPvKoZkAtCm7uE1DOhwkqESasOdc31s9PdkSHq4bMt1HhMiUoQBIqVZLyKqZkiZsaPxxgoztJdAWfHEvOU5rue7gvxe8vIoMHDpKMa9fk+m/uQeRytO63HeioebFMGDdBLxAXjIkmVoK0P9bE0YXBD7Rzm5nwlC0rkfGtrAkpfvqgqVKzA8XSBUQFMED3q+zgo/91i57ZmlqAhypAJQ8WnqdVRW8v+6QVy0iNJwUZD4VHStvOyTLkxTdl8mfbZcTst6QajMgynlIjIlISG8ZLRGiENG2XJL60WQwMs1GMb67ZwjWjyohoFlGwUQHV5LuHwrUQOrJCRb0nvO4IbgPwkkWLSbUqVaVbUhcZ9NRT0rp5CwU+AqKAHTJXqaLFZN7ceXq///EJI8dRZH5XWYzTZ6Renbo6McWq62SzXHl5IyxIJzrGhTEcdeSUeUwiPBpSo5766NpoCs7Lk4P/NNDVh3WUZQPoie2VhBWrcht/zUfPDPCsNa7GwnexAB8SJX7lKigRDPCpEYD96OmpVr6Kj6/UqV1fHu/WX6LDI7UkDkDB98ZLdmKEAAAe1klEQVTl8a/op1aVyTT0A+XT891sq9ISeKK07q5PluqRtdWaY2i4By0rV5YI7dWa3SXhaUo5XIkiRfW8+vbuLbt37VIQmx8krRo8XM+eL6HYIjL8QTmSevSfTQEwwM5py8VZu3a95RuW9dILzcwdbZSvIsN0Rg/YmZDujA6XpuicAHQVN4qQ+P4TdZIIFaBu1xH5j7wQ/mv6hATGJqggvpm04bdSNAzI/nLUJZv7goW1FXS06KI+O8fj2JGP9pTINj1V1DMgJk6q+AfqOXAeZsU1gJ/u6+Fhf828h2oCUSkIaewHgSe+H6Vyuk3soJNsklhBsfHiH/Sg7elhTYrZD+4Lfrp9n8T+y3gK1hsWYmyNGJkwblw2gBugs4VcRqsbXBn2g2szc8Ys/YirtNBzwt9td13MQYmvsjw34Tl1YbAYXBhcGIseEKGJCDMh7epfVR+vN5iMY7R3EUCnO0O+lbtQik1sr8ck4xpSv7lFwmrTQyeMFcp6SY1mHfMQR3cEble7ljr+r1pOm/XEmlqW1VIZA3wcP6zRYxIa31pDmrgxiHrCdgSMuCAkygzwbrr1Lafi/oExcarhDjmLSSZzDbP6la9onwQ7Rn6y7hffG7+bOUDUgxEyZOAgWbd2rVy+fFnv2a1+HDx4UIKrB6ivXra0hzZaPn/hoob0zP139dZpQOeLcrCLFy9Jm5atdOTz+MQfxHKPdOhUTOwWtS/8RSvyUlHqdhpkRV6U3PUnq41adNEQnNUtubwERNVWFyhAuS6lJbJBC+2uQYSnXvJY1RLXyaQBLwQpXB0ET5s8boG2YSvlswfVipeA6HpSPTJWqoXXEP+QSAUuEm+0VWFwKQAr+NmBjFXWFpDaBvJGQ9usQMztb9qhawaZNiy4PtpqkXaLZrUyzLn9v/rVxYoL6gP43h+uWCnpDtnXWwHc8f3xY8fqPdWnUBlPt5ChcxxcTgU6B2bZsztFwoNDtIAWsMOFIZlElTxZU5IT9j6VgB3K7qM9LB7KoKnaXIq+O/kmd9l886qB4Zav6u1tt4JY9IDQKInvN1HbNNbuOFCC41pIUN0mGqkAwAre6iFSGetZqYoWWFhUBSuSQtGFrt5e9v1z7pSpMdnUlb6m/O5Dj1OrEomnm/WEy6M1d3BvcgMxr7NPgGdW81kmj7goRHye6tdfdu/e7YjZHH+n/yrFHrlZ+f/u2CFVKvrpBNWjeAnp36cfvc3EXTKlTge6oQesWPGhTnbgSQB2fEUAT3r5TE1LdFMHgU5IjbDRLI26UBwRhR5jfjKk+MjqG/dSq2s9ysuLH4ksB3ehWlC4JqmwvoYXb4HX+wZ4FaQWYDl/QFPWw0Mf/fio+LiE20oWKaZWDpcAn9ezlIduCcf5lClrvcbrpT00zW//v6LFlDoBc5H9A1QDUvuWwaGDxhpI9u/jMAiYTHJuHI/f2QJyXJWI0FB57523cwS1efGnQ4fkzYWLJLlHTx0QKz9YIcePHzdvZ9pev3ZNWjzyiGZxOWZUeISkHj3uNpNSFwD9uo5yrtILz79gf9wBaiZH/uXLy/vhlkosVADlVJQtK+F1G0vi0BkKdKTqaIqb17I6/GV8ZLKVRB4qVfTLBG47eMpZk19Ao+E/ukN7+4ivp5eCEb41YATMlLoBmED/alpsgNj9Y20eleQePWTEsGHy/HMT5ZXZL8vCBW/IksWL5aNVq+TDlStlzUerZdPXX8vXGzfK6lUfyaqVK3V95623BaLW5EmTZNjgISptEV8/TkgScRyAas6TCTrnV6Wyv/hXDxb/gBCp6jCZ5ZyhzC6YP182/GeDbP72W1m/bp00bhgvZUs/IGVKlpahgwbJhbRz4siINMjls08+0VEjZAy2EcOGy08/WUKh5jM5badOmWLdT7p3qNzFcv2Yowvhqt9dAnS+LPWEv//+h/Tr209KFCmij1nAjr+O/MXi8GDlVAB+Yun0GWUiShydMGNMh355A3qLJAmqk6hhPHxz6Lg052WfhC7ZOlpDAAWQCathiXn8A7bG8fHStXOSjB41SubPnSefrPlYtm7ZIlg9Oko71nPmBII/8xoyF1u+/UY+Xb1anurXT60z50pBSr2kodKw9ziBrw+tuEHPMVK1qhUjZ2Ag5b1nz55Mh8UHB4A0uIX6ixoYHbHNcunSJY2R33fX3XLX//yvUP+7K0tI0Xw2p+3GDRv06cNAw33pk9xbLbo7uC8uAzppYpZLl67IY23aqqXEYgF2JX9VrKihRxXEQaouNEoSBrxgDzHW6jjw5rH0Zk9qRAThI7qs+fsHSrXAMN1PUERNCYmpJyEx9XUAYRWNn0ysv1f3HjJz+nSdnO3YvkN902vXbnDBc7rJt+O1X65cUa3Fn9PTZMXyZQoitBTrPjFAmo6aY+f/APRGg6YpAU4HMGFJz7KyetWqTKeFf03dKU+msOBgoR71ii2ycuzYMW0Rf//d90jTxolarpfpn/PwR1pamtSMrqHt5mk5HxP1kBw/cUp9dVdZcnNclwGdEzBgP33mrF5kboB5PKvLYshDkLuqB0vD3uOtmzt4usR2HnJzoNti2lj+hn2elUaDpugkE2IYURXHNWHgZAmKfli8SpWSdV98kYdb6pyPXLr4s1pd5Ok+/+QTdZN8ypSR2u16W5lih+bCfJ+IuObWEwpNmRIl5fX587Od6LPjx6tRwe9/7+235cqli/qZbdu2ySuzZ8v2bduy/U9eX6C6rHPHTjq/YP/MLz7+2PVNAMCaS4FuRhsX8vDhVHm4dh21NgbsZsuki/Bc/e4jtdoIC1Ynj1LSpL3x0R/u/oy6PLg/lMolDplhGzTTpOnTL0tkfGvxKFpE3nv33bze19v+OZS5cC+OHDooWzd/K5GhYeLt4ZEj0On4XLN1V02wMbkG6OPGjM12jmQz6U6CWzZt0iS5kH5Drdd8+NSpU/LuO/+WkcNHSL8+fYSs6OCBA2XGtOmy4v0P5IedO+1PAvM/Zjtp4kS7y4f7Mn7ceH3L1ZQAtwA6gGfZt2+/ds/ARzYgZ6ux9PIVhC7SWC6AXjcfEnWEIYnQRLXurp2laz0xUAcKne4aYO2HTNceSqWLFpUZU6eZe+by7c8XLijQkYpGF71OTE3xKl1a6rTvI4nDX7wxcGksPGiqRLforCFLgA6Qkzo9me07qB5M1EMaFRrQp4+cOXUy0/xiz+7d8khiooYKmdDCNccdSYhroD7708OHCxPn1NTUbPvmhaXvvWePFBFNatm8hfxyNUN++/1v3PHCWOSC2nKhKKxuUD/O7rMr4An/+fhK7GPJkjj0z3NRNNHzSCcJa9pR3R4TtUHaIrR+M32aEPFwl+XnC+cV6EhEp+zaJU0SEsSzZEmp2bqbDni6Zsf1GiexnQZLZJseEhLfRpNSJIwAWWJCI7l69Wqmr4Nm4+Pt28v9d90j7R9tq1VLhAbNcvHiRTl29Khy3kkeZf1/87mctux708YNOnnHbWGewEDZv/+gfrygcPJn9uM2Ft2cPFckNfWYNGvS1M52tJIy3g5cFGgAY2y867+omY50hvLGm2mkgJI1d1kunL8B9AM/7lW5izIlS0pInUSJbtdXn1BQIbRzdvMkzdbSypJEFCCLCn9QjqYezfZ1xjzzjBBZadSggUpUZzgo9Gb7cD5eYPKMq/VI40SN7hB9qeBbTjZs2Kh7MffYFVu3AzoXgSUtLV3at22n2VOATuzYtGjEz44jRc+EswA0XvDhQ+PbSFmPMtIsMTFfViwfOMj3Ry+cT1fg0OIF96Vjhw7yQIkSAt3AoiI4DHKtWe2k5DDmNICMp+H3W7dmOy7xdfIBDITvNm0SAFoQy7mzZ/QJMbBfP3WdmJAy4CDzsbgC4OaYbgl0A/Z169Zr7JgLRuw7KqG1Nt21gD6+AIHeRWh/7utTXmpERKgKVkHc+L+6DwP0g/t+lGNHDkuPpC7yQPHiEhSboFneTJRgoysD152MqY+vhvneX24lbRzP5bNPP1WLS+X+2k8/FaI7ZiGWvmrlh0rsotEAT9YOj7WTgQOekpdnz5YvPv9cjhw5IhkZGeZfdIvbcpQ+S0dTZeoLz6vrxGDDhVnnBu1d3BroX3+9yZ6AILmjyl22yWhcQcpI2yr4K/hVlWqVKklKlkRLpjvqxD8upFsWHbeFvkX9e/cWj2LFJKBG/exAVzpwF6lGYbatKJvIy8xp07Od8Y4dO+x5g+VLlsjP52/IaOz87055bvwETfnTI6ndo22VhNeqeQttEAbo4cfMmztX9u/bp40KOABNC+i9BNDnvfqqAhyQw3/ZvPk7PQdjXV2xdWugb926TeWTyfSRCAmLjbfH0eOSsegF1GjXZg2RisBF+nK99ajNhhAnv5AV6LgEHsWKS0CNejkAnVK5blI9oqYd6ESvBg14KttZH9i/X2m1ZEkXzJsr58+dy/aZW71AAs1xEpt27qy6WQB97pw5CnSyzBFh4bKvcDKaeytsLvSePXvtM3iAHhL9sEpJNx4yvYB1GC2OedXgSClTooTGkG91o53xvnFdjEUfPfJpPT8UcNGjyeS6GFH/h+rYgU6qH/6NkZ0253zy5EkVlypZpKjMnDpVzp46KRzr0sWLcuXyJaUF4Jpcy8hQLgz0hj/+uCFZbfZjtrgthw8dlH17U+TU8WMyccJ4iydT2kMa1osTd+Cmu7VFJ9QYHRFp+eleXhIYEaPZTZI9xMCtG+0wIctW4ZO1lC33vwEOVNxSRYrIlMmTzT106TY70EdYQI+olSvQKcTAR2ciikWlqzd+NwuA/PXXq7IvJUVqRdeQYvfdL+OfGW3vgkfEZP/ePcLAYl5gVjMZTv3pJ/XD8cWPH00VuuOdOnlCfz/wY4p+nixut86dlTiG69Sre0/lNLma7+K2QCedfOrUGalby2q/jkthtWacpFnNen9C7TarBXT8m8c+IMEH7pvc26UANwc3cXSAd+JYqjbSJY7uHxqds7A/3yE2wUoa2YQ/IaTtTUkRCGKpPx3Sto07vt+q0t5QidGKYaILqDmOrrYep6bXqX2bskfdEwYE6497duvK7/wf+yeD+1BEhBonklavz1+gX8cVfrnjMd0a6CdPnpY6NWPVMlG8ACkrof8Lmiyp2/Xp/PHRb2HtATosR2ofWzzSLFO20ADP2VuTGTVAnz55imoxUgCipXpZvhPfIbhuE6vCqFw5DTHCP39/6RIFM4AkTLlz+zY70LG+uBvHU4/oio/NxJfXWE+fYD1uX3mN99mPfWDYBsiZkydk+pQpGtEhrBhQ1V927bIYlI6gc8Xvbg30EydOaVNWHsFZgV47CQ3GApK8wL9FiqJBK/Eq4ym1Y2KUsehsYGc93sULFtdFgX40Vea8NFu5LlUCw3PUVwTo1MKSd9Akm63YGR2YU8ePqtU+eSxVDh3Yp9X7UJEbN2woG7/6UpmM9Exa8+GHsmzxe7Jw/nx5ccZ0mTxxooweOVL56yOGDtW/F77+umz88kv7UwCLD/i/+2aTxuYBOTwXCF5ovLiDzovbAp0TO3s2TSUyiA4QMvOvFizxWPRhs+SWNN0s1s7RTcnpd1WxatxOyvtW0BBjVmmHrCB0xt8XbexFA/RFr78usBcrVw+x5ie2aJH5Ppr40laKtlpS33LiWfoBeWnGDLly8WcN/W3e9LVMnzzZXtABPZniEawv1p/4O9cbCkGposXl3n/dLff837+k6L33aSQlPDhY2rRoKfNfe03dF+gJWHyaFbRq1lwnoSaGv3r1x3qZXGHBsx7TbYEOCejylavSqGG8XnTS2pS3wdCjMUCNxwfkv2b0ZuA3QkaVq2nr8k8+tm6SMwCd2zGIgmAtDdCXL14s5SiHqxKgbVmy9kXVwdqorWrUwHcBxD6eXvJEu/YK7o7tO2hYkUkiVpcVASLo0axEaQCp4eYTCEjq2Emt+AdLl8o3GzeoFT9z6oSknz0jbHF1Pv7oIy1M4f+ZBCNk9ET7DnL11wxRWUI30GN0W6BzgWC9NWvyiHiWti6glrd5e+uklEc0cXQe1xpPvxmI8/KeySwGhGqses7LL+eGP6e9zgTSAB0fevXKFVKlfAWp6FdVVXtVTsPxuzFYm3TQVugm8oKVpoYTOYui99wnRe65Vw0Hlf/RkVGS0KChNG6YIE0SGklsTE0FP3mL0MAgmT1rpjBx/engASHygo/P3/9Zv04+WLZUpk2eLO3btlUVAZ4AiDEhhhoSEOg2vrmx7G4LdMJRlNt1Teqi3GplMVKIYSutw5WpWj1EqAPlkW0BPvfwoXm832zLfqqFRWuIkbpPVy/EtPfrRC9FOSRfrV0roQGB6l6FNemggkj6fRiktuJvvgM9Uw3QuW5YaeY5VE+NHjVaVn+0Wvb+uE+jWld++VUNyvXrv8uJEydVkwUeDFad/0WvJToyUuPuNaKilI1YrXIV8S5TVvksRFYMU7H4/fdLULXqsvaLdXrpDMjcYeu2QOfisLz6yqvKnTYX3g54eOoUMfv4StWgcLE6I1uCQjcD883eI5aO8tUDxUto6vt21IHmZ/BAttLIxt4UOWIL3cVERomvl48qfKH2ZQY4xd9I08GDqVzZXzn8BuRs5702Ty5fzkzeIoTLk9OsnNt3m7dIZNiDGn0qcX8R9c2L3nOvFLv3Po27q7oBBeLFiutTgqQTgyg8JFT69ekre/f+qF8RZV13ALg5B7cG+m+//SHn0tIVdEyGdFLqIE2hoLfpvmDpEeCHhcjNzylzeDOQ8x7/R+tELw8PrXek+5srFwqXiW/jvjDp27t7l8TVrSteZcoqDQAqANwWLDgNfLkeynNxuEboNDLRPHb8pH4Vc+Nz2/Kh48dPaufnBa8vkPFjxyuAKZSG79KqeUtp3aKlJD3ZWdUBMESQ706eOmO/VLnt25WvuzXQuTBYnYuXLsvM6TMkJipa3Rg4HPiRCnSjY2IAX66Cuh/oKVqAR10rd5VZR/DzeXx/9u3vV0m2b9tuv3mu+IUs5sF9+xTo+MgH9+2V5k2a2CbnPpZYUiaVrswCSPjN9991t/Tv208yMq7lWUyIa57fhf9xdbnczQaS2wOdk+ckWdLSzsuypcukc6cnlRXH7J7IQTbA06YcwIdGqWotQFddxJa5i+SrRYeXntBW/Cr4iWepUvLB8vfze78L9PNwTQA4Ft1Kw+9XvRed+DFX8fZRtwE/mdXRvavg7as1uLNmzFQZwL/SrhwA57beDFzu9N7fAujmghnAg6bdu3bLyBEjNQacK+BVf9xXqgaEqO8a1uRxdWlUEFRFQLNYepviLj6uR/HiMun5FwoUuPnd2fVr19VlMUAnxd6re3e16Dx1AHZsTIx0T+oi/Xr31s5wOvH0eEAS4hpqF2+OSajWHbtQmPvqjO3fCujmgmTYlHm5iYcO/SQTxk/Q6AAToxwtPJNWdBYrVlb9RPzwsMaP2cOTxsVhS/SCprhwXpI6dbbzrfML0oL4PHqHhPYAOr46IcbBAwbopLBnt24a5tuza6f2NSJhQ5dpQonEybt0TtJTIJpirtudvP1bAt3xhhlAHT58RCaMGy/B1QNVZYsbnsml0dCkTQwU0JevKCjdonxLuxN6DTGRJQ7tHxKl1fa1Y2pKetqNogRzLGdtifpgxffbSFOk2UcNH671nhOfnSDnz52VI4cO2Kz+Df+9dImS0rN7D53fuLPf7Hgfb/fvf3ugWxfIah8DALHwz014VjsvEA822b7soEel10fbq1hhSh9VxzXSzuW8vHRCioaJqxZotceOHNFEDWFGCFbPjh2rQB83erRmJZmgGmvfNzlZvy/++uPtOkhGxnW3yUzebiDfav//EKDfiNkaUELxfXXOqxIf10AnbPjxSg7LSZnWIXJjaYtbMs5M+ha/+57ZpUu2x48etQMd5iBFDcjGjR8zxg50BgHvzZw6Tf13zhupC3coeLgVAJ31/j8O6ObCGVRevZqhcd6n+j8lMTYfFtYe7Dri8vj0ZPYo5EXBykzyeAIQxhw7eozZlUu2FDcYvjeuC4xCkjYjhw1Xn93wyOGcrFi+XCpVqKjKCQ+GhKpGDidtrsmdvP3HAt3cVCIOZklPvyDr138pUyZNUWoBUs8PhoZp5AbuB4W8JFeMmwPhqXXLlsKk0FXL2dOnZF/Kbs2QAvRZ0y2go67rWDChsnXfbdaiBwYwA/eLz9fqaZtrcSdv//FANzeXSRlf1nG5cuWqHD12QvbtOyA7d+6SlJS9smPHTqldM1a8y1jC+VjG3OTXHPd1u343Rce4JwD91ZdfVk2Wvr2Slf9iLDqZU35v06KF5aeXKCmzX5ytp2WuwZ28vWOAnvUmA3w4HjktaJjg2hCTxrX5/LPPcvqYU15zrBvFPXnzjTc0fIhQP1acRJLyYWxSE4P6D7DIViVKSo9u3d1Gnzzr9Xf233cs0HO70KB3yeIl6r8DdGLS06ZMcQqoczrIpUuZOelU93BOj7Vuo+VsjkDH4r80a5bG0ukOR2H0mTPn3EKfPLfr7azXC4GepSgAsKFDEhoUrNacUB1ScIT6XLH88ouNwWiz2GiaEzJt2qiRxs8dgY7FX75ksZS3PYmYc2zZ+r2etrMA5a7HKQR6FqDjzly79pvqPlIojesSGRaea5Oq2w1+9FUAM9lRMqMfvv++WuyG9esrmxHf3LguTE7Xfvap1TDAs6xK0i1+b3Eh0N2lEYC7WQGQMWvGLHURiF640k//7fp1dVHsQP/gfT2fOrViZef27XL40I1qfLKomzZs0GQZ50x4dPIkS6PG3a6xs8+n0KJnsejcAJZNm77VTClxdQBDlzmXLH+IRleIpWOx133+mZK5qOfcunmzTkiNRWdyun3rVqlVI0atPuc9bMhQPe07nQpQCPQcgM5FST//s5aVEZPGJ6bY4Pp1axA4G/Anjx/TpBEqWBvWrxf/SpUkJDBIrTfuDBorJ44ekbQzp1WzBY6OIXcN6NtfT9fVSlnOtuBZj1cI9ByAjvVjGT50uIYZyZxSC3ngwAFnY1yPd+7MaQU6rglyFUhOVKtSRb7+z1dy/OgR+WHHdlmzapXAf4mr+7AmvKDwwvUZN2ac7iPrjb/T/i4Eeg5ABwQsK1d+KN6enpplxKr/+5139HVn/zCxdCz39q1bBIuNS0WDXLpL0OaQUGjp4iU1LEpml/bncHvcsVDZFYOsEOi5AJ1gIlnThx60dATxd/v17uNsjOvx6AWKH06EZc8PO6VRg4YKaNwqCFy4KQAdgGPJoS4oH2bESLl+/bc8l9C5AoDOOmYh0HMBOj4tna17duuu0Reso/LT053PTzcldaT4seqPtW6t8wbDySHCQiYXVwXwE5F5Y8EbKhfyV0ronAVCZxynEOi5AJ2Lz/Lmm1aCpry3t7Ic1621iFLONu3HUo9oLJ3IS4+uXe1Ax4ITgenY4Ql5fuLzsnbtOrl48bKeHjkBZ4Do73CMQqDfAugQvohwmLj02NGjnY1xZU8aoDP5pMoIl4VJMr1Av/lmc6ZzcnVPT3cEfiHQbwJ0oxb2pK3tN24BEm6/FlC7wkzozOEPSunOp6fbE0b46RRYzJk9W10UBp87STO7I8DNORUC/SZA5yKxLFywUJWriHQglLRxw4YcYFlwL9EbCHouWU8SRabwAh+dNiyfrVkjVf0q6SQUHr079PE0gHLXbSHQ8wB0477gKgB2OOp9eiXLmwsXCS3Fr/6SuTvzn4E8pDGiK6dPntDKf6z34QP7NRuKLDMi+6mHD2l4cc5LL2kTM84Hq/7BByv0kO4KMnc4r0Kg3wLoVvRFpFtSV42+oE4LuFCnJeRI5OPh2nWka1KSzJg2TVauWCE/7PxB0tLSsvXizG0AZPx6VdLPntXCChiIWvm/N0WVa7Her8+dK888/bTqkqNUy/GZhHJsamHnzZtfCPRb3MdCoN/iAmGNWJYsWaZ+sYlXm5g1pC98d8J71KJC6+U9egclxDVQnXB6Io16eqTy2ue8/IrMnztX3lq0SOa99ppqj4975hmZMGaMDBs8WBtdPdqqlf5vRGiYivMz8WRQkbTCigNyBhwhT6i433+/TQss3MFyuus5FAI9D0DnIp0+c1YeiohUqQnHBA2gdlwBIeD39SwrFD9QJEF8m1WfArYnAcDlPQaGWfnbvMbgAdTsy1hvcxz+5nMAfdHCRToQ73TS1q0GWCHQ8wD0X6/9plU6X67/UpJ7JmvcGhDiNphOEajWAkosflZgGoDmdcv/s7IvHTS2dD4DggHDNq5uPVmzxurKgXt1qxt9p79fCPS8AN32GTWdIqppSPv2ua/NU6XaJo0SlSpg/HdcDABptMRLFSumrgdWPKcVS28+jyY51tpYdACPX167Zi3tlgft9uM1n8jlK78UWvJ83LtCoOfjYmEVcRG4aI4Lr6MPvmd3iqxb96UsXbpMXnt1rkyZPEXGjBotI4YO1ydBcs9ektM6fMgw/dzUyVPlpRdfkjcXvSUrV66Sr77aILt27ZbU1GOSln5exULNcQuTQjdEq/LytCoEej6BntNFJdWeBfsGjwW25UYVuij5A7fjvTJA/39jt8ETewvOKAAAAABJRU5ErkJggg==;" vertex="1" parent="1">
          <mxGeometry x="1149.5" y="130" width="186" height="197" as="geometry" />
        </mxCell>
        <mxCell id="ujFVM9XAjsb7zgqNAqnT-23" style="edgeStyle=orthogonalEdgeStyle;rounded=0;orthogonalLoop=1;jettySize=auto;html=1;" edge="1" parent="1" source="ujFVM9XAjsb7zgqNAqnT-5" target="ujFVM9XAjsb7zgqNAqnT-8">
          <mxGeometry relative="1" as="geometry" />
        </mxCell>
        <mxCell id="ujFVM9XAjsb7zgqNAqnT-26" style="edgeStyle=orthogonalEdgeStyle;rounded=0;orthogonalLoop=1;jettySize=auto;html=1;exitX=0.5;exitY=1;exitDx=0;exitDy=0;entryX=0.5;entryY=1;entryDx=0;entryDy=0;" edge="1" parent="1" source="ujFVM9XAjsb7zgqNAqnT-5" target="ujFVM9XAjsb7zgqNAqnT-6">
          <mxGeometry relative="1" as="geometry" />
        </mxCell>
        <mxCell id="ujFVM9XAjsb7zgqNAqnT-5" value="" style="shape=image;verticalLabelPosition=bottom;labelBackgroundColor=#ffffff;verticalAlign=top;aspect=fixed;imageAspect=0;image=data:image/png,iVBORw0KGgoAAAANSUhEUgAAAS0AAABlCAYAAAAYn7VbAAAgAElEQVR4Ae1dB1cU2bZ+/+ytN+nO3DBz35vgODN3xhlBoKGbJigGgmDOimQQyQgmzIGcM5JBQEAQRJCgSAb3W9+uLiyaqg7QLQ1WrXVWd1dXn3NqV9XXO3x7n/8idVMloEpAlcAmksB/baK5qlNVJaBKQJUAqaCl3gSqBFQJbCoJqKC1qS6XOllVAqoEVNBS7wFVAqoENpUEVNDaVJdLnawqAVUCKmip94AqAVUCm0oCKmhtqsulTlaVgCoBFbTUe0CVgCqBTSUBFbQ21eVSJ6tKQJWAClp2vAcG3g7S/NK8HUdQu1Yl8OlJQAUtO13zysFq8qs4QB3jXXYaQe1WlcCnKQEVtOxw3UsHykiT70le9XsovT3TDiOoXaoS+HQloIKWja99Tm8euRVoya1QR25FWtpTtI8m5yZtPIranSqBT1cCNgOtubl56h8aprbuPmp99pxau7dea+99Qc1dPVRWW08Nre00/ubtijvnTtc90hR7MmjteqyhXTka8ijVEzQvdVMloErANhJYN2iNvXlLD0qq6VTCVfIPu0wHwhLIPzxxy7XAyBTaH5ZA2/UH6KvfdtGXvzrRr7o9dCIsnpraO+jmsyxyL/Mk13wP2pWtWW4eZXo6XX2W3r9/b5srpvaiSuATl8C6QKups4dOXM6k4NgrFBCRTPsvXqZ9F+Jp34VLW6r5hyXQnrMx9L2bL3227U/68hcnBq6vtrvQ179r6JcIV9IUe5Br3krAAngBxNwLPKnnTe8nfqupp69KwDYSWDNoNXV0U0B4IgVFpdDe83Fbth24eJl8TkXSv5319NlPOxiwAFqf/+gkaFuxAmC55Lova1dSTQvvtRVedKX9qm2umNqLKoFPXAJrAq2RsQk6HJtGgZHJDgVW+0PjCSBjKxBFX14nwulfO7X0P0aA9dXvTvRbgiu5Fgm+K2Ogkn7WFOnIr+gAvZt/94nfbrY7fZjbD7ofUWbnVcpsv0YTsxO263wDeqodqqOMjkw+n46xzg2YweYZck2gdfVxIZuEtgIHW/QDgNEfv0g7DxwlgBdM1PX0C5PQ81go/WOH+yrA+tufTvR7igGwJP4rKVCteJ+jIfdSTyobKN88d4ZhpgOTA5TfX0iXmxPZN3e04jgdrzxJF2ovUlJLCuX05VLraBu9mX3zUc9tcWmRdhfsJe8nu8m9WEf9b/s/6vi2HuxyczJ51+/m83nUm23r7rdUf1aD1sTkOzoYkcQO9/WAgi1/C8DyPhlB//rLg/7npz9oh18Ia1xrBS4Alsfhc/TNH27LPiw2CX9woq+dnWhHhhWABVB7rCFdpTcdrzpF72lzOOTHZ8YpuT2V9EU+pC3Tc/Os8iZ9jQ83z2pv0pbrubnle9CB8kBKbkmhpfdLH+UBAWgFlBwkjxJPcnmsIYDrZt5S2tIFOZfqKbs3dzOfit3nbjVoNXZ004GwRNoXGr8uTcZWoAXA8jkVQf/aqWOf0xfbd9Ln2/5cM3Ah+qkJPk1/+23XSsD63on+7uZMf95wI9fCD9HBFRqVnNb1WEMwD9Ee9jzeFFHEl+9eUlB5COkqvUhTqCWPUk9yzXMn30I/CioNpoOlIeRXuJ92PXYj9xJPBi6vWl/yLdhDc4tzdr9pMcBWA63E1lSCDL1qfOlRj6ppmbqJrAat4romCo5JdyDAiqRvDYAFbQhNAK6/6E8rNC5oZdCwXAJP0Fe/Oq8CrH/qnGnnLSsBK1vDD7VnkQ9VDlaZug4O8x1AByagrsKLgcotz4MSWpKofbSdRmdGaXphmmYWZtiH9PzNcyoeKKXI+mjyLtlNPvm7aXZx9qOcy1YDrYHJQWoabeY2Mv36o8hwsw5iNWgVVNdTSFzGhoOWoGEJgCV1kq8FuETAcj5wVAC8n/8SooTbneiz753oX97O5HTPjVwLrNCwsjXkUe5Fe0r2Uevrtk1zf5S9KGdCrGuuO7kX6Kiwv9iiuQ9ODlJ+XwEDmkU/WOdBWw201imOT+rnVoNWYU3DhoPWMmA56VY4yb/YZqAibJdqXKZNRQAW+vtz7yH6/Oe/6IvtHwDr8++d6Nu9zuT8UEMu+dYBFmgOIZVHqP/ti011Q8U2xDFFw71ERxdqwxx27ipoOeylsfvENh1oAWB8T0XSt0aA9fkPTvR3d2f6/vAuAnh98bMEuH7+i0EJv5U65/F+f+hl+n33QfqMAWunwbx0IgDWvwN2MffKKsBCpLBMR+eehNLY9LjdL6AtB1h8v0jHKk9yNA7+rHvdD2zZ/Yq+YA4VvEBUMoHO14bSuZoLFNd4iXL78gjfmdvWClqD715SwYsijoYiAopxYxsvUU5fDr2wwJkPGbWMtNCTkQaqH26kmQXBHJ5fnKeaoTpKbUun8zWhdL7mAiU0J1H5YCVNz0+bOx3qn3zBfaLf4ekR2ePxB4jv0YamXskeI905NT9FT4br+fj20afSr5bfo3RS43ATH9P8uoVwftjezr2lssFylhNkdKE2lK513qCuiWfLv5W+GZ+doOKBEopvSqBztTg+jG5136bnb/ukh9nk/aYCLQas0/KA9fUuJ/rzuhu5lWjox5MuTP6UB64E2nsejH2BFvGrtz/7r+AHY3/Yz04EAPy/kF20K1dDLnmWa1guBmpD4KOjH81MssldYOhkYWmBjlQcE0Crwotud92xZffc18TsG0ppTyPPQiH6iCik1xMh1O9Z7cNOfXyX+fQazRoAQW4S1oLW29lJSm+/IkRDy/UkHRcRUURCdYVelNZ+haYXZuSG5H14mL0LdpPXE18ORIAfBtP4VM0Z8ijXC870Ol/icynTs6l9pOoY9Uz0KPaJLxJbUrhPOOOVKA+prenCMU986e6z+yb7w5fPxruFIMkTXwooCZI9Hn5KTbaW+/XM96bZpTl2ZwSUHSREi73qfLnhTwwy8ijypOtPb6wIKJUPVNC+Un9Bpggm1PqyT5RlWuzNfDrZwde4c9OAlknAAg3hmitH9VxyNex7YuD6YbXG9de+w5wXCeD6WbePzcsVgPWjE/1wfBebg1YBVp4w7q/hWgo6HbHGy7GxPwNhE1oPkrzBfTpRecqmExp8N0jBFYfIs9Kbw/uaIi35FvjR4YqjDJZ7CvdxlBXRSjww52pDFcHfGtB6NTVMhyqPcjQU9A33Ih355O+hQ+XCuH4Y1xAlxdxO15yjd/NTsueOih17iw/w/H3y/aj6ZS1/9m3yY+rF/iJ/CioNIZ+CPSxDpHFpK/S0vySARmfGZPvEzpTWdPIo8+RIbc7zPNnjrrRlCseUeXIkWvYgyc6eiV5yzXfn34SUH5Z88+EtQMszT7geoJBAM9Tm68m7fg+55+gosPQgBZYcJE2Ols8H9BYEaR50P+ROivpLeM4AN22ungJLgymg9CDLAnJ2K/Dg723JUdwUoCUC1nfOnit8WNCIwJv60wBYIv3AFHABoOC/AmAhLWcZsGBSbnOibWddGPTQh9ifuVc2H3M1bJr+7Rc38j958cNdscne3eq6w5yyXdlupCnQsuYxPrt+MxcPe3D5IdKWe5F7sSf5lwQx2XZ0epTeG7hd4IYV9ReTd75AGAVwJbekykrQUtCamp+mwxXH+EGDnw7ggQcNEToxiR3aUkl/KVM6ANa6Km82c+QGxnnsK/bnB9gj15N8CvewhpXYkszaFLIeYHKNTI3Qo57H5JEv0EXA04OmpLSltl3hhxu8MyXQymi/KhxTagVo5bnzbw6VH5EdGqClz/Nh0NblepG+wIfwZ3K94wYTdhENRnv+po8i6qP4vAHwAGUO2uTpSVukJ1Q4gVmPYxFh7hp/xton5ImGPwZbZYQ4PGgJgBVFsoDlZNCwkEpjxJFaBq4Tu2RNRTjdlyONPwka2c9hH7Q14/6UPiOi6PzQjf69fxf7wZBAHXB684LW8NQIeeX7CKRNA2XDr/gAP8QlA6XUPdGzppSZ9LYM1nQAWEcqj9PYjDIQwqzxLvLlm901R0PdE92rHjhLQQumDEwbPDgIjJiiE/RO9JJvsZ8wbp47PR3rWDWuCFp4cOEO0JZ50p2uu6uOE3fk9OaSBg9ukY6gSeL3cttGgxY0KHDxMM/iFyVyU6SZxVnm6EGW4Ohp8rTklutOT17Vyx6PP6G9JQcYEHHdqwarZY+zdqdDgxYc5d4nwlcBFjSib1ycaMdV08z0FcD1gxN9aYgqimDFPqyfBIf9L9GGvnJWA6AiYBVqaOdtN/qnlzMDFvr/5o/NDVq4geqG6sizED4MLwL1AUUNUWIHNyse1H3FB+hszXm62XWLkCe3tGSaBf965jXpcgWzTFugN+vfwRxudd5hDQGmSEpr2qr72hLQAjBCi8C88YB1jJvP6UM+I8xTRH8vNyWuGlcKWuj3VNWZVcdId4DTBnnhWJhqnQrltx0BtGCeRtXHSKe/6v2DnofLf2gwpdNar6w6Rrojoy1T8BdWeBE0RVtsDg1a0LL+2BNM//3D78taEYABDvb/JLqQW5l5gBGBC34qmJNfGqKKACxUavjqP070W7wLuVmQ+CwFLyRK78h0pb+7CpFGEQi//t2V/E9esMW12dA+oHWEN0bxww6HKpjv0C7wjyz6f+D7QnWL0zVnqHmkWXG+ec/zhRSVMj1drAtXPE76BZzb7rk6vuFDyo+sWiDEEtAqflHKYAsQOlN9Xtq94nv4v3R5gtM5sCR4FVl2GbSKBB+PJQUew+oiBLOuxJMqBytlx95w0CrQ8nVtGGmUnZ+4E3mmeKZwH7jn6dgMFL+Tey0frCBNgQdff5iXttgcGrSgaYl1rKQE0i9+cqJv9+wi50eWRfcYuPI17GBn4NouAJbVic8wQXM0XNnhP4mu9LcdQqRRBCzU2vrWWU+hSVunLjxMs3s99zlZel+JP5sF0LoABHCyCiaSEFV63Jsje0/GNyeQrlwAAiV/jdwP4TtirSfXixBSl26WgBZyIQG4cL5DQ7B0O1gWwr+Bz+rVu5XUAhG0WHPKdae+N+ZD+vDL4Tzwm7y+AtlpbDRoYW6euV5mqRR9b/v5HsDxSFgHrcLU1jTSzPcI/3HUnDN1qMXfOTRoIT8RFRt2n46ib5086bNtknpW4FH5OzPqA5SkWpDcexwDhzk0rs/+vZO+dnKiP66YNi+N+2HwK9TQ9igXrqXFNbUMqUNw6v9jh4Z8z0RTyt2tmfA6OT9JneOdXD76UtNldlzjZnTJ1jCAwYFb9+rJipsPCdSIQuImh1aGFKHohlizDWYKNB72tWRrCPmQ0s0S0DpTc47gfIeJCyqHJePiGH2+D4+L691nxDMSQQvn7ZGjo1cW8KXggGfQKtERfFxy20aDFua3u8CPQEkxtcHZjgR1aN4HigPMFgBgzYzLjnuaNaVNjSv9zuFBC8AFMxG+rb/v0HzICYS29L0T/XBsl5BeY4EvisEtR0PbzrnQH+luQi0sIwe+MVCJnxn0CjT00xkX+twQaVzWsH7aQd856cj7ZDgdisughFuPpDLesu8ReYIWAY0L0Ubc+MamHCJpoADApNz1yI2d4j6Ne8inwXzj6hIwTYu0q0iKloBWSNlhdiw7P3Ll6KE14+Jc4MA3DgJIQQshfktIniCcbgrQKtxrNsgCAu4H0Ao0W9Wj5XXrsqZ1quq0TZ6FTQFaDFxhCaQ9fJ6rL4iRvy8MZt62Cy4WFeNjAIJ5V2CZWbkMWEjhydHQ9yErI5Ffbt/JFIwfNL60+0w0g2tQVOonA1riHRjXGM8PJTQaaF2IMIobErCZ51OkY2A7UXWKNZ6ohhiypEU2RPPxcOZLN4tBCxpetoaOV1o3LuaGsYenhqXDcvTvg9nq2KDV++Y5RwQBmOYoDzhmtwpati/BjCoMrkEnicHKQFnglJ3tTvRrnAG4LNScREAy9wqAc3rgRt/tEygNYgQS/C74sLZ77ic/gxkLcLUWtOYXFmlufsHQ5mlhUUijWPGkOPgHRBDdcj24Hj40qnJJsUOYh0crTnDECd/VDNXa5GwsAa2TVaeFcYu0BIewLTZH0bQsKV8DFj5oDCpobWDCNBzzAC6w2gEYy8TQn4Qo4O9prkIU0EbAhQjhX7fc6J+ezlztQTQHoemhIWeRq6RKaouZAq2FhUV6OTJKNS0ddK+oii7dfEgX07PoQupNOp9ygy6k3qCw9FuUdCeHHpfXUmNHD72eMO1jsMWDuN4+xqbHyCPHU4goleiooL9oRZcxDbGCQ7xcT1mdt1d8t9YPloAW8hpFR3zmU9uE2zcStK4+vcYgDBC6b2Ckm5Jf03CTQFcpUTWtDa3yAOCCj+s3n4CV7PgfnejrnU7WF+lTADhQIFCh9BsXAwfL4HBHgUGAl9P+o3TgYsKKBGwlTWtyapryaxooPOMOHx8QnsQaGQAOS5NhJSOx4XNQdCoFRqVwulFAeAKDW1VLh8NqYS/eDpBbjgeDFlj0FUZh/ezeHAYPOONDyo4sJ+WaeuDMfWcJaBX0FS6Pi/QSJDWvd9tI0EICOxjzAC1T7HrxHG913V72panm4QbX0wJwoXLqNu3elcCFSg8eQu0rqyozSIHLQGnAohV/+8OY0rCDvv6PC7kFn2aNDyBl3Iw1rfaefjqTfJ0OxqTTweg08kfVV0vq1xuWYQNA43cAscird+nFq5W+HfEGtcXrEi3RmIn8OKUx7nbfF6J0ee7kmu3OKR/SY8GyZ02sUOAClfTLM66lvzH33hLQEvPqYJaC6Y16X+vdNhK0al7WspxF8DdVuhvpS/6lQZySg+NV0Npg0AJQwCzzOxdL/+vqvXJpL9TA2m0oKWNFhQb4tpYpDREuQsUHA1semhXoFv/40510Ry4oApaxptU7MEQHowTNCZqUUKL6EmtVxmBn7jOADutLHou7QsNjKzlL630Qxd/jIQh7EkHhDVGcwgJgMLc1DDeSV5Evr/mIaN/R8uO0KFMnPrP9Kuf0IdLoXbSbGkeazHXN33eMdlCXDIvcEtBCBzc7b3EuJTRA1LtXSjkxnkznWJcse30jQQsla7R5es4J1RTqVmm00nO43JLE8uaS2CpobXwRQPEBhxaC2lr/+kv7AbgMVIj/DTJUarCAw8WAlSfwuH487SLU49ompPcAsEBs/c5Zz4tnwKcmji/3Ck0r6Y5Q4zs+6yGFYCHb8CT2W7X19NHT3n6KyrxLARFJJvuR6xv7UDUWvjAx2Vd6o9riPdJzQEeATBDpgw8K9ZbARwLBE8nTiKhhyStwteCABxABFPDaNCzPjEdNqWOVJ5hGAD4X0mpABXg20c21m8TEXJR+QW2pvL58ulgfzlSJe92ry7BYClroFw55pJxA48J8sYoQEnrfzk0y4x01sd7MveXFMbDyUFh9BB+b1XlrlUg3ErQwGfDIkHwN/hr+LCAnaMdTC1NMV8CfCOpZIdkcyeGuj92ZU6VqWg6gaYkPNYBLf+wiffO7Ky9owc5yANcPTvTDSRdhEQozHC5XA6Xh/4KFVB9pHS4A1g/uu2n3WYHSII6r9ArQSr2bQ7Nz83QsLo19V8FRKfT85Qdm9ejEW143EotoKPWjtB/nu/9CPA0M28dMZNBq3MO+E+T9wZHN+YfZHlzCBGVM4L9CVAqaFQCI03zydYR0HVMbAA9lX9Av/DL4HTQBhNqDyw5RUJlQ0gUUBXyvr/UlnyY/ui9TjBCgtb8ogPsCK//FpHKFWIAtHmRhXGEFIfDKQKbEuAfLDvGiHCL/SF/rw+PK1RMDaPkV7ee+ULrl5bshU6fM3yW3pvLxON/sHvmsgeTWND4GmQOmVuNBEcPdxXtZdvxnUaQlVGfYX+y/XK3Bt9mP/3AahxuZIwW+Gc5Rbns9jbxQLx4blRvMrR+JPxTXHHfOS91X5G+Wp4XCggBYyP5E5Um5KVi9b9PwtJQeYuyH9uMecpYXpFjmcKGY3zYn2h5umgrBVRruu9F3fruECKGkVDNMwl/0BxhYYI6amoP4HUAr7V4uTc/M0dG4NF4E5PildAYx6dUJT7/FTnjxd5a+wkyEltbc1Svtzmbvoflc77zBPhBdvhf7gvCvjX/3D82L/8nhFPYs8KbIxhhOnLZkEuBtwaG8vzSAAQ/F8tAAUNxqfLhvAKVf0T5KakuWrSgK0IL2oC/14TpOqNVlaltYmucaVP5lQRxRQxFAvfG41d4MxgDRhLakVWx49A/Q8i8JJG2pnkEcuYrmtvT2DD4e8spVqJWV1iYcoy3RU26fafCHlni0+jgDu3hNeGm3Wl/WdiPro1hzHHr3irAwCeZ6pOKo7DTh90MpIByzt2i/WdACI94t24M8SvTMvzO3ZFzL6zbWbtH/meqzsnOwdueWAC088ACuXQHHDXXeDVVIDSbeb5fl03WwFNhfWW70D508pQHJ2ijHbClgYR4iaM3MztGxS+m8Cjf8WnDIixu0pIORybR/DathA7T8w5OoufMDgVPs15avuBlxg6Iq5Z1n99ikimmII7TE5iTK6rpNJS9KyTi9xtI5TM69o9pXdXSn+x6X9AUtAiTVK+2Z9Lgnm/APbSqvDeYxxkY53743/RZHBmGmogQxxkU5ZJhbsTxuBte/Qq7cpImVwAGWvW966enYUzZt55cWzJ7yyPQIH98x3kEo1yK3weRGnzjGnLaD3wP8q15W09XO63xN4priCdFCaVllVJgAhw59GqcjiXNYWFrgCqc4pudNL+GzqQ3jwseI40FeNbchIIDKFjg3U9qwuX6k328Z0AJggIKAhVrB4fryFwG4kB+IKOCOjJXLf4GDhdzDb5yNKA0G0qqz/zGmVlgU6ZNEEUXQgnl4/NIVpi0gYoj3WH6trL6VTideZeCxVLuSHieCVoudNC3pzaG+VyXgiBLYUqCFBxqa0S9e/quoEKi/tTNLyDcEYP0W70pfgdLw4weHO8AOpWU0wWdMRgilIGL8nkHrfi5B0xJBa++5WKY6LHOywtfmhMdYKmg54mOkzuljSmBLgZbwUGPBijj60X3PSuD63on+qXfmlJztkQKl4XMJpQEO93/+6U6ex0LXDFgYH6CV/iCPpmbmCA74Q5cyl4mkII0GRQvOeRwnbZZGE1XQ+piPhzqWI0pgy4EWgAM+KNTh+vcu/QcqBFae3oal7Z24rAzec6TRQGnAsT6nItjERB9rbQCi1Hu5NLewQJmPCinh1mO6nPXQZENViItpNy0inaqg5YiPkTqnjymBLQlaABxQA7xPRjAhVPBxCSCFAoLSpGdoWNDKAHL4zVrBSvxdUFQaJRt4WtZcyO6Bl+z/AiiJfcm9GoPW0vtFkjZ6/96aYdVjVQlsOglsWdDCAw8Q0h0N5dQbkQohaldilYZfvQ6whmNNhFAEE79zcVzhQXzlMcMS6FRCJuVU1Amtso5yzLTcyieU/iDfomiiCFodPYM0uThOJyuP08nqE3Si8hgdrzhK52rPUVZn1qqSKpvuzlQnrEpAQQIfDbSgyficjiavk5HkeSKcdMeF5nkigrxPRXI9KqTliIBgq1dQIdwOnmZTUAQuvH6+fSft8AtmoLAWsFCKBnMFWBnPE/tBGg2Oy+C0G6TemG1xGezfMu5L7rMIWp09L+n17BAzt91LQPLUcUNFSWZDlx+ghqGVVUQV7gF1tyqBTSUBu4IWHmAAkv5EBGszJ+KRgvKAMh4W0M3cErqRU0xp9/MoIuMOBUclk+/paD4WACf3wK51H0AEVRkAVjAHv/rVmZwDjjO4mDPH5MbcY9Cw5L6z9z4paI3OvSKXx27kkuPOzHKwy8UG8NIXelGHwnLom+oudfDJdj5/QUV1zdyeD37IfHDwaW/a6dkNtABA0KrOp1ynvMp66h8appk5+dIgWILq7btpanjaTcl3chiwvE5G2Ba4LibQf3wD2VTUhAiUhn3nTfuP5ACITUEZDUvuWHvssxS0UNoYC1AEl4bQ3OKsw9ygL1+PUefzAerqk2/dL15yzTFQRjbLdj27iE6m3aHjqbcpu9w2RQ43y7lvxDztAloAq+DIZCpvaCEUvrN2e9Y/SGHpWQTT0VYPPh521vxORljFcJeOD8CCliXd97HfWwxa0MCy3Uhb6kllL0qtvQR2Ox6aNcrssNwuCLwznJPY9l+4RIHhiXQkNpVS7+dRU8fqhVrtNjkiauzoppL6Fiqua6bX45YVYLxTUL5cA62gusGe01P7JiKbgxYAC45oVOhczwZGOaol2Bq4rPVfSUFJ6nCX7v+Y7xl8LyRQ+7NBGl8YVjQPRTMRaxPaKudrPddT/C006eDYdNp3IZ5L9IDHtqLFX+VKFiDiogZZYGQqJd3OJhRS/BhbxJXbdCLtDh1NuMEAZsmYKmhZIiXbHWNT0MLyWQcjk2jo9ZhNZjg3P8/lh/UnIzdUuxFBSc7xLn73sV53n71E+lOX6NnzYTLl0xJBizPsc/X0enrEJtdkvZ2AwwaSrX94IrsOHpRU0cOSam4PiqvobmEFLwzif/EyJ5QD3ABqcdfvE+rp23uLv/lQmF9YIlmaKqWClr2vysr+bQpa8EMV1ZpeoRbDQ+1GgbyBV6/N3ojwhcFk2G1j57y1IMMRw3WQTq0dT+743WdiyftMAvmcSaCpqXl6/raHS4+gNIsIUsavMBHdC7VUZ6MFJVbePtZ/EkELdcZu5SubrS9ejVD4FaESBrTL4Jh0qmxss35AK3+hgpaVAtuAw20GWtCyQqKS2aGudB6obhB77R4FhifQ/tBLdCA0nk3J2tYOpZ/w/isP8jmqKPcgf6x9G20aArA8T8SS94V0irz2mOVS2F8gLIKKctGSyKHxe9RTQr10R9hE0AIIwYFtapt4+46OxqVzlBclp2Ou3aMlO5NnkZ3AmmBYInX0Ktfoks5b1bSk0rD/e5uBFrQsAJLS9mbyHZdq8Th6kXzPxDADHdoTfGD4bW1bp9JP2begtzCaKDjLY1kzw1qEGGMPc6rWxwFDHx8LII3HAWDpT8aS1/kU8jybSC+GBfM7rOAQitYAABXiSURBVC6cPMo8TQIWAAygVWi0Qo6isO38hTWghancyi9j3xZoKyFRSfRueoZniJLTfUMjXFzx7TvTS7NLT2lxaYkj2X1Dw/xbLNmGMjeIWqJ8UFhaFtcrQ8UQRAJBZ0C1WbG1dffRiFG5aylo5VfVLw8HawKrKgEIo6/eZd9cdnkdQYu0dht785ZqWp7S/eIqpgxlPiqgx2U1VN/eZbG/b3B4lIG4s29gWY6YB5QJBBCuZxdz3xgD/U7POk7UWSovm4EWHOa4IZW2xqfPmFSKCJ7xQ+l5PJyiM+/S1PQMTc3MCq94Pz3D1RJanvVy5M8UcKBfAQAjGaT8wy4z9wuRKIznczrKwAFbPb7xfOQ+wzyU22/pPtSHB0MfDx8eiBUN+xTa3tAE2hOaQj6haXQgMoOau4W6XD3j3eRR4MlVRY01K+PPmxm0KpvaeWEP1B6DmSgCRmFNIxNy4dQXy1sr3XvS/ahDFhydSsExabxkm7Du5DwdiRUS2TGGeE0RtEHVEL5uuHYXL1NIbAY9KKmWdklS0Cp90kIAxpu5pRSAKGjCdTocf42DCwgsgGgcFJlMUnBb0ZnRB9CE7hZV0qHoVDoYk8b+vcPxV+kQGpLxI1PoxOVMLntkrgR3/E1okekMytAi5xcW6EZuCQVFJpHYJ8x2NOTQhqZnMVgbTWnDP9oMtEAgNbUcPNAcNwSARbwpxFcADkzFo7FpXO2TX/E+No2OxaXToWhDiFwBOLxPRxHM04iM25RfXU89L14S/pneTE7R+NtJ/ieBPyTx1mMeW24O4lxs/QqHM24AjpaFJXCgAgUALWm46f3Dkulc6j26X/qEJiaFCBqqZx4pP8K1v40BSu7zZgatqqZ2rowB0IJvUwQt+EUDIc/odL53Xo3KF9czfsJwD6DO/qG4DNZU8P30zCzfZ1h8RHr9cb8aN5ipj0prVnQrghauNVKyoAUdTxb8cYdjUik09Sa7QdA3xuB7IjrNrI8OWmX0tbsUHHeFgxK4jw5cjKdTlzO57BHmhqohiLTC3Ma4phb7jbvxgELiMnl8aFJQMjBP9IGl6o7EpFJAWMLyHHGuh2JSqe+l+eqsKwRi5w82Ay2k6ECYiPgpbdUtTwlRId2xcAYZqfYC4EIfq1sUp/hIbybpe5iNALaG9me0tGQ+WRiqMRZGBchK+7HHe9xkx+Mz6FFZLfW8GKLJyVmanyFamDVq2CfTcKzxUn3d4110ovoEl9qVAyi5fZsZtGACBcdcYS0nKCKR4GYQtyv385g+AQ3kYelK7Uc8Rvo6PDrOHDBeYzIsYRkAcd+gbv/ribdsxoFHBk24vKGVg0YASLHhOFgD0o1BKyqV7ydobNCmLqTcoKbObjbdoNGALAv+4cW0LAo0rHN5ODqFlExb+O5A9QDAIhXtQNhluldUQa9GxxhkMYe+l68I/l7/iCSeL459UFwpndqK9wgyQNvDvX4q4SrPMzTtJtW1dfKfOwjeYxNvqayhhQ7HCMvd4Vzg9nlvwbO1YjA7frAZaMF0AwseNr+pDXQIpPCERKWw1gWzElrSWkADgAXGPW4oazb8g0Vm3iFL/WRrmRsAK+b6fX4YxLmNzo1Qw0g91QxXU/WrKn7Fe1MNx1W+LKeszpt0ruYceeTp2PkuB05K+zYraOFhP5N0jVczCopMZcKxVJPAHxDM6qCoFDp1OUMx40KUf3ZZ7fL6kyn35BeYSMj64Ih/KimRLfYh9yoFLZirUVfv0dSM4HszPh6aP4ILgraVSrUt8kGohqfPmIQLkxSrOQFAlbbbBWVsJqJCLrRzJZ+ZEBlN42cNAIfVopQyD+CSCYxM4uKVUDReDFnvh1Oa73r32wy08GDD7Iq4cosWF5fMzgv/MNXNTynlbg6z50V/lJzPSw404KMKiU62GrDEiXFkKjaNfV1y/Rvvk2qFxt8Zfw6ITKazSdeXHaTPJ3oppimGl3zCwpm6cr1VTVuh55Qc/BYLPiiBk9J+RwQtpjzkKVMeYLJdeZhvWPzjEmsc2RUrU2SgjaAOGf4gUEQRbHalDQAISwCmFGrs46GU29ZMeYhK5eR7+KtA0zG13Sks5znDLLueU7zqUPjE4LhHFPNgVBqlKgCs+EMA+YXUm2zWQStVisqKoAXNDWYrANTUFiPOISadyupbTB36Ub+zKWjh4YX2ctPEzSh3dgCQkifNrDoDjLxOrfZ7SYEBAIKIo6l/HzDqwcqXmhPGY8PJi7EsASRL03fgZ8BDUd/WxcM1jzSRV5EPL6Hkmu/B6wkqgYu99jsiaAVGJjNhtKmzh1N1kK6DBl8LTMLTCQLAQJ7w1yDL4t30alZ82ZMWdtTD7DHlU23tes5mFADuTOJVmp+XX8BhPaDF2rWJCLp4/yEYABMUPqPY66vXdBTNWGhj0LK6+02vNIR+KxrbWOOE6Xnycsaq1Z9wDM4NYx6MTqWrj81TYB6V1bC/C7IF6ddRNpuDlhDFi2ChzFgZMoWGhpv2XPJ1Tt9RqvbgfSqKTidclb0wEGxjZzediL/CTsXgyCSO7kjNClH4M3NzfByAUgqKcu8tZcPjHx/VLObnF+nN3DjtKfSzyv9kD+ACaBU4GOUBdfNh+sC0w8MuNjwgaGI9fUTrYCIqmTyT76aZH4goGiLGeODltuTb2Rx9w0ObW1EndwjvWy9o3StS9imJg4JeAbMWc0HwyHhr7upZPn+YvXMKhQakv8N5w5mOP0w46+XktQxaMelU1fxU+nPZ9wBC+P8wT0tATrYTO+y0OWjhgQdwwVcF8FnL+nzQkuAn8DkVJcuEhxMdTkm5bWR8gsEK9brgKwPAgRtW2STPpr76uMgi3xaTSy1IlsbDhygNtjtdd1jDsgcQWdMnFlUtdZCkaZGnhXsEEUGA08qWzKYe6AbnUm5ypG5yyjQPCyWOoI3h4YJ2YLzhngiKSCKY7YiOiRFI4+Pwec2gFZ3K2lN+lfmEafC3cH6YL1j/xltxbSP3BfPRFPdR+juY0zB/+Rwjkqmte/XyXgxa/IeQTABGc1t1SweDIOaZ8ajA3OEf7Xu7gJaoqcBPBeBA3hj8DbMmIotyZ1xY3cCgI+Vn4WZHn3IXBX0g5OwSco7reKGWF5rLofOKJZDLG1stAy0GY/NcLYAWoj7YztSc3XAtCytBa3I9qHdC2d8jJ3t77RNBCxopHliY+KX1LeweKH3SzL4TOKERZp+2sDwNQEDQ2lLpVELGqgh2TvkHB7w5Ttd6QQv8MXObOdCCecwaaHQq+3zN9YfvF5YWhcgkEs2j0wkyNN5E0ILsW5+tBjXj46GNQXP7pEAL4LXnbCzTC8Clwnp/UJ9x0SyhJ0CIiDRKKz2gP/xLKZkBIM2BuFdc27Tc8qrqFS8SWNDmfGgiCFtiIgK0km/n0sL7eQoqC+ZqotZoRbY+Fs774LIQWnxv/2Rj45te7rMIWnDEZ+WVyB2ypn0oJImHCw+ZdCFbOOBF/xh8ROYe1vWCliWlaSwDLazclEopJgjbUkEtLi5ycQForZAD3CzGmxS0LEkG3/KgBW0ImhUc8cYNJho0JPiOUGoZ70G4y6t8QuNvTEcw3k1Nc6RDpEXgFWTTCQlfx/jiWPMZ/gWk+mBOIjgpvVoKWil38mhmaYr2FR/gcsi2BiJr+tNVeNGD7tXOXmtkZMtjRdCyJPfQmnGrmuCIBtM9nRJvC7mZ+D1AiukFBgf8nIIDXhzLEUAL2hoc9TAP425Ydu1AXUCAAQEOAJccKKmgJWGnI8cP3BP4mVBe5H5x5XJD6REwdcFmFoEB2hK0G6TvIMm6pK6Z87/EG8f4FflnADuACUDraFyaIinP+LfmPvcMvOR5SU1QZdBCXXjT4IYHRwSt/cX+Gwpa0LL8ivbSm9kJc2L4aN/bC7RAthRTcZCQL/qtUu5+cMDDTDS3OQJoNXR0M2gBfDjSuSAf6ZSey+uJNxQYIUQbYYk8H1pd9lkFLQlowW8k51AUhQpKA9jMu8+srv0OLQyABM6W0tbY8Ww5/YdBK9Z2oDUwPGIxaAHMLAKt24KmtZGgpSnUkluBB9UMmmeKK8ndHvvtBVqYK8Ly4CmBIQ9tBYUDcd/BOY0cVEtIyPE3HghVHsLtV0/LnHmIktT+HAkUyKL9FqTRPGnrZC0L0b5jcWmyyc4qaElASwQSpaxwqOTHLqUrEjkR6bt086HiMwKeyl6UOj4rVG/APynSKeS254NDDIBITVBsrcJ3qEkPpyeAyBwYSbUvU2Yia1prAC2XbA3Bab7eBrCCSehV5E1FDlKORnqd7AlayG9FdBC+IPyJwn8K3hIoFEl3PpiM0vkYvxfml8YRTHMlk8TfirmHMOls4dPCmgmYP+4l+Kdu5Jj3/UVm3mbtDOeKFc7lNhW0JKAFPhWWosdNo7Sl389j6oH04Rffa4+FLdME5H7/rP8lm4YALYALfFDI45LbQFLdFXyOnf8iy176CvqD+5GLbJpiPzQ9cR7WvMKclAOvtYKWW7Y76XI9SZurW1PzyNESmn9ZIMU3xxOqQDjiZk/QwvkiUg3QwrUEXwmmEpzzSgx4YxnBtYFUHFzHa2bqfYm/tTVooV/20UWncU4hUnNMBRAKaxqYT8WVQ8ISuMyOODfpqwpaEtACkAAAELJW2pDacDAiiQBQcNSLQAItCw76JzLRDrEv0CVwvMhcB09LadUTJGxHZd4h9yOhnHwNQEUDOAGwkCyNyCKqSkBDtAaojI8FaInghbmhBS77tN6Rpeahe4mOohtiaXTmNb2eNt9GZ0Zp6N1LGph8saq9nbUuD1OU8cd6tTdoIWoGZzTACg2mIYjIphL5pecOKg1+D/InfES388sYMFBXq+P5C+rqH1xlZtoDtDiV59pdLhODnEI8OyV1TSsCUDB3Uaoa32O+yCdUSuHBOaqgJQEtPMwAFYCFqQ0kP6jsyKu6kHqDM+ER6VHiXIl93S4oZ81IBA0A0NnEa6QUCXo3NcPFzFCvHoCKVBAECkBCRCY7NgAs5gztTezXFq/4h041RA+tAq36GBqbHqHRqWHTbXqYXk8N0fv35vM7Rfk50qu9QWt2bo5Oxmdw+guuJ8wrUwx4Y9mAOnDpxn2uV8XmWQy0rg8EWNTHMma9A7QOQjuLSbPIPETpJGhFqKCAVaeUNrhALqRmMRgJUcFkLtcEFj3MRwSxMEf4sQBYl7MemgTnSzcesKkMnpZcdNF4Hlue8gBwgMZUo5C1biwQ2O3mipbhN3CmIrkTFSREUIFGg9xDRB1NbaiphcUz+4dGVlRqFH+Dmw/aFuYu9r3e17WAFigMbtka0uXoSJujNdl0OVryLNBSw6sPFTLF89kMrwm3HtPRxBt0PDmLrij4XtZ7HiAYgy4Awin8n5Y44KVjwjeLe+Ns8g3+wwMooD+0Y4k36V7hylQdRLdR8wr+JEuK+/UMDLF2BKBBpVRTGwoLXM0uZt8c6Bwo/IeVggCe+D3GPBSTRveKK00CFsaAsnAsOYsL/jV1mGfEI43n0KWrfM5KVTFMzd1e39mUEQ9ggSMUC3Haast8VChb+wpgExB2mUvmrnUsrMmISIsluYeWgtlaQQuOeJc8d3LJXdncCrVc7A/J1vjONc+DWfZPXm3OJe9R8rezb5DNLFut2mR8/eEMh4aFBxqUh7VuSI2BWwNm4dNeoWHuxiAIugEvPvt8wGzlBMwFaWrwycLkHDThB5bOG3+8BTWNzJCHRYPigHC4I5vg1Wv5fEvp7/Ee+Yid/YPUgXLLU/Klc6S/ARey4/kAX6/BdS4JKO13ve+tBq2C6npGeKWHGPQHgIkpCoMlk4aajjpBXIVBQRPCd4djUghcK2s3JFDDXLSUWKp0vsb7AVopa4geriKMPnJjjpd7jpZ2F/gJUUUA2mMNuRdpqX54c4KWtdfJ2uPxRySQLFPYRGxVKEFjbb/q8Y4jAatBC05sRFeMH1bpZ2hcSHaG4w//UnAqWry9J+ro7Wf/GBz25kif8G+hSBkiKEoFzYzHhk8B/1bo35amIWQA0LryoIBml6YsdsSvAiyYi4VaOlxxhHomemh0epRye3PIPV/L9bQYtF4pVyowPt9P6TNSeMCAR0DEVAmaT0kmW+1crQat+qfPOISMmudSoDJ+DzBAlA+Ru4vpWQRmPKqawiRAjStUdkR7826KhsfGWb3OqaijyIw7DCTSaKFx38afYSoCgBAlwjhQ1aHCT04JC2VgPNTWqmpqp8tZj2jfefla9cb9ruUzzJKHxTU0+36K9hbtJ7cCrdVF+2Aqago9qN7Ib3WxNoy05XpB09qk5qE9HyD4SeHYxh8HTENLkpftOR+1b/tIwGrQgnMbCwogxGrJQw3wAgABVOA7EhewQFE3NNR3hx8M2hmO44iegjlobjxoXQBKgBhCxKhrhWRZLJCBCKI4DwCpub7W8j3GQOpFW1c/LdEiBZQErSlhGouvuua6UffEykz9hOZEJo56FOuo7qX5lBT73DKO0ytMfFSDgL+ntauXo2eIjCHah/sKqzmp29aTgNWgBREgbI1wrbUPNgAMgMHm4+koBjG8t7VfCeMgZQggiYYxmJhqRNOwdv7mjgdgIdwumqkxjbG85qCc+WduH7hbqa0py3fc8NQr2lu8nzSFOtIUaKlppGn5u0/1zauxcSaQgokOAik0LDQAF5asU7etKYE1gRaY7wejhGJt5h7kT+V7EBnBxK6R5FBCU3LP0wpJ04/crDITxbSe0NpQSm9NpX1sanpwrfiAkkCaWjBdGG9r3q4rz2podIwLCSL8Dz8rtH+UP6pqbl95oPppS0lgTaAFCWAdQfy7gcPyqQCT0nmiAic4M6j9ZbyV9heTR6GOwQZmnzkNS/o9gMujxJO0ZZ68Ag/8Wag33zaqvDKL8fhb+TPKZWOZLlRFgK8VtARxBeqtfN6f+rmtGbQgOAAXFh1FZj0iNlhFWenB3mr74b/CPzscvjh3VBhQKmzY9rqNTteeZo0LwKMp0pGbgXe1K3s1kLGWlevOVRpwLH6D4y88CaWeMdXs+dQf2k/9/NcFWhAeonJYBglpMmAg4yGGv2urN2iZWH034XY2dTwXlqo3dTMtLS0SVuZJa0+joNKD5FO4m1weuy1rUAAmbmVCdBAJ1LsL99ChskOU2ZFBbaPyNe5Njal+p0pgK0pg3aAlCgU5faA0II1HaE+ppmUrtg4mzsIsGR5fW3G9xaVFej09Qk9H26nmZQ2VD5RTmaFVDFRQ3VAtPRvrpPHZ0U2bYyjeF+qrKgFbS8BmoGXrian9qRJQJaBKQE4CKmjJSUXdp0pAlYDDSkAFLYe9NOrEVAmoEpCTgApaclJR96kSUCXgsBJQQcthL406MVUCqgTkJKCClpxU1H2qBFQJOKwEVNBy2EujTkyVgCoBOQmooCUnFXWfKgFVAg4rARW0HPbSqBNTJaBKQE4CKmjJSUXdp0pAlYDDSkAFLYe9NOrEVAmoEpCTgApaclJR96kSUCXgsBL4f/wNolqjFLH6AAAAAElFTkSuQmCC;" vertex="1" parent="1">
          <mxGeometry x="1290" y="783.5" width="301" height="101" as="geometry" />
        </mxCell>
        <mxCell id="ujFVM9XAjsb7zgqNAqnT-22" style="edgeStyle=orthogonalEdgeStyle;rounded=0;orthogonalLoop=1;jettySize=auto;html=1;exitX=0;exitY=0.5;exitDx=0;exitDy=0;entryX=1;entryY=0.5;entryDx=0;entryDy=0;" edge="1" parent="1" source="ujFVM9XAjsb7zgqNAqnT-6" target="ujFVM9XAjsb7zgqNAqnT-19">
          <mxGeometry relative="1" as="geometry" />
        </mxCell>
        <mxCell id="ujFVM9XAjsb7zgqNAqnT-6" value="" style="shape=image;verticalLabelPosition=bottom;labelBackgroundColor=#ffffff;verticalAlign=top;aspect=fixed;imageAspect=0;image=data:image/png,iVBORw0KGgoAAAANSUhEUgAAAN0AAAB2CAYAAABMH5Y3AAAgAElEQVR4Ae2dB5gV1dnHky+9996rHSlbaAoCgqDYUKMx1qhBQl2WHmOJERMTjTGx0lc60tTYNQYVEKlSF5AuUgSWrbfM/L/ndy7vOlzuFgTuXq9znmfuzJ05c+bMe87/vPWc+YjCFFIgpEBaKOD7vtg+kpanhQ8JKRBSwAEuBF3YEUIKpJECIadLI7HDR4UUgAIh6MJ+EFIgzRQIQZdmgoePCykQgi7sAyEF0kyBEHRpJnj4uJACIejCPhBSIM0UCEGXZoKHjwspEIIu7AMhBdJMgRB0aSZ4+LiQAiHowj4QUiDNFAhBl2aCh48LKRCCLuwDIQXSTIEQdGkmePi4kAIh6MI+EFIgzRQIQZdmgoePCykQgi7sAyEF0kyBEHRpJnj4uJACmQs6X/Jd+/DrHziuu8EOzpm4t+67whwhBdJHgYwHnS9PUtz9vkcWA1MClnYewHmKMzVXiRs8+YrXG7BWTrgPKXAsKZCBoHsPKIAI0Die5/DFD9cBYuJq4te4Iue9BOh8zwGQ6yHqjmUXCss+XApkHOh8H84UkwdW/KjifkRxz5Pinnzfk+/F5XnxxLGfAJjPNQ49yfM97nb8jfyO67HP8mQNGXxNzoUp8yhgbZURS/B5ni/fiyrmRxT1PPnxKlX6VapyXC2W4GIpaUjniimmuKJxT1VeVPC5BJODL354QFdVVaWVK1dq7dq1bgGclOQKTzYoBTIKdFTG8zy3+XFAFnHEqZD0dmm5Vm7bpTnrt+j5lev09JvFevbNtZpTvFmLt72rTfsrVOVEUSkSB2aALubEUwTUbE7G0bZs2aKbb75Zl112mWbNmpXNr/yBfreMAx0Viscr5fllKvekGa8Xq/tDT+icO2ep3c0z1XLQJDUrKFLjvuPUpG+RmvefoLZDpqrzbY+p54OzNHflZtcgB2t9H+g2qrPyBjo43OWXX65LL71U//nPf+q8L8zQMBTIGNCZicSZTbyoyvy47py1SE16PaqmAyeo+U0z1ahgmpoNm6GcoTOUO3imcgdPV86gqWrWf4Ka9RuvE3uMVk6fEZqxYM0Bah4QLGvUbbJL7FyzZo1++9vfOk4Xgq5hAFWfpzYs6Jye7+yLTuvyfF+xAwBZvmOfThsyUR1veULPr9muVe/sVfdHntMpg6Yqb8h0tRw4Q/mDpipnyCTlDR6v5gOmKH/AVDXqOVJnDnpEa3fsdq6GuJ/QBRMWT0jCQ92DD1hC60Omhs1DIyF2k955550a9bUQdA3bTvV9eoOCDiAkXAIJK6PvxZTQ5aTni7erUb9H1b/o5ep3eXzuKp3aa5LyB81S/qDpyh00Wc0GTVL+gPFqXjBJ+QUTlFvwqE6+/j5Ne2WJuy/qR+X7zsSSMGQm4B3AngGw+jEZd0AjYSAZP368rrrqKv3jH/9IWccQdCnJknEnGw50fsLl7dze9Htn7vcVw1cg6akVm9Vo4FR1vWOW5q17Wxt37VO/ES/o1MIJyh2EWDlNuQMnqXnBZOX1f1S5haPVot9o5fUZp1N+92+NfnaeKycGkH1PcT/hYAfmCa4H5zjgUsi4Zjm0QiUlJerTp4/OP/98/fvf/z40g6QQdCnJknEnGxR0ie5/oOP7Usw3e6X09MrNalL4mBr1n6nmA4vUZshYnVg4QXkDJiu//0TlDJisvMIpatVvopoXjFWTwtHKLRijvL6jHOjGPDPfERu/nnP6xUE1p/gB2Gz1t2tCqNpSXdft3vrmI38wb1lZmQYPHqyLLrroINAF89QXdMF7rF617VPlT3WupjJqypvqPOeC54PHNZX/QTtv75h2Px192HcecDo+ehed+gD3kfTy2m06fdgUnX7TbOXdPF2thk3QGTdNVPshU9V+6AS1HFyk3MLxyi8oUvN+Y5RTMFo5/UYrv89InXzDvzXqmQSng7/FD5TPM3G9cy4BobqjVYxAR6vxD6cc0+PoVIiXBroHH3zwoH5mZQZB99RTT7k8du2gGw784VpN12s6b+XYddvb+cPZc2+q++287Q+nzA9CXnuvtIKODh9Bz4pVSV7CF1fqxbSzokw7ysu1s6xKG/eV6Y2tO7Vk8y4t3LJLi7bs1KLNO7Vgyw6t3Lpdt8+cq0a9R6t5vxFq2WeEcvqNUYveo9Sy1yM6+YZ7NcJxun2KxdcoFt0qL7ZRcX+nYn5cUa9Kcb8ywQFrZ2CuUwQ7xq5duzRv3jw9+eSTzhf23HPPqbi4uLqt4/H3uCfHdu/WrVud07o6Y9IB+QDWu+++6zaOuT8Wiwkuhw9u4MCBuvjii3XPPfdo37592rNnj/bv31/9DEB37bXXHmK9BLx79+7V5s2b3VZRgeczkYJ1pA7ktTpHo1GtX79eAHjmzJluv3r1alcnu9/y2n/KCw4W5eXlWrFihZ555hlHL+i2aNEiVVZWulvIyzsml2PlZeOed2VLK+jgajGv3Dm/d1bF9cALK3TVv57QuXfOUtfbZ+n8P8/W+cNn6eK/zNQlw2frkuGPqdudU3XR8Jm6+I6puvyOInUZVqT8vkXK6zdSeYCuz2jl9h6t/J4P6sTr/6mxTy+WIrNUvu0aRTYNUPmmHirf+gd5+16RYuWKe1VO16utUa0j0PleffVV/fWvf3Um+W7duumCCy5w23nnneeMG3//+9+1bdu26uKMsHS6+++/X7/5zW/0wAMPVF9PdbBgwQJdf/31buOYRCf+05/+pF//+tcOULgEABYGlV/96lf629/+Vl1UEHTPP/+869i4Dm6//XZdd911zod39dVXq3///po6daoikYhrfHtPqzMFApQ///nPrt7nnnuueE823gMHvNWv+uFJB9SF9+7Zs6cbBBCLoRk6Ke8ydOhQR1NuC4LO6pJUXFb9NTqnFXSOuXhR7SnbrxsfnqNT+k5Wk8LJajxoupqyDZimpoVT1bT/JDUtGK+m/YrUtN84NcUh3mesGvcZp7w+Y9Wyz0jl9hmr3L4jldf7YTXr9bCa9XxYx13/D41/ar5UMUGR9Z3kr++s2PouqlrVQSXrLlO07CUnZuKiSIi1h7apNf727dt11113uQ5OpAcdmNF64cKFev311zVy5EjRkQEinOjtt992hdloD4cBSHTY0aNHH/qgwJn58+c7YNAp4aYkQEd0yX333acePXroiiuu0IABA9xz6dRBf5yJlwDy7rvvdh2bjs59vAPnAMEll1zidMOHH37YlW/vavs5c+Y4YF944YXuWTNmzNDcuXMdt+PZnMcJDx1I9q4cw315T+rAe/DM//73v467UQZ1vvLKKx0QKeN///ufK8Oe7f4c0Gcply2Ze1qe5L3lp6zk8pLzNuR/q1/aQYcWd89/5uq4/lOVP2S2Wg59TDnDZqjZsFnKGzxdeYMeU+7gacobOMUZTTCc5BROVG7hWOX2H6tc9Le+jyiv90jl9HlIub0eVF7P+9W010P6xXX3quipV6TKIlWuP0/xdWcruvY8eWs6qWJlW+3f9Ad58VIdcH2lpD+EoRHhJACmb9++bvRPlZlOBfAQ/f75z38exD1KS0vVu3dv18nrAh0gBlRsHJPocCS4wZAhQ1w5NXFMA90111zj6kKdX375ZSeKukIkJ6YOGzasGtwAIZhWrVrluCKDCO9C/YMJKyriLVyWetrgYHn+9a9/OXoBbiJkUiXEVe5lEOOdEJ+TUyrQ7Nixw0kbRNwAaCSAp59+WpxPTqnuT87TUP8bBHRwl/V7y3Xmn2ar8cDZyh/6pPKGTlU+26DZygVwA6clLJUDJii/kHCvscovGKe8grFq3m+UM5o06zNK+b0ediJlbs8Ryu/xsHK736/jrrlHRc+9KpWPUaz4LPlruiq2ppO8VR0UX36aylZcrGjZm3WKl3T4W265xY3sw4cPr24jG1GDIzAjOp2BDk/HtYTOdTRAR+cfNGjQIdZL6mLJQIcICGDQ+yxZnfkPl4YTwfFGjBhhWRzAESkBHBwNgJHsXoBPgpsVFBS4+8kXBA0iOJwQupFs8KIMG0A4B2AAHfR66623XF7yJIMFHZK8lHnCCSfoIx/5iNs+97nPqUuXLu74+9//vrvOAIkaYGXY3hWeQT/Uiy2tnI73/+/q7Wo2cJZaAbKhT6jpsOlqNmyaWg6YofxqwCUc3/n9x6pFwSjlAba+Y9SizyPK7z1Seb1GqcXvH1CLng8qp+dI5fd4QPk33K9GV/1dLy1dIe35u2Lr2iu2tov81R3krewkb2UrlS9ur7Kd0w5YTWtuDQhDJ4SDsadT1JRobDo7HXnChAnV2d4v6BA1gwnQGadDRLMU7FgGOjozOl1NCTDi86OuDBaWGCwQ/eBijz76qDsdLN/ysZ84caLLB8dBHLWEbov+9sc//tFxZzvPPlgWOiXPCYLO8gLuZ5991oH/S1/6UjXQDHAf+9jH9MUvflHf+MY39H//938HXf/kJz+pF1980RUVBLmVnQl76MCWdtCNnbNKJ+NzGzLdxVE2GTpTjYdOV4sBE5WPP65wghMnmxVOVNOCIjUrGKem/caoWd/Ratp3hE5l6zPKiZM5v39IOT1GqHH3+/Xzq/6s6+56VGXlyxXdcK1iazoqtrqr/BWArp1ib56hisWtVbp5uORHa20DCFNf0K1bt87pbnT4v/zlL9UAPdagC75AEHRBXS+Yh2Msh4iYgCMIuilTpjggMHgsXbrU3VbTQLN8+XInUgOcoLhroMPYYpzRnh8E3ezZs6tBt2HDBpeF648//rjOOOOMg4BkYGvSpIkbAE8//XR3r51v27atkyaOP/54dx+Gpt27d1eDPPhcq0tD7qkPW9pB96cpc3RC//FOrMwbPENNh8xQzsDJyhk4XnmFiS23/6M6tdcondz9fjW64T6dev09OuX6e3TSdXfrlGvvUqNr7tLJV9+pk676q076zXCdfPlf9du7xmvD9jXyd96nqlVnyVvdRvGVHRVf3kn+ijaKL2mvyOI8Va3rJd9npl7NCcLUF3QYUDBYYBxA9DKzfCaDztwPRgGMNQwaN9xwg4JAsOvBPa4T9DZEamhkHbs20AXvxzgEYLGqEk+KXnzmmWceBLaPfvSj7j/ci+eceuqp+vGPf+xASd4vfOELjuMhvqMvM1gAxO985ztuQLABA/Bb/YJ1aKhj6sKWdtD1feQpndR3vPIHz1T+QMK6pqhlf/Q3QromKqf/o2py4wO69PbJunvGfI1+fpHGPjdPY5+dp1HPztfYZ+eq6JnXNOaZVzX6yTl69OmX9dLSpaqofFP+jr+pcvU5isLlVrVXdGU7RZd3kL+svfzFpyv2ekvFVl6vuPYfNdDt3LnTdUIans6Iv42UyaCD02EUscQxoOvevbszuHDeOojlsT3vR2dHvAxyNfQqyg2es3uC++nTpzu9slevXg5Qn/jEJxxgAJqBzTgZ13gWeijn0CNvvfVW3XbbbU4ctnycP+ecc/T5z39eiKBLliTib4PPzYRjo2naQTdg5FM6qfcENR00Q3kDp7o4yvzCScorHKtmhUVq2uNB3TH5Fe0u3yLpeSk+U4rNkmLTpOg0KTJNqpoiVU6UKsZLFUXS/n+qasNvVbWqvbT6DPkrOyq24kzFViBWwuVay1vUStEFLVQJ6Ly9xwx0gJB0OKDD95VsvbROgk5nESlBnc6usz9c8TKZ0917770OdL/73e+cE50y6SCpEqADMICUzm/6U22cDs5j3Oe1114T/j+MIAYa9DO2IPCSAUhe3h+9jeeiE5IH3Y9BA+DB6cgHBy4qKnIWTnyoGHxeeOEF8Z4YetjIM2rUKGdcsnfgfYN1TfX+R3KuwUB35/RXdHyvccoZyDZezQZMcWFdiJQn9RihP455TlGtk1c2XNGdlyn+9iXyt10kb+t58recL2/TufI2nCN/Qxf56zspvuZMeas7yV/VUVrVQd6q9oqjwy0/Q/6yM+QtaaP4wjbyFrZUZEETla3oLR8Hfeo+5WgKcUy8vOOOO6o7TCqC488z8RJTvVn0AEt9rZdB0KUypBwL0AV1OiyZgAiOgtWQZCBJfmfEaTgiIiJAs1Qb6EzHQ9/CxRI0ggAcuJMBz4CYCnRwUWj62c9+1nHaT3/60zrppJOcfgrnhduh/5Hnl7/8pdD5WrZsKQYTDDCU/fOf/9yJs+Qj4IC269q1qwMu0T9ZCbrxc9fohN5jlDtwrHIGHBApC8epWc/xOrNwgt7avlkq/Zei2y9WbPvlir/zK3lvXyBvy4Xyt3RTfNMF8jaeJ3/jufLWd5a/trP84rMVX93JiZSxVe3kLT9DWtJOWgzg2suf31b+G41V9mpTlRXfJPmReoEOcQnw1dQB6XCEgtkEUkzcNmrC6eAIlMGIWlsK+umSQQeIDXRHOsvADCnJnA7uYT6wumI333jjDSfaYQHFkmkpFeiC3BKRr2nTptXczUD1gx/8QGeffbbQ3z7+8Y/rF7/4hdsDEMuDm4BAA9P9TjnlFN14440uH75UBgFoxICBoWbSpEnufZ544glnYYXbYeRioPjyl7/sfK+AFW4L98S4hM4IFybR3sG62zse6b7BON2ctVvVrGCMmvSforz+49WioEh5BaN1SvdHdP09T6oyvkLRnT0U33mB4u9crtjblyq6tZu8zd3kbeomb+MFir91rrx1Z8sr7iyvGG7XQfHV7RVf0U7x5e3kLWsnf1FbeYtaK76wtfx5LaS5uSp7panKt40njLhW+hmnw28Fp7MGCO4NiJi4GWXphOPGjasuF/M8oOM8Yg3JiG6ZrLzaQIfPDNEJ8AathcGyjlS8RCRmxAeM+NtqS7gUqAuWQuIzLdUGOown3/zmN6sBB6CMsxEe1rp1a2cc+eEPf+iOmzVrVp23efPmTlfGmAKHAzhYaHFNfOUrX3HtA/1MrLf6MOgRihdMcHRAh+8VsBKtg+EL/yX1YBCBrlkHuh37S3XuH4vUqNckNe87Vi364fQeqeO736s+D85STK+oYsfVim2/RN7WS+RtvljxLRfK23Se/E3nyt9wjuLrzpJf3FGeEy07KL7qTPnLO0nLOkrL2ii+tLXiGE7eaKfoglaKzGup+Jw8VSzspGjl6uq5BsEGCR5DdDgcnQvuFUzBzk6DEUuIaIaOYaIZ+bmGU5tr/fr1E1Y/SwY2+88Ii/UTX1kyp6Pj8AwGgKBIGKzHkYKOetAheV+siqwoZin4HAYS4jepCyCzgYe8qUDHeWZGmLEEMdI4GFwMDgbX4tz3vvc9/ehHP3LHX//61/WpT31KuAIAmXG/9u3bO1oAECzF+fn5juMF68qxSRvUl3A8ElICPkoidaZNm3ZQIIPdjyWU8DmCzo9FMlqm3ZDCy9w9Y45OuO4e5RTg9B6t3L5jdOL196vv/bPkey8p9vYVigO4rRfJ39xN8c0XKb6xq2Jvna3Y+rPkresor7i94qvbKbbqDMVWtJG/rK38JW3kLz5N3uJW8l9vIX9+K0Vfz1fstXyVzGmi/etuke/tUbwWfY76QRxiLQECIzodB1N6sJPRmHAe8sAhLMIjmAfOR0cmDxzE4jOtQREdiUEsLCx0+lQy6KgHiSgTIjPgnJjZLdn1owE6BgUARaf7wx/+cEiIFToq9eD673//ezF7IpgMdHAg6/QYOACUbYDOREY7x97ACDi5juj30EMPOW7Ef8RK6AtHZBBk8OncubM7JpwNaQC6Gz1sT+AC4WpE0iBqogOi97Vq1UrMEqFdaR8TqaEx9dm4caN7NcqxsoLv+n6Prbw0g45lzz1tK63U1XeN1/HX3a0Tuz+gE7s/op/95h71+MdsKTZP/tbL5W1LgM3bnOBw8fVd5a1N6G7eqnaKr2yj2LLT5C1trdiSlqpakqfIkmaqWJyjigV5is7PVXR+Y0VfPUWlL/5cuxddomgpIWARxVm8thZLCsQBdIiNKOFYFgEOijw+LToT3AuwsSGmwJG4jw5nDUVHRTxFxGRDhEO3oPPSSc3QArDRC2sC3Ztvvumu0ykQNZkuw3QdS3BY6ggHwslcU0KnIzgb6yF1tmT1xdEPB0H0oq5jxoxxHZLBAyMRgMMtYg50u49y7rzzTmeQgCuTgoBDLER0RGejU2PU+O53v+uODYTodXC2du3aOemgU6dO1WBFWmBmBDMgEA0xxnCdOjGYwZlSgQ79btmyZa7d8AfC4QgEWLx4sZNkMLZQH+oGTaHt2LFjXbm0HSn4ju7EEfxQFltaQce4HYmyDrOn7fvLdN/0l3TdXRN05fDxuvTmh/S3ic/Kj7wmf/Nl8jdfqPjGbvI3XCB//dmKru+iyLqOqlp/hSreulklG4dp34ZBKl83RGXrh6iseKj2Fw/U3tV9tH/ZjSpbdqNKlv1OZYt7aV/xEMXKXnErR0e8iGKsi1kLt4MwgA5AARo6I1yNjkgH4DwAoYOiB9gcMQAXbHzaBzGTPHAROgtABiAYAgAx+glRHhgK8PVhqLBEPYxzWofDaACAg6ImuhWdnfrQuWpK1JP74JjBIOzgc3AJPPLII67jUR/elwGHAQLuY5yWe9gsMeuCPKznQj46s22IjpRhVstGjRpVG0UsT5s2bZx4Cd0ZmDiPcYW4y5/97GdOVKfOgA1uimGGQYB2gEZsvJ/Vj3rB3eCEiP6mqzJD4jOf+Yy+/e1vO25pz4cmxqEZdBjoSEZ/e88j2RvN0go6IhirWPnLRdAzidVTuRdXSSSqkmilSqJRxcpfUGTTpfI3dZHeOldae6605mz5a85WxZoOimwdqHjJ44qWPKloyWxFSx5XpORxxfbOUmTfNEXLFsqr2iwvuk1edKfi0R2Kx2Oszu5WkI55LFhUP+ulgc4IjRiDmAkwEEFsNLTGCXZCzgX/cy/cCYCg9KPoW4NiqsZcz5YcoW8NZc9AVMJNATisfEzyiKpsdDwr1+pt91o+6m35rIxgXo6p36ZNm5zuQ/2ov6Vgnewc5ZEmT57s9DHrzOwRH010BHiACZ2Na+hv6HYAg4EI/Y1BhaBmBim4ExwIkRepgzhUYkXhbuQzMFEnGzDgxHA0E/nhbICRPNAf/Q6xk4BrODfbY489Vq13w+3gfKRUtHQX3seP0S2toHN2emaMu+8SSFUea6McWLbB56s7zDN9TuWbLlZsU2d568+RX9xV/uouCYf3qraqXNlVFSvOV2TphYosPE8Vb5yjsgWdVbawk/a+3lZ7t01wZVbCJeJSVDFFWLI9ymhYJR/x78Cs9ZroBnHMT8e+tnAi8hqHSy6PayTb13QdTseIjRHD9AnLy732jORy7FrwPMepOgrngqJvTfUiX7A8qwf7YBmWh70dI8oBIgOaiY62R6QMOsXJh0MbPQuxHQ7IOQwmzPnDEAKQeC4roUEfgAiHIzETHcsojm/ET6QKgs7POussF9IGV2OAMysm9XzppZdcMAEDD89DtyMxmKLrIVKzWfC0vZvLdIQ/Rqs0g45asyARDZtYHoiPhshjYxUTX7HSF1W5vpu8tRcp5iahtpe/6qxEHOUBH5z35mnSktaqXHS6SldeofLlv1bl641V9eovVbp1nFsLBTHSi0cOfOkg8eEsPjHCsnzuye9JRoeQEuIg5qBkAzoTO4IZjYDBc4dzHLyfmQGM2og4QSvn4ZR3uHl5/pEmyjDa0LkbN27sQANwUm2IdKZHcR2Oh0UR0RMjCVyO84DLktUTowh6I23CPbgJSHA9uKA54LEY43ODeyE5MJgx987ETvRpzgE6m0iLUcziN/HZAWy7Zs+3+hzJnrLYGgB0DP1sgC8BABaG9dznQqKKlT6raPF50qqu8tacpXhxO2k5LoH28la0lbBSLj1dkYWtVbZ2oLxYsbxIsSpX3qjK//1UZVtHOrqwwpjHdxEQZd2XgGw9MPfwRB1qoCCECYKOkfZop2Bjoi9iBkfHY4mID0oyrsi7oKcCGONqqUBn1wAbkSJwLHRGxE8iRPDPQQdEaBLlI0ZiHEK3ZqIsHBFHONwIwCMGQzOjp4WZwVVzc3OdLo3VGDEUrgnXQ4QHXACNAQ/rJfXBoEK56Mfmg7Ryj0abUBZb2kFHl0985iPqPo0FIOJO3Iy4VcIi5a+qtLib/NWnyV95luKrOssnpOtNtgTgYktbqHJBC1Vtvtut+AUkKjcM196XGqvincdc+VgoY3A7ZMzqlHh6AoXVJw85gDBHE3SURweyThp8ICFgjOxYHs10Tf5MTvY+Vk+MKAYyA5b9Zw+ozIiSk5Pj9DJ0NvPfkQfQAkL0VRKAgl4kOBkGKPQ5wEJZNvPd8gBOIn8wgAAwLLRYhImzxDWAvohoaW4bAHzTTTe5doZzYiRjrh9gQ5dFVOX97B1dRY7wx8pLO+gc10l8RS7Bbdwn6KKKY1X0PEW9HSrZfLvKV7aUVrRJTEBd0dbN/GZOnLe4vfyFbeXPy1fZ4i6K7ChSbPtY7ZnbXntf/7X8yrfEB7Mc4GK+4q4DB7lb3VwL4hxt0JkYRrtxjFEFSx8GBEZ3xB46ztFs5CPsIzXeHhw80OOSo02CgAse4wincyP+cf4nP/mJAx7n8DWyJgsRPhhugnTAKov4zdQjrLe4FRAv4XDocpYQKbEU40fEt4cBxgw2uCuIu0Tfg5vxDNw2gC8Y1GBlHYt9w4EuxdtQGRoSy6LHByGr3lLplttUury9IktbK/pmvmLLWim2qJW8109TbF5zRec3VeXcE1X64sna+2xL7V58raL75zg4R7GQUlac794dPtcAFIyCKPhEtNtomqLq9TplxKZDYbKnbEZ2Am3x0REraGJlEJz1KjyNmQwIRg/EPosiScXhDHAnn3yyiywJGlEwuMCF8Beaox0/JIDEPUKC4yB+EpWCmwDuiMsAwBC5g7GFOmFwgUMCIIBmzyXk61vf+lb1f84DYPRAAI6l1XS94LvZ8dEmLeWypZ/T1fQm1ZJfYiFYz9utypKZKt1wi0qWXaOSReeobOEZqlyQr/J5eSqZd6b2vXGp9i7vq9xrOkMAABKaSURBVJK3x8iLrndfY01gLFHY4cMtoUfQqRhJaWicsUcKBGtE/EyIkZi+6XB0WjqWJctn/zN5z1INmPrpyAY45rPhCMevhiWQ6xg20JHw1REr2aFDB6eXASA4EuIiICBh6regYwwj+P0YnLBcEh952mmnOf8c+YhIMSc93BZpAfcC7cVzO3bs6GJhEUvR1+z5+EuTU7roznPYMgZ0hjlnZInD9fj4B3rQfnkV6x0Xi+57RpE9MxXd94SiJa8pVlGsuP+ucwt4fAo54fpL6HQmwiZTuI7/AMxARsMzEtrIXsetNV42YmMgwDSNQm/WNm6ifJ6ZrsavsaI1XLB62Z76IxoaR2GPZRKwoZ+ayEzkCVZJDCfob3l5ecIJDkcClNz3ta99zf0PPprn4PcDcESpAFD0LlvcFyum+eC4Dz9cixYtXMwogyXGFp4BvTGUMLeOAZTgaURUkr0Le9uCdTgWx/acjAKd+5IPlsx4VFG/KrEatHMtAMBDE+oa7j1Wi2aOnPPD8e1yCInq9n5Y3aGPOSpnqFNtqa7rtd17LK9RLwYIqx/WPwwecDSm6sDd0JeYTApA4E6pdDxERMR1jCr4x3CPoHchXqNTmcXSBjz0XTgkoMGQAkDxx7HsHi4GnNdE3yCS4oYwDgktmMoD4JOnVGEBTcXpjiX9gmVDQ7aMAZ0zsHh8p85TJB5TLFbpGjsa9RWNVCgSqVRFrEpl8QqVxypVFYk5PSgWrVQ0WqlILKYIy5HHo84B7kJQ+JZ5HZ09SJTw+FAKBOmHsQMdCwCgK7FWCZwL3YlzTL+Bc3EMwAinwljBUg44wdFlEfVYYAj3CM5tEj4xztlqakgDmPPhXoiROLABH7ocPjZcC1goTUdEDwyugQmXJEwMXS+YCLkj2oRkAAheP9bH9swGBZ1VAvHKiVgxrFFVKie6oLJSVWUVqigtU0lZqfZW7FZJ6V6V7CvVvn1lKtlfolK20jKVlpWqvGK/M/NWVkRUVVWhKKAl/AuxM40ixLFuuHSVD81MrEbERmzE8sdsbPxfAIsNsKA/YRjBz8U5OB6TYnEyY1EkFpMOz4ZulpwABwHSzLbAbUL4HeAEuJRHLCazzhEz7blYJdHTMEaZo9xEdOpOSm53OOOxcHonv09N/60+DQY6q4DpM/FYRLGqSlVURlRaXqH9ZWUqKd2jkn27tO/dvdqze69279ylXdvf0c7t27XznR3asWundr67W3v27NP+kn0q279fZaVVKi+Pqqoqomg04rgljcFzrDFqIkp4/j0KmM5JiBomejo7Vkh0IsRLDBdwG6yPWALhQFgGMRZhkkd/A6hwtODkXqI/iBEFaLQHXAlDCD44ysafxnMAHWIlfjN0OOqAAYpAAoCJfzMYvUN9aWMLB6NsXDCWyAsntRhRO5/OvfX5BgMdL2uVABTmc6msAjTlLkyHaAMaB3kf5R3CIUbseOcdt+c/52lIAnIJ7eHeiopKR3AagMYIQff+uhbWQFtbBNAhRuLcxkKInxHrIRwNwGDmN3EOIHKeIGLcAUwnwlVCPONXv/pVZ9QAjIiP+M4wqmDsQPwkdAsOB2gB9iuvvOKeF7TyBt+GPkQb2yDBjBBcM9Tdpj+RB25tjvHg/ek8tv7eYKCjAiT2jFBGOMDHCMWIRFQAILIIekAIuIIbQHsPbBXVYKOcEHDvv0sFLZToUIANkGAAQa9Dd0O0ZEoSESlEiCDmYUnEgEHbkdjDrYh/RFdj2hCcj2BkuBr32kx1yrI5g0xWJc6SZwGkmpJ1ZLuOGwarJ3WwPmbXGnpvdW0w0CUTwCoEAG2DQwEcAGScEO6VvNl1A1mQs1m5yc8L/6emgHVURLig/sTqyzbxlPNwQHQ5wIFFEM6Evoc4aol2pC3qk9DbsGpi5YQjEmiOLsiAGkzJ7Wn/GZhJGEoYGAA//YLzhIYxeJPs/dyfNP9YXTMGdDW9v1XUgGj/k/c13R+ef38UYAEiwIXVER0L4wnLHcB9iEKhYyNmomfxbQFcBRZOZW3Dk+3Y9sFztCkJ5zhmf54J52NGAfqdRYtYPpf5wE+wPPx3hNGhYyKeci/RJsRSUj/EWwDY0MnqnPGga2hCfVifz0rMgI4IEpzKiJfEP2JZxGDCrAD8c4RlYTxByiDVp3PT+QxI6HysicK0HnxvRLowTQi/G/lItnd/DvwEy0A8xXiDIx4LKPojznTcDAAx+KGTYBnpPqbObCHo0k35DH+edXD0L8K2WNrAxEzWMUHMZK1K9DFC2YJfoQ2K9bW9pj0DTgaIWZIB1wIcK2hdtE6aqiwrAxeALVgER6N+J554optlgD4Y/BxXqnLSec7eJ2tAZ41wpEQ8WuUcaT0y4X4czIRUITriBMdVANhYlCl5hrvV1zqW/a9pj66GlRKwEdJloin569MGpiuie8J5KQfuRl3xJ8LlWJaB6Tz1LbOmuh6t80abrACdvUwq4ti1VA2JiGPng/mCx6nK/DCcs05t70oUPy6aoCUxOY/lrWlvtOY6bgW4EgYUM5YYp6zp/uTzWLOxhiLiYuSBa+KQxwWB73DmzJlOVA0+N7mMdP63fpU1oKuNePayh5unPvfVVmY2XDuaHdbKIqyLmEusk+ZLCw6A9aEbehyLzcJ9ccIzYwErKlExxx13nHOi47/NpGT9KStAB2EZiREpmGeFvwhFHNECk7E1dnIDYEbG6sXiNsE8iE44ZQ93JE8u/4P+3zqJvUeQRnbucPcYWjB6YKk0UAA4M6zUtzyAi86Jm4GIFULEsKgyyZXAaFu97GjUub51qiuf0TNrQMeSaljUmNtly7wRlxcMhE0mCpHsZiTAGUxsHgG2xBHicwrTwRSwDpy8PzhX7f/gUEw+tWQd0f7Xtbdns6YleiZWVQwm+AtZGhEAWvTK4XLPup59pNftXbMCdDZKMrohWgAk/DXWQPayyUQjdAkRhUbD5M0691jouJ9pJ2GqmwJG47pzJuYNwt1spvjh3GvlW1szXw7uhh7HTAac8kg7Nuvc8qfav5/npirncM9ZP/zAg85exAiA+RjQECxrKTmPnU+1R6zkfqItwlQ/CjBg1acjB/McTpsEa2H3EXFSk//NOFzy81AXgueC5abj2OqeFaALEoz4QEDDMgH1TfiHTL8gRpD74XgkFH1GTxthg2XaPYiwtmSbXWc0R1xlDlqqhCWQGFOmrHAvuifWOGIVObZJneSBg3PerHypyjtW53g3pt2wZAKf/MLZjCjHBFOiPtDRkjuzdWzbp6qbdcBU197vudqeZ2U2pJ5u7/yBB50R0/YGOtZGrC3RkRFL0OGY6Wx+IgMds6JtPhd6IlEZjK4kojWYZMnqViyEg0JPiBR6Bs5dRFuLkmcZA0zjRLjT4BhtMGsz8ZLAXJ7NZFCiPQiFYmImkfdE7pOY6IkITD7CrtKdeB90Jd6D2eFE7xPFD/AYnFjmzjgLdbOOlXwcrHeqPHYuuA+WYeetnOB/O7Z9qjwMbuj9wcGT/MFn2H3Ham/1+9CCDpARXEvHYf0O41TBQF86O6Zom6EMyJi9DEC4j411QVDomVQJGK0z2vfBidogH5yXqS/BiZisM8K9rCHCF2bQU8gLIINcjTVHiLIw7nesOkVt5bIoULLIjYme+hrtuN86spXFQGMdnWt2bNfZcy6Yz65x3srjugW0J5dheZLPU45dg4YsUlRbSnV/bfkP9xp1YfvQgg6CMfoBOABjHcc4HZZQGpqExc2WcuPDFCRbmIcpKiTjlERrkNdmSOPGoGOaNZQybdk61mgk2WpYAI3Z0KwjQj1IuDUAYU2fPnaZ0vDDJFKkgmBiJgDxl8FQMK7zPoRnmcEkeA/HRP0jenMf7xccTBBnk+M3CReD4xoo2CN1EBiNSE4ycJEXvRwJwaYXcZ0YUgbQYEJ0x72EbmjB1cHrR/v4Qwk6e2lrIES+ZNAZp0vuYIhRgMfEPlt331aosgaiIekIdCjWBrGlDZgJbemnP/2pKwt/UnIyToloS4J7ItZhmWvIBOiI/LCEyIkEwGRUEkCAkwNEAo7h2ojYBENbwpQPTdANWXoP7ok0QVkAkRkMcFMDC+Ig66ywQVcSETGI9LgdWJMUugIyEtICoj1hZfjs4GwAGIAislMf6od4TPuQlzA36gQobeC0/uEKPYo/1v8+VJwumZgQvibQJYtSt956qwMKHyIk0YiAMDh/zNoHrsR0GOIB0cPIFwSdcUn7HJPdxx7xlblqiJwEHRO5gf7Y0Ikv6bBUOZNEGZDQSxmggom6MhHVEnRgDUoGNzZ8avhGLRGRgk+VoGT8pICE9VVsxgLGJgCHnk4CjFing1wf4PDhEqQERHCMOyRAygCGUQo6AjgmyBI8AVdjEOVeS0wpItaUlNxPLM+R7j+UoINoNKgF7NLQBjqLKTROlww640CMiqSaQMf6ioDMREfEl7pAZ41hjQ2wuYfAXWIKTdS060fa+O/nfoxBBBswKDB/jlnjwcR5DEJwPtY8oQMjivMecDIsoBiKTETkXgBMIAL3kogOYkUxAx3nKA+9l4QYiMEKYLFUBM9BV2YZQKzMgJq8lJsckI0uHVx+j+Bolp8gdhMuG6zXsaKztXPWcTrz05nY41or8ANo6MjoCOgSgI6GZDQksWIVHYVGCia4DedtNKQD8d9EEvLiQrDl6EzsxKJJPjotiQ5lgLVvowWfwzE6EXXiPqymlo5VZ7Dya9tTfxMvEdew6BLRbwn9ivoyaZTZ24h4cDI4G9wG41PwXbgPSy7LPpjuh/EJq3Ey6Ewftom1iIiEktkzCGxGVwbctBuiP9ZeuK6t28IgaqoBAMN6zYwJ5vKRF0nEVow+VnTOStAhfjA3i8ZnVCb+koZg5Sg6PxMcuYapngTQ6DwYLgwkZkjBUon4iZhiIzYckgRgmVNGWWYw4TwNjGmd84hiuC0wgvAfoCE+oX8gQnHOxLNUjYz4Rh7CmjIhwUHQeyyxKhf1Y0EhEiIioiL+vFQJMNK5bdkE8jDAwekMdHy0hVjKYML4YaCztkHXS06UaxwTnRpdGAOZSRzUHymEBL0tcgWdD44J+GxQSS77aP3POtAx0iLT0xHq2vA1YZFElLG8gIxGhfsx3Z8VjBGX4GjoWACI0ZQGBVB2H6OqKfI0Dp9lAsRcB2joCvaxRLgwulHwXluHMblh6ZBwzWQxKTlfuv4DBjpmMKEj8S4GAlYAw+hji8jCsRCvGbgwGpEX3ZgELTGE4ONE3yPhN0WXtc9gEZYH7dhIDKoMWCyUhL5HgmPBeQEcq4lZ4plwTaMv7Uv9ABmDJgMoA7KlK6+88iDx084fzX1WgY6XgSsBGgAAAJH/aTSIzp7/XGNjYSPcBRgyyMvGvabXQWhEPL6mw8pVQRGSBkMspDzuowz0CSMo98JhsaTZqA7A4bQA1hY8pR5Y0Sw4N7lxse4F4z8pvyESgxBiH5ZGBg1ERuvwmPeZu4ZhBb2IvCx5ju8SaQLJAp0JmpEQ7eF2fEQF+mDlxL1inA5aYCVF5ITrYOWE0yOW0g4ABhEQzscggDGEZ6DDIcIiScAZuQ8LJ5ZToxvHGHXQRRkkeDb1gDPjS4UL0j4ku8f9OYo/1keyTqc7ijRKe1GM2mwMIKwPGVykNe2VOfBAOAaiI9ZBNoABiKxjwrEAH4CzxCDFoBQcUCw/AxSDFQMSAx0AM7GQ++GOiOymX/EfmgBMQGcJbsrAxeBpiXpxnoHWyrTnkoeBFK5oRhMGQ/IiXqYjhaBLB5UP4xl0bPQ/dEUmYuLfo0N/0FOw0ye/C2I+g0sqgCTnre1/bc+wjl7b/em6ZnUJOV26KF7Hc9DdWO4OvQc/no30ddyW8ZeTAWEdj4pjgeR9TafjXPB6fV7O8gefk3wczJN8zZ5Zn2cdaR6rRwi6I6XkUbwfcQydD/9hNic6H4MKBit0OvREM+3X972tA9c3fybkszqHoMuE1vgQ1oEBhmgedDz26IvZnkLQZXsLZ+j7WcfL0Ood02rZu4ec7piSOSw8FQWs89m15P92Ptv29p4h6LKtZcP3yVgKhKDL2KYJK5atFAhBl60tG75XxlIgBF3GNk1YsWylQAi6bG3Z8L0ylgIh6DK2acKKZSsFQtBla8uG75WxFAhBl7FNE1YsWykQgi5bWzZ8r4ylQAi6jG2asGLZSoEQdNnasuF7ZSwFQtBlbNOEFctWCoSgy9aWDd8rYykQgi5jmyasWLZSIARdtrZs+F4ZS4EQdBnbNGHFspUCIeiytWXD98pYCoSgy9imCSuWrRQIQZetLRu+V8ZSIARdxjZNWLFspUAIumxt2fC9MpYCIegytmnCimUrBULQZWvLhu+VsRQIQZexTRNWLFspYKD7f10Ypb/tSReEAAAAAElFTkSuQmCC;" vertex="1" parent="1">
          <mxGeometry x="973" y="783.5" width="221" height="118" as="geometry" />
        </mxCell>
        <mxCell id="ujFVM9XAjsb7zgqNAqnT-25" style="edgeStyle=orthogonalEdgeStyle;rounded=0;orthogonalLoop=1;jettySize=auto;html=1;" edge="1" parent="1" source="ujFVM9XAjsb7zgqNAqnT-7" target="ujFVM9XAjsb7zgqNAqnT-5">
          <mxGeometry relative="1" as="geometry" />
        </mxCell>
        <mxCell id="ujFVM9XAjsb7zgqNAqnT-7" value="" style="shape=image;verticalLabelPosition=bottom;labelBackgroundColor=#ffffff;verticalAlign=top;aspect=fixed;imageAspect=0;image=data:image/png,iVBORw0KGgoAAAANSUhEUgAAAGEAAABhCAYAAADGBs+jAAAeXklEQVR4Ae19CXQVVZ53BVC/r12Rre12bHdRp7u1xx5n5pue6Tnjma2PZ8ZuBYEEWxuxG4J63AERsAV3IWTfIeAyCCjaCIIQIQkhCVle9uRlz8tG9pfk5S1V7/ed3/9WJQ86KtCaBE3lVKpSde+tW//f/e+3bjS/34+JfWxpoE0AMLYAkP4TIIwDSTABwgQIYy8KxoM4nuCE7yYnGDDkxY0Aq8yA3+BucoZ1DCin6gRyDobqD98LbNM/1J7cZ5vSLsucUm6MgRhlTjAAvw8+kIA6YOhybkCX6zAM6H4/YKjdb/DUJ0TzgQDwAkubRGRzfj90+AVYGF7ofsAn93WwWcOvq/I61N9ge7r5iEBQx+58lEHwgyQkoYQKQgxyhtBHACEBLaKSO3R4ACG+WYe09bOERwBhXZHrcqIITCL7SWwQNFYYbpNcAXk+mx07wgfqolEHgWOfxFUs4Ifu98Dv95I3zB3Dm98PH0e3oS7JwSpG4HSSWm28zM26zUqK59R11jWbAXHQ9fEjkkYdBBmZHJ0GwQB8fh/69AHUulyo6XehYcCFuoFBlLsG0DzowqBHh9tbD6+3EB5fOTy+Unh9pXB7K+HWndAHOuHproDbWQ5PTxUGeqvh6qmB4e2Hb9CJ/rZ6DLRWw9XcgoGWZgy01mOwqwtewwMRZGOsD8gRYwCCkkTkCAoNjt2S9h78IioV14QfweyIVNwY8TlmbNyLJ/YVUKyjsnIl0o/9DTJy/g6Hc+9EWvYdyMy7Fz40wHFkG7JW3YHil/4WtnV3omTtT5G37p8x0GpDQ9on2Pbz63Dgzuuw/+c/xt47/xo7br0GRdu2mFzzHRVHfhJeFKqphKGj1+tBSlk3NpX2IrLCicjyPmwq6cRBx4AQy9n3CZo7w9DWvQknuiPQ3rUB7Z3bAbjgbrahNzMW7qwkDGbHwnMsAn1ZWwBPGzytNWjYGoPOlCi0p8SgPSUKrUnh6C8vFPAD5fJYno86J/BlDb9pplJD+/040d4CR0sD2tpa0NXSghNtDnS0NaOlqQF1tXVobGiAo9mBpqYGNDc1yt7kaEZVQw3qGuvQ0tyG5tYWNLW1wCG7A4319WhwNKKlsxMt7V1o6WhDS3sbmjo6UO9oxODg4JCJO5YA8NmjDwIMUZBiIQE4fDgVSx5ehCVLFiM0dBke+8NjWBa6BKFLQ819KUKXLsWypaH4wzJefxyhSx/Do0t5vhRLQtU9df44QkMfNe+FYmloKJYsexxLQpdhKdsLfQx/WLoMD/5hCTZtCMOgS3Hadw4EZecLA4io2ZqSgv+++x7MX7AQC0JCELxwAUKCgxGy4AGEBPPaPCxYuADBwcGYvzAYwQsewsIF87Fg4X14YN6DCJn/EEKCQxASPB8LQhZiodQLxoKQYMwPUW3yXnBwCBYGByM4eAHumTdHgO7p7lK6YYyV8+hzgqEseD/tTr8fHe3d2JbyNmKiopAUE4fk+Chsjo1BYnwM4uJjERUVi9jYZMTEbUZ0fDJiYzcjNj4JEYkxiIuJRkJsIuLiUxAXtwWxcUmIjo9HdEIcYqMjEBsTh/jEJCQkJiA6OQlxCfFIjE9AeGQU8o8XjAsAxkQcKWfYBxjK2RJKAGj2A3V+P2oA2WsB9Fg30QYDZQBKARTDQAUMNAKgOOkE3HbA3QC4GgBvFeBpVu4xvDA6T8Do6IL/RCf8be0wTrQAep9qeZz4CqPPCbRK6SOYypmmUkVvL36RfARXxeXgqoQCXJmchysijuCp1Eohlr3kCWRkz0Z2/k2ypxdcizzbHMDfghOZ21Cy9jbUrf8Zatf/DWrW34qiV/4JntYCNBz9DLt+fguO/f3tOPKPtyLjH27BwZ9ci4rt8QxsiEc91vpg1DmBIQOvuEgG6CMzRMGARVl3P65MqIAW2wQtvgVaciO0iEqEHGwREErL5uLwcQ1HCzVk2DSkF2g4lve3MFCD7iPRaHz6MvSsuBDdKy9C/7Pno2nl9+FrSYPjs904euWFaLr6MlRfdynqrrsUBbOmoDZxk3go/PWdA4EvLBFNigGD5KcrBti7B3B9UhG0hDpMSm5EEEGIrMaiQxQ5QHH1HBzJ13C0JAiZxVNwrEBDWsHP4IMdvWlRaH5uFvpXzUT36hnofn46atdeD2/zETQd2oO06y5F/ezLUX/TlWic/UPkXHMhajbHSrvUSd9JEPjSjOBZL09qlPX04/qkQgGBAAgIUZV4ONUhxCqqnqtAKJ6MY0VTkEluyP8pDFShJy0KTctnYWDVNPS88H30rJyBGoLgyEDjoX1IvX4q6m6agbqbvw/HTVcg/6pLULMlTtqVWN44AGIMdIIZppaYvhqQZb39uC65GFpCPYKSHdC4RxOEJhOE+wUE4YKiKTgqINwmIPSmR6N+xSw4V1sgTEP12msFBMfBffj8+mlouHEWam+eifqbZ6LgqgtRkxKpHjwOAOBgHH8gJI0EguKEU0HQUQULhP4XpqNv1Sz0rpyG6hevhacpDY5De5F+zVQ4blCcUHfzD1HwV5eiNjnGBOE7qhNEHA1luP6cE7STQDhZHBGEzKIpyCikOLpN6YSMGDSsmAnX8zPgWjkTfSumooogNB9BY+peHLrhctTOnom62T9Aw+wrUfBXU1G7WYFgicSxPo47TjgZBEscjcwJopgzYuBYMVMUc8/qGeh6fiqq114Pn+MwHAf24vB109B403TU3DodjbNnoPgHF6HOVMwTOsHM85IXAnXCmYLgzIiGY/kMOF+YiY6109H5wmWoXXMD9JZ01B/6FJ9deREqr7wIBVdfjLIrL0Ha5ZNRERMuLEgDeay5gM8/tzihaIpYR5ZiJic4M6LgWDEdfS/MQM/qaXCuuBR1q2+Ey5GKXkcFijauRfWGdah66xVUvfkybBtXoTUvXVw1pj+/kyBIjlfywSSA0gmlvTRRi6HF12NETqiai7Q8DVlFk5ROKNCQkXc7vCiHMyMcLcunw7lmKpyrL4dz5TRUrZkNp32fanyE35Lp1vVxAcCYcALDBZLZDzBRh0Fo+EIQ0vM0HCuahKPFQeI1H827DTpK0ZURC8fyK9C7eiacL8yAc8V0VK++Bf32vaY/Ppx35kwOnQFEXYfBKTbfVRP1rEHI1XCs8DwcLZ5kgvBjJkbReTQG9StnoXv1LFAxO1dMRc2am9BXs1t4YCTlyxvjBYBzkBM0ZJQoTsjI/Sl89BPoMa+4XImi1dPRLyDcAGftx0oQmXOTxhPRT+3LqCvmkTiB1pHSCV8ijnKVTjhaYnJCPnVCDTpSw1H2xDQ0P3cpWp+ZhpYnL0Ph8mvRY+oEzq459aXH299jCoIoadNE/TIQiqvmgjohs5gBvCBx1rIK74RbL8dAXTZOHN6IrvQN6EqLQmd6GFrSozDQaYfOaS2mKTzeCB/YnzEFwbKOhjmB1lEjtOQmM3akPGYBIVfD0eLJyCpSIGQX3gmPr0iU78kGkAqPU/Fy4tgECCNYHyOJoyHrKKEWWnIttKQ2aFE1eDi1QehbbJ+PtNwg8REIQmaBhqyCX8DnqxRDi5MGDMMvu85kkWHA0M2w+Qh9CByF4+F8XHCCAqEEWjyDdw2KEwQEFbYgJxyWfIKGY7SOCjSk5/0MXl+RpIb8Mml4ODwuOYtzgPjWABhnIDSa4qgOWnQpFqfWqxl69vtxJM9K6ijFnJZ/Mzw+JuuZHhs/jpdF2DM5jiMQ6DHTOmJ6kzqhHIsPEQSgxD4PGbSObOchm14zPeb8v4bXV2h6YsNccCYvP17KjgsQhhRzAkFohpbUCi2qGosPMcfsh83+a6TnUA9oktrMyNeQafuJTAxWeeLx4/2eDbBjCsKfmagJdUoxJ9dDi7bj4UPN8h2CreJxHM66FhkFP5I9LfdHyLTdDbev3JxZPSGOzsgZGraOFOEobsgJ10kArwFBYqI2iIm6KLVRvrIZdNnR13cYzoED6BtIRX//5+jrz4VH74Th98AwJkA4MxBkNjyJ5lOfSJkgXLO5SHRCUHILtM3N0KLs+F1qLaXNF24ysfgcB4Dia9TFkTUbmKJIfZ8AVPb048bEEmhx9Zic1Igg6oXIOiw6WCc6Qb5lEJOTIQhrP7eVcaDuGHUQ+HB+rWPOipdRXt7Tj6vjS6HF00RtgJZAEGrw0GecDMn5ST7QCQvs+LfpfNRBIAD8olJm38m3agbKevtwe+wRXBSRg2kxubJ/b+NhLNvPjznIDMoL/jYRPvBdRh0ExnI8gEyHpJPFT2SdXg/yO3pxpKMXaZ1OpHU78XlnD0r7BuQDPyZiqNADO/5tOh8DEBjTkWiDfMHpMQx4DM6ulq+blQcs6piBOC8M3Q1duGcChK91FNKq8Q99vWnAo7vh8xmcrA1Dws8eGDr1gA+64YMhU9jHf17gbLlzbDhBZjkEKFqJgFpEpvlKMaWioOdaMO5sgBgTEM6mo9/mOhMgjIOQ9wQIEyB8ey2eMxGf5wAn0GpVsQq+mPhu42D0WkQO7Jt17UyP4xoEyRVzMRJz48vpOj86/Po46GytL/bN2pjf/kuW7Rk3IEhElNE9vpssNkUT1iOrsWS2diHFVoGWATd03StetoQ9uFbVEAG4UgB/CJC6zgAhHUMVIrHC3WrdJHruvMnncqkT61zy1TJZiUErBba0ykWyhiLA9HMMlHcPIKmgEmUd/dIPLqhlDRCusCTvxDpfMfdp3IDAzivfQBFHVvcyvPKV5/y9xbj41T042t4vg485BBJWAGAsVqQVrxAgEo5tMFTOSC0PXICKqx/JtAy1epgsdMWvF3W1plUAWGrVAZ8QUY0LAsVBwcfTs2fgBXg63Y4pf/wT3mtsl79lCTkhujkYhPjEjkOD9QN8owBuPi0Q5AnmLwvpwGvWOVnUum8drXs8WtdGOtIrlhEjA8cPn4w8Pypcg7hmSyGmxpQiq9MlMVWOMEnuywh2D03uleCgEJ+EIkuZw5BTYEyHUCYF+7nCjPp6VHESOYdtmvpH6po9l3o+eCWWq8QO7/QYBu58LxeTNmVhZ1t3wGu6Ze2yodAMaSJLvn2xCP1KEEhYPWAauSULScje3l60trair8/8Qj6A0Czn8/mkrgXASCBZ1+QZJB0XovK4h0bbhrJWTAq3YXpsKT7tdKEbXnQZOrq9Hrh0H7w+wOszZLa1VIYfhKpi0IecPg/KXV60+0z5retw+/3wUPqQyxjF9XoV1wAY5KeILi/ynF4U9ftQ5fWhVwDhANHhkaUgVFs7G3twSXQVzo8qRHJbN1zQ0QMdTnjg4ijnvCdDh1fxkHAbRd5IA/ArQSABP/roIzz77LP49NNPBXGbzYbXXnsNjz32mOxPP/00oqKiYLfb5b4FFJeziYiIwPPPP48tW7aM2AF2ipvT6cSbG97ACyuexc6dO1Ds9GFZWh1mxuYhKLYO/zfRjtu3l+Gut0vwL++UYc77Wah1D1AAYYCLDRoUUX7srm3DvR8X4qYtebgmrgA3JhbirvdLEFPcAidD4vCBQUMu6+BinMrnRR8MvGtvxf98VIIbtuTjhwkFuDb5OG7cZsN/fViEDfm1qO6i3DdQ3ufCyrRq/GhzASYlNOD8GDtufbcKd72Xj1++W4j/TMlBYXufcJUPHgwSBFNEjQQAr50WCElJSbjnnnsQFhaGw4cPY8GCBbjvvvvwyCOP4KGHHsL999+P+fPn4/e//z1ycnKEqBZxk5OT8etf/xqLFy9GU5OazGV1hmBZgGVn5+D+OXMxf+49OJydiac/LYa2LhWTYu2YnODAJOaeI0owZYMNQW+U4EcbDqFskGOeanUQLhh4OduOiyKyoL1lw+SN+ZiRWINJEaXQNpQjKKwAi/aXoVOySV54DXKFD9QyyzPq8X/C8qGFV0ALO47LogswNSIX2ps2aBtKob2SiuQSlWBak5qPC17cj8lRlTgvuR7nbW5EUHgZprB+WDEufCMD6W1qVQ4VpPRyjTnRS19kiZ0WCCkpKXjggQfwxBNP4OGHH8b69etx/PhxOBwOGf179uzBsmXLZDkclmlvV4qKaFRVVWHRokUC3CeffDIEkAWEBVZiYiLmz52PJ59+Cr19fag60YPPqk9gzme1CIqsxCXxFQgra8eBxi7sq+9EWv0J9NNclWHmx5bKZnxv0zFokVX4jw8r8H51O472evFRQzd+84ldrpOo67LqRbX6GMWFgQPNPbgoKgdaRB3+58MabK85gaPdHhw+MYjNle24f28l/m3rcZQPDIo+Kmrvxqd1nXjqqANBsfWYEleONfkOHGjqwh5HN/Y3dqLT4xWjQFlHyoCgoUFrLfC9rfMvBUEoBoAgPPjgg7KvXr0aAwNqsSbrPo+pqan47W9/K8T+4IMPhm5R1q9bt0645dVXXxU9wZtWB3hO3UKRNm/uXMTHJw7V5cnzWXXQNhVhWkIJivuttR9NGS8KGmj26viHrUXQwmrwj9tr0eim9cIy1FU6TviBf9peCG2THTcm5sM2YN0HXs+pgrbRhsuTSpHVowjNOmoz4IQBx+Ag3Aa/8rGeD7xT2YygiEqcF1OAve29J/WZf9ASEmvPJPyXJaVOGwQSmDvFkXrIMKr8m0qYAHFxqDVr1sBLhWdu5ABep7iqrVVsbXEAi+Tm5mLhwoXS/vHjeaoWCQzg2YxaaJtKMC2+FDldVNhUeJzyzlNV5n+rmnFBRBnO22DDO/YTIqIGqSPoU3BJH/gRXtaKyeFlmBRZhOgytXAJ2389q0bE1bS4MhzqJDFVDpzrMRl+L7w6Fbeb2l/8Blpl3JJLmzApshLnx9iwo8W0jsTsHB5g1kD7quNpg0AiLVmyBDU1XJFIPciybCy5Hh8fL7qBoqmjo0PK8RfFU2hoKObNmydK3qpvAUG9MXfuXFH+LhcJPUzgZ9JrRdZOjy/B8SEQ6A8Ml1mZyQVJinHVlhIUuKgnhq15ripDqPZ3D+B70WXQNpZiVaaa7U2C76rvxMWbyCVV+Nedecjq6hNLlW1Qf3u5vqrPJ5zAvy0fIam0CUERFaMLAkfyU089NSTvT0WX3fv4448REhIiSrisjItE8UXUaI2JiRFCk0v4UtZG0bZ8+XIBaOvWrXI5cJQLJ4QVY1p8MY53UVyQE0wQRNgA83baoUWX4dJttfjvfXYs3FuOhXsqEby3DAv3lmLRnnLcvasGF8TVQIurxrJjDUJon9+DTr+BRw6WY/Kb+dCiKnBFQi4Wp9pxsK0HLhMOXQdctMA4V0pXfT8JhOZR4gRaRM888wy6u9UDRwIhLS1NFDgtprw8JVaoE7jRaiJA1C0VFRUWBqC5y/K8XlTEqe7q405L1FggXJ5QghwBQYkJ07IF+ebfdxRCi63GefFN0F4vgPZ6PrRXC6G9TgsnF9prNmivlEOLKIP2Ri4eOVQtytkr4syDTt2D9ZktuD6mDNqbxdDCS3Fx0nHc93Ep9jc5FRQGnUJaOqrrwyAUYsdogUBOIAhdXSMv3seuBYJAOS8ENTmBDh3rUyS999576k0AbNu2TczdFStWoL/fCksMixqlE4pxeUIpskwQ/MIJIo/ghh93fVAALa4GV22247ksB9ZmN+Cl7Ea8lNOAl47X44Uc7o1Yf7wBa9Pr8FFlO7y0jnRArCS/WwIR+c5BEVW3bCmEtrFMFP2lUTl4MdsuDqDMDlGMDQEhsgIXxBbi/dECgaP48ccfR0uLUmojccKOHTtktFMBV1aqpdOscqQ6iU/Zv3LlSrjdbng8HjmfM2cOtm/nYrPkAhVDOokTNpXgsoQyEwQaBPwMSjwgcdB+s6cSWmQlbnmnBFz97nQ23e+G7ucq89acJokySdWKAQ9ezmrCDxLyoMWU4/xNmXi3slXu0crhNiYg0E+gw2WJEou41pEdi4yMFBOVnnRnZ6d0lvctvUCP2hI9VPDc+Td9j+rqarM8A29mxFIcqQZom0pxWWIpsrqV0qXVIkv/m6bkimMsU4RLoguQ2qY4FbpXBfgIlnxPpcJojHRyiX+JGVmzODi6GezjBAMJnSsR+oGjHTPi8qFFlCNkf7mKKJkWWWJJMyaFV2JKZB52OdS70i9QT7EsRxVL4+LpnPBGY8KiV+DxtK0jmqcEwnK4TrWMKEqee+45MUXpF1jKN/BhrPPyyy+Lz7Bv3z4cOHAA5IJ169cpoGRwkxMIgiLEk5n10MIKcVliMTJ6CAKDbypaqmJFBnbVteK8SBu0sAq8eKxRjVVWpwFAojJgp+KpCmix+ZWiVePaNEtlGo4XHgKo+2Stybt210F7swZ3f1KnYqemjttc2oqgsGpMjizEew6lJw3es1Y1E5HJ57LLw2HtQHpY52cEwu9+9zvxmtva2uRlAn/t3r1bQKICJ4Hl2WZYwnoYr/Hevffei7feegsbNmwQHUGrSjbSwpydp5bzB94oaoW2sQQXRJbh7RrLEze1o6yl50WL34N/3VEMLaIGV0cXY3ddpxq1qlXzt4FWn45MRzvaBweh64MY1N043taKZq/yJcRHkJpqANDcvfpt6oZKPLivTO5Y/fpTXRcuiKzGpMhi/LFw2O/gwwi4VzejuzJrXIFzVgE86x2ssAXFDEUHTdVDhw6BZmh5eTneeecduU5uoblJC4qEt7jFOmd7zc3N4rQ9+uij4M72hh045gaUvFeZAC/S27pxcXghtOhG/Mt7RfiwrgN/auzGjqpuOAYYHGP4QcenTT34fgzt/RpcEWvD4oN2JFd3YXtDFxKquvDsYTv+7v0i3BZ3EBXi8fvg9htY8GEW7thsw9PpTXi3vgN76k9gj6MdCRVt+OX2UmjRNbggOhtbq9XAo84iWJUDXlyzuRRaVDFuebsU26oYTmnH/1Z1wN7rht/vloCfn5OfKaQkl/DnoX7S5rQ5gQG6l156ScITlOMMytGBo4iisqXVw7gRY0XcrNE/0pERVyp6gkbxRNGlypnig6F9ybe4Meg3sOgAg3B50CKqcP4mBvHyMOu1dKR30G/wwPB5JG3yfm0HbtqcLc6dFlYOLbwIWrhNZLoE4l7Pwx3JWfI/GuBnyM/Ab3bnQnspB9qGSmib8nB+RD4mx/B5FdDetOOS8AKszKwUK8zPkL68HGsCf8yohrYxSz735fMmh5dAe/kodtmpIyjSVNyIhVXw7i8EgWKGMt/lconlExsbC5qVTz75JFatWiXcwNzCVwHA+zRfCQCB2Lt3r9RhJ5m9oiBg4oUg0Fulwmzy6ViRXoU73i7C9Sk23JKSjQf22GB38V+98L+18JcSUTZnH148VoN/31WMn2zNwQ1bMvHjrcfxH7tK8NyxOmSe6IWHUysNWkd+ZHc4sTqjGv+1owi3p+Tj1i02zN5sw9+/U4Tf76/EJ/Xtkt2jrFf5bWbilNzs0YFX81vw/97Nw83JOfjptiLcs9OGIgll6wKCMgLMpNLZZNaEOmYA71Q/gfdoZtLjDYwTBYqgkbiA9T7//HPhIpqylskryXLzHxExt8wXVdaK+VU+gDavF9VuNxq9HnRDze5m6lI8aKIn5ocarcwdNLs9qPd44fB60SV2C8fvIHQMwGcqS+sde3UdDT4vavkMjxtNOv/TiNqkP2ZATjJw/IdM5v/t4Sjo0H2we92o93jQLQNILedD20KJS76P2T2JL1nWkzqetjgiJzCx09MzvIK19QI8nkrwkcBgOV5nQogijIp5qJyMLnaKekGFqGklCRCkhlg5wifKctI9MlubjhvLk+UZuSRxuZ6RWE5Db64yY4aPAT0mgDjRmKNTTTpm3B/yrQS5ydw5amUigNUn9ssSJyo5JOYsLTCxmAiwMnXF/D0pmGflwU8mvkWzswbBamCkIwlr7YH32Uf6CswvkLOOHDli9nvkzrGuAokEoQ3PUU/CkZC8ZkgacfgZFBWqDAkkcphmp3CLT7xj5ZwpHNmW3JNZEsPlVBuWE/fFfbP6J30cIb8+3K8vb+MbB0GobP5iCvOVV14Rh476haGM0+1oYDml5L78xazylAPW+ZArRQtH8r2iciQszksn76fXvtX2X3L8RkCwOsQRwlAGQ9xMkVKBU6yRC07NS6gRP3ovrvp4KuED/x69vnwpCOwoNxLx7rvvlpzAFwXwLMJbR9bjOa2nX/3qV+Kg0TumKLIyb1bZr/doEXL0iPiX9v8rQeADMjIywBzwrl27JNJ5ug/l6GZdOnvcd+7cORTYI0hnMvrF8LFiL0Oz7lSw7+T+fAtBIKECt5Nf+ItHG+tZuYTA+jw/3TYCyykQ1PPEFDXn8Kjc7bDcH5brLMvrgfes/lpAfdnRKvvNH0+LEwKJMT7PRyL0N0+8r4sW3xIQzh2CjwTcBAgjeLAjEeqbvDYBwgQI57YY+bq4Y4ITJjhhghPITROcMMEJE5wwwQnjgAsmQJgAYUIUWSbuhGIeB9zw/wF8sxLzXbRRgAAAAABJRU5ErkJggg==;" vertex="1" parent="1">
          <mxGeometry x="1180" y="592" width="131" height="131" as="geometry" />
        </mxCell>
        <mxCell id="ujFVM9XAjsb7zgqNAqnT-50" style="edgeStyle=orthogonalEdgeStyle;rounded=0;orthogonalLoop=1;jettySize=auto;html=1;exitX=0.5;exitY=0;exitDx=0;exitDy=0;fontColor=#3399FF;endArrow=classic;endFill=1;strokeWidth=1;" edge="1" parent="1" source="ujFVM9XAjsb7zgqNAqnT-19" target="ujFVM9XAjsb7zgqNAqnT-43">
          <mxGeometry relative="1" as="geometry" />
        </mxCell>
        <mxCell id="ujFVM9XAjsb7zgqNAqnT-19" value="" style="rounded=1;whiteSpace=wrap;html=1;" vertex="1" parent="1">
          <mxGeometry x="374" y="783.5" width="240" height="120" as="geometry" />
        </mxCell>
        <mxCell id="ujFVM9XAjsb7zgqNAqnT-24" style="edgeStyle=orthogonalEdgeStyle;rounded=0;orthogonalLoop=1;jettySize=auto;html=1;" edge="1" parent="1" source="ujFVM9XAjsb7zgqNAqnT-8" target="ujFVM9XAjsb7zgqNAqnT-5">
          <mxGeometry relative="1" as="geometry" />
        </mxCell>
        <mxCell id="ujFVM9XAjsb7zgqNAqnT-8" value="" style="aspect=fixed;html=1;points=[];align=center;image;fontSize=12;image=img/lib/azure2/app_services/App_Service_Domains.svg;" vertex="1" parent="1">
          <mxGeometry x="1870" y="773" width="152.5" height="122" as="geometry" />
        </mxCell>
        <mxCell id="ujFVM9XAjsb7zgqNAqnT-17" value="" style="shape=image;html=1;verticalAlign=top;verticalLabelPosition=bottom;labelBackgroundColor=#ffffff;imageAspect=0;aspect=fixed;image=https://cdn3.iconfinder.com/data/icons/logos-and-brands-adobe/512/267_Python-128.png" vertex="1" parent="1">
          <mxGeometry x="942" y="520" width="128" height="128" as="geometry" />
        </mxCell>
        <mxCell id="ujFVM9XAjsb7zgqNAqnT-3" value="" style="shape=image;verticalLabelPosition=bottom;labelBackgroundColor=#ffffff;verticalAlign=top;aspect=fixed;imageAspect=0;image=data:image/png,iVBORw0KGgoAAAANSUhEUgAAANIAAABrCAYAAAACXNz/AAAgAElEQVR4Ae2dB5xWxdX/809MbDQRKVKWXsSuWGLKq1GkbqFDJNZolLJUjdHENzHFRI2AAjYibem9K3V3aRZEkF5FRTrsLlue/vt/vuc+gw/rLrK6+0qS5/IZbnnunTlz5vzmnDlzZvZ7kUhE8RTnQVwGvp0MfC/OwG/HwDj/4vxDBuJAimvkuEVSCjIQB1IpMDGuleJaKQ6kOJDiGqkUZCAOpFJgYlwjxTVSHEhxIMU1UinIQBxIpcDEuEaKa6Q4kOJAimukUpCBOJBKgYlxjRTXSHEgxYEU10ilIAPnIJDCZ9mwZ/tevLeMa8yyl4FzCkghheVT0FJQYYUjIUUiYSkU+TKFw5IiCkeCCkT8CoWDZwm8smdmXGD/e3l8TgEpqJByFVSeAiqQ38AigBOUlwJhKRCQIkFFFJQ/4lcwEogDqRRMk3gn8O06gXMMSBEVKKwCheRXUGFAhAIKSQpEJF9QoXyfggGfQgJ2YYX17RgQF6A4/0pDBs4pIAGKkOmaiEKRsCIOSOCpIKAwIPL5FQgE5AsH5QuH7f3SYEQ8jzigvo0MnFNAoiKK2BBIkVBEkRDqyDuC/oDCoZDCkYiCEckfjsgfiQIubtrEzdvvWAbOKSApHPFMOfATlJl24AotFTBzLyKfwsoPhpTrDxig4qZdXJN8G01SWt+eW0ACNQEplB+0cRFjoNywT/kK6mTErxwF9EXOMW3eu0sncvMVQGuhwL7j3ihefhzM5xSQMOWCJ/0K5vlV4CtQlv+kjgZzdES5OhHxa2f255q8ZK6WfbBaeaGg/MGIQqH4fFIcyN89kM85IIV9IRsn5QbzdDB4TIeUo8PK097IEQ2bN0rPvPEPHfJlKy/kVygUUTj83TMxLsjxNji3gBSOKBwMy+cvUFbkpI4qV/t0TBuCe/XcOyPV7S+/1pLtq5WlXOWFfd54Cv9E3LSL8+A7loFzBkj45oLBoPLycxVQUIfDJ/S5jmlN7iY9vfAfuuOZFD27YIgOKVsHg0eU5TuhcJDJ2TiQ4h3Jd68RzxkgecIQVkEwX1nhHB3XSWUc+0CDZz+rO5/rqPvG9deagk3aEdmnw+HDygkcV9ifJ4XiIUJxIP3HAwlt4SWLUDD3dkSRsBdD51zbLgKoIBJSTqRAx5Srtw+uUp9Zv9dPn0vSL17spFHbJ2uPPtfhyDEdzj+kYCRfwWCBgiF/3Kz5js2aOJDLeDsuDzz6cm7Igk+DCgcI8/HLHwoqLxJWnqRsSYcV0j7laebBlUqe3ks3vJWoa0e21G/mDda+4D6FIj7JH1HY74UGnbQAV0D53fdIcRr+u9ugTE07C5OL1UiEJASJ5g4rEgoqP1CgrGCBjkcCOi7pC4WVti9dd/3rAd08votaTO2gm99qp7QDM5QL1Ii3Oykp3wsGz1bQ4vLiQvzfLcTnQvuXGZAI5QlIKpDkRylhx0UDUEO+kMIBL+j0eDBHJ1SgA5EcTd6xTG1HPaq7pz6iW8d10RXD7lC/9D9qhz7TSfQWQEJ9+TwHQ4ECFtx6LjAyTsN/N5jLFEg+RZQrIro9DWJR3ERyEycXCOhowXEdiWTpgI5p0qaZSnn1Qd00poeuT+usW0Z3VOLYe/V27krt0yHlESjEYApUco5EFGapheLOhjiIv3sQlymQWAqRb1qDRXpfjpVwQOSFAzqhfO3RQY3cOEaJI7rpx28m67p5PdRofDvdOLK9/vH+cH2mAzquXJSQWYW2rg/NZl4MHA1xIMWB9B8MJBo3HAkoHClQJOzN91hgnKST4YCOyqfdOqznP3pD//N6R7UY1UrXz0xS/flJajyhnVImPax1+R/rSPCI/MGgBagWhD1TEYUkWzkbkOIrZOPOlnPA2VRmGgkgKeCTChjbBBTIKxBLIfIjIR2RTx+HD+jpVa/opldT1GxMK7VY3FH157ZUwrx2avhGS43cO1n7dUgnAycV9oUVDpmPwXwNWHcASEH/N55HCoVC8vl8JoRuMtho5qaIwzqG8NfH9fEpeZNcflzbIkXIDodt4pkzv7vfuHbJfeu+L4KcYh/xjcvbveTyLeuzq7vf7z+tvq5cRw98Jzk6+Z1vmJB3eXDtvuPsvol9VpJr8uV91rLBX1dOLK+LaouzLaNsgeT3SwV+hbOzFczPUUHEp89Cx/Ve3m4NXPqibn2zu66f1lWN5rZXjXl3qMHSdqo3qZW6L3tCq8KbdVw5CgVDnnPBOxmQWEphQAoQJf71wh3LDJjlGsw9p0FjGeqex56N81GQuMaI/T322jWaEw73G2W48qEhVji4d4Ll3uNc3OHyLOrMd+RVOL+i3i3NZ9BKmQ4E3MMrxweeQ5srk+fwgHsO95wzzx0f8vPzT+Wbl4e36fR3Y78r6jq2TOjjHrocz90191/XtkXlz7MyBBJ7LQQVyc+XggXKC2dZtMLK/E16dNGfdNXQdrpuSmc1mZ2k2vNaKyG9vWrPulvX/ytZoz9fqL06bmuPImij/LCNifwKKV9++8ekrrkFWUoR05ufzTUN4RrVnb+ucdzvsQLqnhUu0zUWeZPc7zRSQUGBNSTfcjjBi712DUuD87v7/mzOvO++5zr2OJvvv807ri7k4Whw5XMPODi7Ornf3HdOwGNp4DcAx3fud76LfefrrnmffFwetAm0AMpYelz+PPu6PAv/XoZAYuefsCL+AhVEcpUjn945skY9Zw7ULeM669qpHdR4Rjs1W5SiOrPvVoO326nh6Ls0YPGz2hTYp6Pyq4B1foGIIkHAwv5COfJWJdFDeV48hkqFK3Wme9cIjqkwGKaSznTAZEBwNkwmT953Bw3HtyT3G2cOzvzuGtE95xkC5O5dXl93pu7Q6PIkX/IgnYkvpfGbqwM0xtJP2fCXMjgcLe7svnO0o4Fi6XfPeY+jpLTyHYnyXPncU4ajycmDK7ekZZQpkEIRXN8RHVaBFh1eayBqNuIuXTGtja5enKy6s+9Us0Xt1XR2WzWd1ka3j++uzANrlaMC5YSDygtIAVZVhFlinqWwDimkwwpGchQM0dvLxk4lqbRjoHE02iju+kxnGsExmfco0wlCceW7hjtTvvyGkLmGJq/SPs6G1uLqUNLnX0c7IEFoOeBnYYB93feuwyspXbQF5bqyz1TO17VrUWWXGpAgrHABWLOfyq85B95X53Gpuva1RLWY31k1pv5ECQtvV8O371KTOS3VYlaKrhvdRn9Z97Kyw8cVCgSU5w+LpUn5wbACYb8iOiZpvyI6oHAkW0FUfsiUnu19V7hs7pkUJsX+BpOcgMNUro8fP6733ntPmzZt0pYtW7Rt2zZt3brVrjnzu2tA6ukYXVSdeQYoyBtB4dsNGzbog3UfaOu2bZYnZXz00Uf2fP/+/fY++IFWDjTX559/fho9RtO2bUabow/aikq7du0S+WbnEHj11cPxg1/c9bc5u3zgy+HDh/X+++9bgs6PP/5YGzd+bHXJyckx3jn+BYNfjlddB8eZ7+DP5s2b7XvOtA88cd86emNr55599axT5iG/Aebdu3dr48aNRtfmzVusXdatW6dPP/3UsvxqHqfLUeHfzxpItkkjHUkQDcGuciHbDotJ1kh+RKHswKkQhrACrBjSDh3Vm8cWK2nqY7rxtfa6aUqSms1sqcZL2qjm23ep1tw71WJRN7V4o72SR/XUet8GhUI+BQr88vkBkOQLhRUwNZynSChHCuaaFzCCw47hF6tkmZQ1wnCzY9/idveiHqJTtjbtZHWIDhuc3Q3Xdu7cqU6dOqlp06a6/vrr7Xzttdfq6quvVsOGDdWvX6pyokIZDAYU8ONxCikUBIjRAFzGbBFMOhjkAcJX4NPjgx/Xtddco8aNGtm5+RVX6MrmV6pO7dq6/X/+R+s+WKeQmRzEUkFcRIcOHVRq375q1KiRrmjWVNdde42ubH6Frr3mal199ZVq3ryZrrn6asuHvFxqfkVzXXftdbr1llv185/9TD26d1e/1H4a/spwrV2zRnm53kCdOiOQriMpLBRfd8+3dBK8x0E+XJ84cUKpqX3VuHFjNWvaVFddBa1X6JprrlaTxo01ZMhL9j51DATw0nmaiW/J09E0ZMgQNWnS5FQ7tGjRQvXq1dPtt99ugHL0c6aDgxZnBhdFO5vmYMHQVhxpaeN14w03qEWLG9WsWTPja5Mmje1+xfJl9g7/FZVXcc9KACQvNIfIgmCEQX9A7C5nMpAXUfi455/25ecrJ3xC+3VAIw5P0y3v/FIN3/q5bp7WRjfPaKVm029X3fl3qfqiu1VrXqKumdZNrd66T2M+nqATOqog/8IRBSJh+cIRFeDBCUv+UESBIAv/PDBDR6QgYkLILngWkBT2SyQ2jpTfaMxXyHNa0ObIeCCiIJ6k6ODVCcUbb7yhiy++WBdddJGqV6+uyy67TNWqVVOlSpV08UUXatzY0cZg9tQLh9nRKCC/L18Bf4FCQSaGQ4qEgwoGCiwgl5cnjBuv6pdVVYVy5XXpJZV12aVV7Fzh4nL64Xnn6cUXXlSYcSSrfJkPs8pFlJ93Uh07pOh73/ueqlxaSZdWrqTLqlTWZVUuUaWK5XVp5YqqUrmy5UW+salypUtU/uJyuvjCi1SpfAVVqlDRygXI9917n2bPnm0az3UkThBLKjhOcAERPTzH2rVrVK9uHZ3/o/OM5lo1axjN1apWsbrccfvPdfzYUessQiF4aBMZBgTaAW3E8eGHH+qKK67Q97//fV1++eXWHrTDD37wA/Xs2dOcBAg0ZUN/dna21ak4IQ+wD2IoYPw9cuSQWt19l87/4Xm6pFIFXVblUqMVXnft0kkHD3xuNBSXV3HPzx5IdJbMf4aYFA2JyGuElHEQzyPZYYVOBm23n/06qje2TNRPJnRV7bQ7dNX01rp1TqJazGqtK+fcpboLWiphWZISFnZQ3dHt9MjSZ5SetVb7Q/u98ZH8ypZPWQooy1wMXnnHA3nKD7OZMeYPTGQnITQjCMEVToJIlgYGbNMUByQzm2inkBQkzi86+MzNzT3Vsw4aNEgVK1a0HrVKlSrWCzZo0ECVL6mkJo0b6r331hqTaRS/H8cDoKKnC6ogP9fAxTU97id79uq6a641YU6oXUcN6tUX54b1Gxiw7r/vPvkLfAYiwj5YpAg4OXy+fN1/369U+ZKKatqkkRLq1Dp15rpZs8aqm1BHdeskfCXVr1tPTRo1tvJqXV7TyqPsKpUvtbpdeumlop6YMAgFfChOOL7uOWDCDOXM8fjjj6t8uYtO0Xr1Vc1VN6G2ate6XJfXqKYql16iWTOn2bue9qVBoiZ41BmCduEYOXKkLrzwQsH/WrVqKSEhwdqD9lm4cKG9A4AB4MmTJw1UPCyKZtrJ66SkIS+9aHytU7umAPhVV15htEHnu2tXW77sp1hUPmd6dtZAAi9sM+eLyOLncgxIQQ9IPimUhw8+pD0FB/XKxjTdPfZe1X31DjVfkKLr5qfoqsl3qvnkO9RsdkvVW3C3aixsrYQFHXTNrO765xeTtFWf6hPtt5AhIh5Iu3RUu3VMe3RMO4OH9HnkhA6Es3U4lG1BQ3nm2cPItAEGqvJUdDkLLTDr8m0/cUKUvKhzXmVuyvWo7gyTDhw4oJYtW5pWqlu3rvWGNGKjhg2sl01Oaq+sE8dtTIZmUiQkX0GeCT6mCgBAMHwFBXrk4Ud04fkXmEDXqVXbBL5xw0a6pGIlXX/tddqxdbuByM88W9DTZl4woQyU9/yyuy668HzR4IAHQeS6UcP6dq5Tq5bqJdQtMlEeoG3UoKG4vrx6DTWo7wkkgokw3nXXXTYGMckpRgDPJDh8RycEENEMjMuuaNbsFPgRTDQSNHPdoH5dA9mvev5SQSbS6dOCfturkGtXlhuLfvHFF/rpT39qtNasWVO1a9dWnTp1dMkll6hVq1ZmRlK284Y6j6jLJ/ZsbSVp27Ytan5FU1WsUE41L69ugIev5S6+UKl9e1vnSPv5fUSHfklTbF7FXZ81kIiV80eDr08qIoCEZjL0YlGFIqYBZn6yXLe90llXp6Xoynmd1XhesprNaqsmk3+h5tNbqvGsu9RgUVvVXNBGteck6ZZF92vg1pf04uZRGrruTf1z3Wi98KFLY/XiurH65wdj9c+1Y/Tmhml69d0JenPNBGUceFefh4+YZrR+HDVFZ0Yb8QDcRK1RJnDRWwi+7VQU8CY/AZHrAV2v+s4771jvR6NhVnBGGBrUS9B5P/i+/v7c3zwmo4lCARN6Mx2COBcQDL9eHTFc5S66WLVr1jJhdtoI4QZIkyZMjObhmXXe5pee6cEP+fm5AkgXX3SBAQjw1Khe1ejAdKLXr1iunCqWr/DVVK68MO+qV62mGtWqG9AAFGUz7nBCWaFCBSUlJenQoUNGC/8VJySFn/Ou4x2/cbzw4ouqVKmiCShCSk8PkNCojRs1sGs6BNJ7766xbwxIUZc07QAwONx5xowZZm7Xr1/fNBO00x5oquHDh9u7AA/N5NqxMK12z3jQ79OA/qm68IIfGS2AG77SWV3VvJk2fPSh5edZGCXX0iUGEn1unkV0E/+GneSpqYDfryOhLE387G21eKuj6k1vrTrz2iphVjs1nNVW18xP0jULEtVsbhs1WNDWfqs3J0m/yHhMHZb0U4/pfXXftIHqMX2Aus70UrcZA0XqMWOg7p35W907ebAenPSEfjPht/rzsiFak7tRxw3QDJ5jgASYomN+MAWQPL3lmX0MPmEwPSoC4cYJTij+/Oc/W2Nh3tFwtWvXNGGoXu0yY376Cm9AigbyetWAcrJPWEOsXpWpBvXrmSnVrElTE2BMMAT5ogsuVN/efeTLyzdtlJOVrbyTuaaRzLQzs1Cm5e791T3Wc9avl2CmUcMG9cyWv/66a/TIww/p4YcesjHP/ffeJ5ceuO9+3Xfvvfpl9x5qc3crUT6gYgxF+XQMzlRC49K7v/DCC0Y3/xUphIW8nu4dNAACz/3Bgwd122236bLLqqhuQi2jF/AAGsw6EqCiDgjygP79jG+Yd3xPG5AXYMBUc1oJgLRt21aAHssAxw8mHuYpziC8n3zjvne0xZ5d5ZYtXWxaEXMO2tCQdE4Vyl+sP/7vH4wOQBSycduZPXSx+bvrEgEJzLAkKBD9syoRehA8ASeDiuDqVbZG75ut68Ynq868lqq1qLXqzU9S/Vlt1WxuezWZ1VoNZ7VWwoyWajA3Udcu7qG27/VX4pI+6rFwgHouGqyuSweq0zKXBqvz0sHqsvRxdX/ncXWelapfL/69Hpr/pB6YMVBv7ZupTyMndQJzCiXE5C22Z4HsHB2+RYHE2MpDmHneoqErMMIBiUbk/tixY0pMTFS5cuWs8RiPVK9axcZJ9GBtWt+trBO44z3HAE4HjkOHDqhH966qVLGijU0wq0iMi9AQd97xC32279MvtSImHfayORui5h3jvxiNRIMztqBn58zY6WROlrd9M+O8YEwKEZMYkt/nV/aJLG3ZtFnP//0furnFTapcsZLq1qsrAIRQop1wqFx55ZXmboZ+V394wHXsvRMY3sOUc4LP/dixY0WnU6N6dXM2oDWrXnapXWM60RkgvJwZ4Ddr2kS7dm7nUyujcNgP+VM2x5IlS6wzg1Y6NejHzKMTGDhwoLUXtAEmRy/giqU3L/ek7ru3p3543veNJiwMgA0/r7v2am3Z/LGVRafotWUZAslG+NQN7YudB4j84WgkKfcRZSlLEw/O0w0Tk5Ww8G7VWtRK9RemqMG89mowq42azGmvpnPaq960u3Xl/I66671earWyt1IyBqhH+uPqsDhVKRmpSlqZqkRL/ZWU2V/JmQPVMXOQuqUP1n0rf6d73hmkLrN7q/fy/9XiY+v1hcU7RJTP/uD4zKMePVOYZunhkEcnMWrCVVv8YNKZCB988IG5n2kwgISzgZ4VYcC0evqpJy0fxkiYeLhW//7cX61x6tT2xi9ujFKzxuVm5i15Z7E1mEXBw8OY5Lx+vFBQkCfGEpSDCeK0Eh47NJXXCF5WZ/P/Rx+uV9vWbVT5ksoGIieMCGb58uX16quvmuA5DUOeXLt7J5ScORB0EgdavUOHDibYtWrVNK2DaUdCeG+84TrzOFIHAIYAly93sV54/u/WEZGHy9eBk7wBBgeOhAceeMA6NQcktBIeVUy+zMxMe49v+c45P8jT5TFt6iSjwWkjzmhLLIy//uVZ+542xCFBJ0YHGVvns7k+a41kje5cz7b3AgIb+TIkO8C+C9madGC+bkpLVv35LVV7wd2qi0aal6hGcxLVaHZ7NZnRTldMb68fv9NTbdf0UZvMXkrKSFXnlYOUvKKvkjL7qN2q3mq/qrfaruprqf2qfuqwdpDaL++rTukD1T19sFIW9FaHWb31x7Wv6ePQQR1Qvk6E8uCBwmglAM+ELf6H6N7huMSLAxLcpEejQTiT8BxhVtSvn2ACgmmCXY03DbfprJnTTwnD8mVLbAxDA9XFHKzJOcGcDT/8wXn6x3N/N29hUSAyjRR1n0MHjRkLJASQXhQg8dwzP6IdWgwYLR92q/UHFMIz6ced6gn/+nXrTQthFiGImHnMU+FWfvTRR01gKTu2N3c9fGFB4rkD0rJlyyw/NNLll3vOBVz1AGjP7p3q36+vOWociOiMANlPf/JjHTyw34SYiVkOysE6cBYCbcGRkZFhmggnCZ0AJh6J6YrOnTufGiPxnXPFUw++Zwz4izv+x8abtJ+jA435k9tu1af79sJIM6cBE+No7gvX+evuvwGQYnpSgIVNBYiDso0bJx9YpFvHpajpnLuVMO9u1Z3TXg3mJqnx3GQ1nNVezaa3001zu6p1+iPqsKavEjN6KTG9j1JW9/e0UEZvtc/sZandyj46lTL6quXiR5W4or96rH1S3TIfV7elg3XPrN/qtR1ztDH8mY4qTz7+kp+PJRYekJAzLtmEHyCFzqCRYkFEQzAT361bN+tBXQMgCGinKpdeqhuuv1YHD+7X8ePHTDDQIACpQb26NiZBEzGn0yE5RUePMH9StPCXJpAcmDgzRxXweT07AMbtTceAWcdYCTBVrlxZ7du319GjHn0ABKEBLPCjKAGiGjyHR7169bLxJAKeEHXMAHi8YBxz58y0sQj8gzcIs3OFz5w+1d6hHEDgAOpocKDg/pFHHjHticOBDgDthEaiY5g8efKpfLhAK0EbB5O7mOOYyA5ItB+eu6FD/mnvYAEwpcH8HeZd2WskIq3D3p9SYZxEbw+A2dwH7zKBppO+WKzbxnRW81lt1WBeK9Wd01b15yaq6fwOajIzSdfM6qS7ljyojpl91CWzrzqm91ZyZm+1X9PXUkpGH3UAWBl9TFMlZqaqfWaqklcPUvKqQUpZ+bg6pA9S8rL+6rLicXVdOFgPzH1Kcw+v1GHl2t4OzGKHAJM3/DgrIMUKDiYBDctBeE/Tpk1U8/JqZpYgEM7jw0Rp716P6rdPDLZeF/Olfr06qlOrpmpUq2EeM+Z03l0TnX+i50VBFNIipQokWwbmN61EWWgn9+dxJk2aZBqICWfGGUQLYCL9/Oc/N9c/9XUC6MBUFJB4xrF+/XoT5qpVq9q5Zk3PqUBvj4bmyM46obtb3nnK5YxGpzOCd2hXNz7ChHOayI13oMVpPsJ5iDRBK6FRARKAoi633HKLOTwoz4GSa8KAeAeHAl5XygVMAP3OX9yuY8eOyu8nIp3oCG98hFYiOqW4ehf3/Kw1kjGPEBhbysAEqbehDx53/ngEw+0DCmrCF8v0kzHddNWM9mo8t63qz26rBnPaq9n8jmo6M1k/XthTHVb1Vbf0VHVb3ltdAc2qPmqztrfarumtziv6quvyVHVOT1XH9P5KyUBT9Ve7Ff2VlDFQiRmDlLisv1KWD1S3jKd0T8ZTSp76mP76wav6yLdDWTjEiTzAM1IISGijM5l2NByNid0PsByY0tLGWcPTEACJ3g3QACh616qXeY4IBtTMOXmTpXVVsVx5jXjFc9MyCVyQl18kiEoVSDiEfH758gsU8gdt0teAK2np0qVmEjFwr1GjhmkmxoA33nijPvnkExN86k1bI5AcRQkOz3nvmWeeMS2BmeVpuBomtK1btdQJc8ZYFvrni88bkAAYfEOY8ZjVq1tbCxbMt5diOzIHIGgAVI4WygNIaFK0KtqIzgCn0PPPP2+dgAMebfjUU0/p/PPPt/Lq1KbtaptZCbDSxo+1cvG2Ah7GughMKMxEP6HWRde9KH7wrERAYpDOeCNPYWXbXJI5yFRAdFBEOqigJjogTU9Us3nt1XBOoupj0s3tqCtnd9Qdyx9Ut/cHqsuK3uqyvJe6ZvZRh9V91GZNLxsXdVneX92WDVDX5QPUecUAdUwfoA7pA5TMOXOwUjIHq2PGYHXKfFwdlg+03zq93Vf3zuyvcTun6ws2Sglja3pAovP0FAACgqlStLkCM2hMGoKGc+5dwJSfn6eHHrzfJu4AE8JAz2rjoYTaqlG9mjWWd19LjRs1VIXyFdStS1ebnKXFGLMApigxXzmf5mwoNEYCsORNT9rza8ZI5E8IFJPOePBsYaQnz1qwYIEJIT2600aMkW6++WYLCOU1+OAE2N3zzJk7jLm437t3r6699hpzMiQkeGYWYyS8cmPHvBUtMWym0r59e807xtiJTohEnXjXi2PMsffhv2sDygBEgMqZeID9huuvN28jwMW0I1WvVs2iUQiQdUd6+gqrK6Bj+qJhw/pmUQCiLp07GljQPF6oEuFZ8MrTSmdyRkFXUakEQIrKJhOz5m72/nKeDeoZo4Vla45mHliqn47urObT26rp/CQ1W9BJ9aa3U8NpifrJsgfU7t0+SlrdWymZvdTB0qNKWfmoElc9qqSVfdRxxWB1Xv64Oi/nTBpkDobOGQPUOXOAOq0k9VOHjL5KWvGYklf3VXJ6L/VcMkCPzX1Ciw9l6JiOyc++XcTdIbyEieO3x+to++wVzYxYBk3hX2AAACAASURBVNGgHO68a9cOE4ZLKlVUg/oJXzoWEmqblkIw3Cw+71zZvLmZFrF5kFdsGadfx7i/Y7x2gBYtSN6Mwbp16xKNDIC+wolxC2E7ns3P2QtZ8sRrzJgxNkZCuDCNMIsYM915552mhXnLdSQIsLcjrjeR7c2xBOzv9/LeyBGvGBDoWAB5fSIXyl+s2358i/bu2WWM9swl1mCF1C+1j3VE9m69BNMMaKUrr2xukd6OT04bwRsATeKa51z/a9QoXVr5Evu+WdPGxhv4w5in12O/sfrm5+WqU8cUczAA2oQ6tdWgQX0DIJ0ILnWvvNO1Lu1z5jYqXm5KBiR4euqPjHuZ2gCE4UQoopPK18wDS/ST0R11xYy2XlTDnC5qPDVZV8/qorsyeyn53f5KzOyjlMy+SskEUNG0sreSGAtlDFZSxhN2TskYpA7pA9UhY6A6rRyojisx9foqKTquSl7VR0nv91PSu6nqtKyv7ps/SH/JeElbQzuVrRMKsfFKMKBIILqVl9exmiPrdCEunkG8Z94cSbNmTTdvHV4nBMjNjSDkPENLVa9WRdWqXqaJEyeeahQHRhqv+HJjgFRII1EOLluEpec9PZSXSw9OZb4KJJ8/Xzk5WdbTEg/ogcnzRP3qV7+yMVLs+AhTiedurAJ9CCyAIhoATUm0Ru7JbAMp44mTJ7NtLo15GMw0V3/o+/3vn7JpAX8UzCaxko2ZqAfvYg7DLxJm2bPPRl3Q0Y4GTQQdHNASexw7elS/uON2AyV5OQsBbQdIV6xYpimTJ5r2BqjmYKhXzzSwqysaDmByFN8eZ5aJwt+dNZCszU4BiUUL9K5RVEW9rNkq0LRDS/XjsZ3UdGY7NZmToitmdNWV07rptkUPKXHNIHVc84SSV/RTSvoApaRz7qfkDC8lZvRX25UD1CaauG6X2V/tM/srZc0gJa8ZqMTMvmqb3lttV/RS6+WPqc17/dT63VQD24PLntaDEwZp1q539EWQ5YQ+BQhgxSUcJZVm4e/8FWbEme6D0WUTCO7/PvMH6wWZD0Fb0JhoI4SEeYnLa1TV00//7pQAkC/H1/d2XwUSZgiCQo9LeQzQmZAFHF6eXsAs2oKE0AMeEteYpBzcT5062cZFdeokmCaiZ8bTxjzSc889Z/Q6oYVWgIRGAjhEuDOJ7WLW5s6ZZcAGCPT4jH2gj0njU4G9RMRbNLzntGEskti+rXUG1InvEHKARFQEsXXwCgF3HQ/3gMppSUcfQIEXDkh44SifaYl2bVubu5trNBbvsGQF9zz1XbFihfGEckoTTCUGEoDy/vI4Kjca0EY4jqTjKtDkQ8t007guajwrUY1nd9BV07rr5tkPqNXyfuq05kl1WvlbpawY6I1vVgy06+T0gUpKH6j2Gf3VanVftVzTV3evTrXUanWqWq9KVavMPmq7sp+SVw9Uh7WPq8OawUpaNVCt3u2vny5/VB1WPal7Fj+le8YN0O+m/l0fHd2uvOi+engYcWq6XV9LCiSCGJ2JREwWjYMQAR4n6AgRvWLNGtU05CXPrWotFv0P4UAQigfsV4GEKecAypl7b0I2NuczX7PEABA1bdpYl15a+ZTrmDGSM+9WrlxpmUCjo88T5ogKCnKjLmGZhiIOsGvnTibIAJxOhJ4fbfTwww/Zu5h0nibzwOcir99883WrgzPvABOePjTF6NHeMhV45OiAKEcPZ/vNQon86typw2ljVuhwtNChAVLaAhob1K+v8y+4QL/97W+tnuTlwBmb/7e5LhmQ0IaGHXxf0YV9WBeE3Ek6ogJNOrRcN47rooazE9WYla8z79Ht7zyqlNVPKGXV4+qQOUidcBiswGwbrJT0wUoiZQxWezTR6j5qvaaXWq/hjBMiVW1W91Oblf1MMyXiuVs+QElL+qnd4r66O72fWq4cqF++96weW/UP/XH1a3p55Xhty2WbY9YkMXvkxbLii2H315ICid6YXh1vDsLCoJ8e0GukugYs7mm8apddaiEwbsadxnEgKiwYpzdc8UDCrEPo6IV/2aObhdfs3/+ZPvts31fS559/qt27d9oK1cmTJ9qYqhYOkvp1zdOFx44BOmFCCDDzZG4wD3300tDFYVrO4v88Rw3PMjNWWN0RVgTXgYlxy4IF80xACLMheQAimjofRGjv3t26+aYbjH+Yd3zfqFFD/ehHP7KJVVzgXrmeRiwKUDhQOBYtmm8mIp0XQMY6gEfkSftwTYdHu+Dix3XOamIOtJzzyJ7eBiWzVGK/LQGQojObRAvYtCZL8OhhPXARMHJYPk06tEItxndVo9lJajwrSTfO7a7Wmb3U6f3Bap/eV8kZqeqKRsnorw4ZA5QCMDJJg5S4coCSV/ZREmMpGzMxbuqrJEy/9H5KXJKqxLdT1emdgbo/42k99sHf9JtNz+t3h8dp8NaR+tvWcRqzd5E+zGcBRq5yI+wOzp909kYTQdz3tqL17BkG48O2ujKoV14eKhwJNFztWjWskWg4Er2sd66pcuUu0l13tbRl5nzvNJE7xzbAl9dFA4l8MV3QgJRLVDVRAT/76W36aTGpRYsb1KBBPVWtWkVVqlRW9epVBZjwdGHSASLc3mil1au9NTgIFwc9taMZzWJBubbo0OMiA3pMTgQXbUydMe1YLHfs6GGzUjDjXOiUjZWY5LQJx7CF5KC9ACLfs+AQNzbCvnz5cisbnjgTz/HH05D2s7Um4zdoueD8HxoN8AdaOMMzdw+g6DD++te/2sfOVKSerq6ujG9zLiGQCL1hpU8g+i/sTcqyA2okZGE6afuX6ZZx3dV4RpKuWdhZP196r9qsfFTJa/oo0bx0fdR5Zao6paeqc2Y/dczsr6T0vkpckark5X3VefFj6pneT12X9FKXxX3UI32QeqwYrJ4Zv9PDa/6o/h++oD9sGaG/7/qXXtw7Tn/dO1YvHZ6hf+6erJFbpuvtA+/qCx1XvnwKstgvdvKT3oyVicX83Vkaz6l8ztwj/BwfffShaRx6QATbmXcIlHOF0/sxIVu/Xl2bv/jTn/5kvbuZJG7cUYz7FFPImUCMgWJDhCgDwaBMwAQNmHkVKpQ7LeE1u+SSiuY9q1mzhrl9OTcGiDUvN+AAJiZQEa5XXnnF6gZ9ThM5LeCdvdAZb45F2rx5o0Vz4GRg/IEGhh405eRJEyyvr/uPYFUiQqgDvKpXN8EAjlYiSoJpBw6E2p2dgHMfO1b78MMPTPMAZMDj6KE9ABX8QvPddFML207A+94bg1E/V1eX/7c5lwxIBITarG8MkKhcIKL8EPv7+DTx06W6eVRXNUhrrZsWdVObzIfVPvM3Ss54VB1XPKbu6X3UfXlfdVvaRz1WMGfUTx3f7qPkhb3UcX4vPbhwgPoufVKPLB6swe//VU9tGqLfbxmmP+96Q//4ZIyGfjpBwz+ZqFd2jtfQzaM1bHuaXtqcplfWT9SsPcu10/e5gYidHGwlIov9cH2bt+HUbimn2d6u0RAmxhT0Wpydd+f48aNq366N9bw0EEJwRbMmJkxmOlStYo3mANWkcSNztTLAZe7GCQT5Ft9YMUCKeu3o+ckfECEklOnMlwS0YBEJzVPHVtE2sd/RTMyjACjc3fT+eO0AOfV1tBVFFyNfHAyEznD87W9/McF0A314wTVLO4hkYG5px45tYqpg587tp6Vdu7Zrz57d2r5ti7p17WzBvfXr1lGjhg3NCQKwATmbnrijKJpYoEmnw9/Xws7o3z/VtBKdDfS4NoBPgIg1XS8PG2Z8d+Chk+Sao6gyvsmzkgGJEBeiZCN+2xqfiGo6fGwnlnKfVEhTP1mmn73ZXS1mdNXdyx9W11Wp6pHZz8DTfVEv9VzQR/ct7K/75/fXr2amquf0PnpowRMavPZ5Pb/tDU0+OEf/2j1B/1g3XG98Olmv7E3TkL3j9OKucXpxx1gN2TFOw7eP18htaXp9c5pGb5uu196fqAkfzdbmnJ1E2ynIBigEINqaD4CEy46BHEvRi9dITnMQYwezARLpL39+1hqE8QC9HA3GtdMSLKlG4F0CSNWqVTdz5Wc/+5nt6EPDkX/xjfRVIKF1EBBXpgMRAtIIVzIL5WLAxH29eglqwvJ0lnjXrmkbpWDe4WzApGMjkalTp1r9qGPx9LD8PWimHZOWX+z/zMxJvGE4PqDLmVDQ1+LG661jAexFJZwxPL/+umttlSrfYN7h8IAu5raY03r66adNwIvTFg7c3mpkwpTW6Zqrr7TOjXZxdNHxACL2iWBnIw74z0EHQiqujDPxpLjfSg6kMBHUPtv6hH0RLGM/HhWiHXyavmuJWr7eU60XPKQuy/rpnoUDde/8gfrVrAF6YMYAPTbjtxo053/1p6UvauSHYzXj00VKz1qnDcE92qH92qJdmnPgHQ1fP1aj987SKzsmauiuiRq2Z4pe2jlJQ7aladiWNI3YPF6vb56g0eunasr6ufrg0MfKiuQqP1KgAn++rdMxD8ip5ecACD89E41fHSPBVGfOMafixgzsD4Dp4BJmnTPtGNQyMfnG66/a5CTCgZB75kpD6/kvuOACCxZlIP1NgOQG84AI4QCsAKxy5UqqWLH8VxLPMfmYya9Ro5qBCq2E2ffwww/bXg3U02lHJ1xFCQhjJLdByVv/etO0D44PAOFABE3UG82EyYe2Lpx4TqIubnyEwJOqVasaDS+63MDE+iiW/BdFj/csbM4L5/IHGCyFoHzyhz8AigSfRr35uoHH8d7Vl7N7VnxZX5WT4t49eyDZnBFjDiKoAVKBbTBiGbOgLhSRPxLWwj0Zavfqr/SLKb9Ut7mpemz2M0qd/az+8PZLevX9CVr4WYY+yNminb7PdDB8XFnKV474i335Oqwcbfbt1viPZ2jEu+M1cuMUDdsyVcN2z9CwvTM1ZM90vbRzsoZsTdPLm8dr+MZxeuuDKVqxe7UOho6hi5QXylOAVY5Rb6I3Rgrbdl2M7c4UawdjnYDB/X379tkcB7sIOQ2E6UBPSm/nhZqw4aHfJkoJeaEh0QoJ0QV0mFOE4cycOdMatLiGOG2MFDMhi7AhrAgGIGXPAWbtk5Laq02bVmrbtvWpxH1ycpJt2YWJB5hwNNTFTV23jtq1a3cq2gJNi/l65p6ZpfBB26eiY4dkAwGAdut54AU0ASSnCQBY4QTt1AEeEvOGRqNj4t4ixm0Vcm3T4DgdnCu8aF55YUfMbbkpicVvL7SxGnnCH/LlGrpWLF9qfA9GrQHqTafJUXT+Zw+e2O+/EZA8jeQByQQ1IIX8IeUG8rVs32o9NKm/+qx9Rs99NEoTtr6j9GObtC18QJ8pS4cs5gBXAMvsQiogUDTIbkTeVgvrjm/XG2umaNyW+Xr5w8kasX22hu6cqee2TNTft07Q81vT9OKW8RqyJU1DNozVnJ2LtSt3n7KUp9yIz8AUZM6BwWp0O2P8dpihGKT840+UxTKBa5gbq/K5ZwUm+wPQIAgD5gmCQ++K98zbdYa8wtq8eZNuuelGa1AWuOEdwyvGHm9s8XXDDTec2mykcNne/VdNO2+MVF2NGOfUulxVL6ts7u8Tx4/aRiueSz7frjF1SNCyadNGNWvWRNWrVzMAYeZVq3aZfvjDH6p3797m+qVMF09YmB4nZBbGImnhgrnRyeZqUQ+i57p2AAJQBITCI4BWOAEigEYduG7apGEURLVUv149M+2YLGWJBGM49pJwyzocbY4m2yOEwNICb9MZOqDZM6ebmW3TBNHVuPAK05sl5hzOjKWzpJ1jnRqujG9zPmsgYQ7Z4D2MOeet7rFtsDCTGDoFQwqEgjpQcFTvHfxIWyJ7dVDZtkkK22qhL47Lr5PRBd9mrnoeVdtFC7k/EfFr/mfva8jaSRq1dY5e2zpdr26fquHbJ2ro1nEasXOiXt6aptd3TNeL68bo5Q8naFP2nqh+DKggAjSJAfQm72AMuogBKq56b5UsA2zPIwRTXe/ENXMLjsFTpkyxRqWBmdCrVZNgVZZ9V1b1alU1buwYayACHwnF55g2baotbkOAGzZsZAICoEgI8f33339qAR3lurL5FgC4DQwLCvLVs+c9KleOyAZ2DsJtjVlUQT16dLeyvu6/F154XpdcUklVq16merbE3HN70+NPmOB52ByQEDJogV+OD5yhCQ398K8f0kUXXqCGDTAXiWYAGHV14QXn6+KL8R6Wt8TK1wrly38llS9fzuoC7ypWrKALLjjf4uWgL6FugmpYYGltm98iKh0tPmvWLKuio4u2+ZJn3maauMA5pk+bau1T8/LLPfoa1Ld2YA+Jd955294BPO7gmvy+DXAKf3v2QCrWbUtvzjolb8srT0Q9ksMRb3k3moCIcQJWWG6B9rHxC8OWYER+tiWW9EnwhMbvXaEXN0zRsM2TNWr3DI3cMkavbX1LIz5+Q69vHq3R26fq9Y8mavj7EzR//1odjRDpXVI17Q04nSDxvWMu10QRs+Mqi94YDLtlAvSYzL+wojQQYOLSK5dGYVyFw2XAgIEqX76CCYOLUGYSlDzobV9//Uub3Y3JKJsxJo3DgfnBRoiEzyQk1LWEpw3PFnFxTigKN6b7njwYZ/z4xz82WthN1A3oMTNZv+MmJ6G9cG8NeBzI2X4YGqh7/foNLMyGzgVnSkpKigYPHqwnn3zSziwcZG+7ohJ8GTBggPr3768nnnjC3nn00cdsohTaSPCaRKfzm9/85hRd1CsWSK6ebovnefPm2fiqarVq1mnBK+itXr2GFi1aZDzlv1h+Fb6P/e2bXJcKkIoq2DMLvA1H0F/sLweIovGtFg2Bh5ptvPyMTdh3zHdQr2+Zp39umKTh26fq1V2TNWzLWxq5fbRe3fqWRm74lybsnKlh6aM0ffti7bE/FIOGPJ1JRdHjnqGMuEYYnbDEaibAheagMV0YDY0LKBDsm266ybxwrnXIg0YmD/JkRx32xgM0aCKiCBA8BAV3OPmwjzUH3yDErnzo4jgdSF5MnAMSADsTkFxe5DN+/HgDH+YldYAGaKFuqampVn/ycuU6YFMn8uH4y1/+YuYt9XDaFY3BeqB3333X3uF9OhLyKiqRL79z5l3Kg2fsi44Z5y1T9+a5oNPl71zhfMfhaHX0khfH3LlzDUhoW74neUCqXiyQyKM0U5kBCbPAC21FH50ZSAX85QmFte74Lr3y4RQN/XiSRu6aqld2TtBLm9/S8J1j9OaeiXptc5pee3+8Jm+Yq4+ydtqfz2SrrZIwBAGJdShwT6O6xhkxYoQJHyCKFR4aBhfttGnTTgkL39K4rrdk72sOogUISaFhyYM9xbkGRIyXEB6EiAMhoWyEwgnGNwUS+UGPEzw6BYD3//7f/zONiFYEDNDCGTc4B+UXFnLu2Y311ltvtTkx+NG8eXMTcurA0m8HNsvkLP9zbeVeZ6totCT8BZzwCzoJpv3d735ntLlynKPAtZXj138MkBxTTj/Tu9KreUE6xLihjehbrB9x46Mwmiqoo+E8LfnkXb2yLk2vbJ6g4bsmaejO8frn9jEaumOsRmxP02sbJ2pExlh9fGKXsuRTdpAtKs9eGzmBpWFoBITFCRC0ExmM+9VFCiM8JATv/PPPt0lM3meeCTA6EwggOTCxMpPj5ZdfNkBi86NNMK8QFgSYTTv+8Ic/2HvQAT2ONh5+UyCRh6ubEzJADQ1oSLQRiToxZ4N2xTPJQb0AobvmTB1wtrgOASGnLmgMt20w31Cm65ygoXCCFt6L5bkVFDVB6XQcfWhNV8Z11113ysvI++Th8ube1fG/BEiMk/DzeUCyob4bI9nShqBy5dc+/zFN27xIr25I0/At4/Xy9vEaumu8Xtqdppd2jNewrRM1ct0kLdy1UsfCeTbOCrMdGEs7imi8Mz2jEfg9VhPxZ1DYBIRQFdb5E0aDwGEm0DuyxS/uYoQGoeNbd02Dck1DsyceB4LVo0cP6229VZrelrsIijOx0tPT7V2+43CCURyQ6LnPxrQjP8pHI5GIYnB/HIDenvoBLsDkwnIom28cLZiod9xxh9HvwAegGCOy519WVpbxAT5Sd9eRFMd3l29sPSmT9+lUMJvhC/x2gGdMCJhjD/cNz/iWAyDRSUEf3wNE7qmjA7x7vzj6vu3zUjHtrDZf+Y9Kona8KHG3lME0CM6JAHMUIfkiPltZuyFrt0avn6E3MN92pGnYtrEasmu8hu2drCHbJ2nohklK27JAu3yHlBtm0Rm7+Xv7KJeECTQEQHAggGwmS//2t78ZeGA+DcpfQ6DnpadEm7hobr7j4ExeJCe47p78OVgazcAeANDACDEJQUHrsYf1kSNH7F3+43sOgHTPPfeY8CMUAJpvADRAcu8VVW9+43tocjTu2bPH9mUABGhEgISZCQ3U181xAToAwYHXzO3twBiL8tFIaFO3XTDlUw71ddf2caH/+M3xDfr4xtHOqzh3yN85ZaAPOgF6cnKydWC8xzjL5cMZ4HPMmTPH2g4gwSt4DJCon1sNy3uuzLI4lwqQiiaMSRyc0Zh2tgmWOeqsE2GKh80cQ36dDOXqqE7qnX1r9dq6SXp983i9uQdnQ5pe3pGmkbunacjGSRr+wWStPbFFRwgCogenE8d7QWBxCTUSDemEkcZhNSu9H3/aA0FB8BFatBMDc7Z0ouFIrud1YClcNg3Gbwglx/z5862nxERyedP7uvLY/NCNlxxNaL7u3bufogcwu/fZx80Je1FlQyP143D0co3wE2Vx3nnnmblGfggqdcacZWDvAMFecGhnfsOk5T00Gt/SqQBMjsLlf5N78qEN7r33XiuPsuA9PKJ8aH7rLW8PCPgCeFwdHR/YjovvHI+pG38ChraD/6VF65nqV4ZA8nz9kQieO+ZxPNk3INHx0iuFmVc6qc91RLP2rtCI9RM0Yus4vbxlrEbumKjXd0zVyE1TNHLdFC3a/64+CbNzXdhWvNpgK7pS70wVLPwbwkqiERAcHAQAhYbs06ePHnroITN3GEz/+te/Nk2FK5nDNSI9Po1fXAPx3IUEUcaoUaMsr8cee8zOTIq6sh588MFTkclOkBlnvfbaa7rvvvssrIf3Ce8BdDhDXE9cuG7cO5rIi3oidByYrgzeKRf3PbRg1pEv2o9e3R2fffaZTdxCG3zo27evuMb1jvveAb6o8kv6zI0pGZ/i8obn0Ojogwc4JFzdHF+hFTp4zjgQLyT14XvqR16429kyjKOkdJX0/TIHkmklVDs9pLP2osGvzB4BpO3+fUrbtkBDPsKkS9OQzWP02rbJenXDZL36/iTN3LZEuwIH7E8xs/FK0DYhj/rSbbP8rw5wi2MEguUEjEbkPcY1OBDQIvTmnOn9OPM7B88BH/cIsusNC5fDuwgxibIow+UJ+Nw4Cy3Ec3p/5+0jTyccfE85fOPK40x+rkcuLCCOTugm8R6J7zjIm2s6AsqifBJlkFxduYYmaCAf7l0dHA8K1/ub3kMf5fA9ebv6USa0coZe3qGNqAMH3zl+ce3az9WLs6un4+k3pfFsvvs/AxLVt0hx5BLTI8QfCSvQCWXpvROb9ObGGXppQ5pe2jZBw7ZN0sjNUzXivTRN+miOPj6xXdm2OMKLTghgmgXD9ueEiPE7m4q6d2AqTKZhEA4awR2x1+6ZE77YxnC/uTwLn9275E85HE6YueY5B+W5a87Q5Z7HnrkmT3dQnisjtmx+jy2T/Pjd1ZXr4g5oceBzdLh3Xdmx/Ikt99tck6frbFx5nF2ZgIGDMgAV77u6u/eLqpejlXfd+9+Gzq/7tmyBRONH95EDRNaOnNkiK+hXfuikjuioln6xViPWT9KQLVP0wvZJGrZjmoZvnKIx62do9f51Oh7J9qLkCJgNBxQi5Ife1WL0SjaPBPMRLCdkCHgs011j8R4NHAsAnvEd3/MN6UwMduW4MpxwxAosgk+ZLk/ecdd8xz3vUJb7PhYsRZXv3ncCGkurEz7OPKcskqOJb8mTsrl29HDPe9Sf7ziKKrukz1y5fOfodbTxjDLhj8uXsrl2tLu6cnb0QjO/c8/3pUmvo6PwuWyBxJ8sgels6RTdqNEiCxyQfFk6HD6k+Z8s19ANuLun6oXtkzV0yxQNXzdFc3et0Ke+gxZLxx9XZpEZy745iOPOD7JLEA6Ns9NKfAdznTDAcBjCmeQa1TWCaxzeoUHcu7HXhRnKPQeCR29KXpTHvXvXfc89z/nd0cL7PHcCwL3rlWPphjaXX+yZsqkH37t6ubx4j4OzqyNn3oMO8uTedSax5fGcA2F3tMaW+22uydvx3vHN0eToIn+eQaMrn3qR3BH7O3nG0v9t6Dubb8sQSN5qWjQPy7vNv0AjckFokB/hytb+vM80YfN0vbR1jIZ8MlHDt03V0PfHa8KW+dqav0+5/C3YsE9hImMdGm09EbF9CF3JNJJrkKKY4xrI/UYDuevCv7nnxZ15n+TyKO772Hdi83Lf88x9686x7xV17d5zZRf1TlHP3HeFz7Hvut9in5XGNfk6el0ZnGOfU4777WzLdHme7fvf9L0yBBLR4gEz4fhT5LCJvsMBiR1Qw+E8bTq8USPW/Ev/2PSmhuydoOEbJ2rU+qlac2KjrU/KjuTLz4pXelOARMdogAJA3wxI35RZ8e/OTvP/N/KpDIHE+nOcCt4OMsg/QDIchFjGHFIgnKfMHZkauZYwoPF6ec8kjfwgTfP3LNO+8CHl8DePgtkKmFY7HUi27MB2MSq5RvpvbOh4ncu2Eyh7IEX8ZoIxssEJC5hY/c3Cu6MFR7Vgw9v61/opGr5jkoZuGqfpW+dru22ndVxZkWz5I4yLWDnohQM5jRQHUtkKRhx4JeNv2QKJ/RGikQ3eTg/eMgoAxXzQjiOfaOq7czRq3VQNXT9eb2yarI9zNitXOcpTtvJC7HEd/dssqDKXbIzEuCtu2sUFvmQCX1b8KkMg4UtzW0my3sgLWmWmJCccVHbEpw8/36aJa+bozbVT9MaGqVpy5nXItAAAA2hJREFUaI2ydExBW0fL2nqfwgG/IqbCnF3omXiMj+yPzHwDZ0NZMTOe77kh1N9FO5QpkByMApGwSJ5Wiigr7NNR5Stz93qNWzVbb62Zppm7lml3aD/bl9hfYFIEbx9/SYI5p+gur9iHUc+dByScEPEx0nchOPEyT+80yhRI3kLzoIHIJlEjLKcIKyvi0xc6qfkfZ+rNZVM0++Ml2pDt/bW9CFvd87c02TqLuQtnzgEi81TEaiSAVPR8SryhT2/oOD/Klh9lDCRPCwEit6cDG5DkKqw9BUeUtmaBxmbM1rpDW3XUohfw8Pk8t3msc8GB6TQgeeOvOJDKVkDiADw7/pYxkCIKsMQBUFigalChSFAFCuv9L7brjWXTtXT3hzoYylZO6KTC9ledo5ro1JxRzNwTk1GWLM6IWKO4RirhEpI4MM4OGCXlUxkDydty21zXAf78JPZZUCdCuZqzIV0T3lukHQVHbGMUnz/P22bYIhgY93igYQI3NhmQ7C8bsGsqYTdx066kjR5/v/TB9H8HJPs7ruYt0MHco5r+3mKtPbjDNt5nxStOhYjPCyeyOSJvOZPzLZw6G8DiQDoVuhQHRemD4pvwtEyBZJs1sl+bmXXMwhJ0GNAnX3yqVZs+0LFggfLFX7IAQBGFCtAwLANkU0eXTjnqDExeJdFYaCKSF+T5TSof/+bcEML/hHYoUyARMMgf9vIilS0m0SJyDxw8oKPHjtoDC6GLBiwWF9H8n8DoeB3+s0Fb5kAiWtcBxIDFik1MOLPR+Luk3joXfitpZG9cOP+zhfPfqX3LHEgww60h8XSStzQB0LCWhLU2/B4HUhwU/07AKUzr/wmQAI3TNg5M3LP4ymkrB7jCBMbv4wD7d5CBMgVSLHhgBsCJfeZAxW8Ait//HZgWpzEO7sIyUOZAAjgcFAxQYpMDlXvm3itMZPw+LrjnugyUKZDO9crH6YsDtLRkIA6keIhN3JwuBRmIA6kUmFhavVo8n39fDRkHUhxIcY1UCjIQB1IpMDGuSf59NUlptV0cSHEgxTVSKchAHEilwMTS6tXi+fz7arY4kOJAimukUpCBOJBKgYlxTfLvq0lKq+3iQIoDKa6RSkEG4kAqBSaWVq8Wz+ffV7PFgRQHUlwjlYIMfM9FYMfPcQ7EOfDNOfD/AV3sDsf0kH0RAAAAAElFTkSuQmCC;" vertex="1" parent="1">
          <mxGeometry x="389" y="790" width="210" height="107" as="geometry" />
        </mxCell>
        <mxCell id="ujFVM9XAjsb7zgqNAqnT-40" style="edgeStyle=orthogonalEdgeStyle;rounded=0;orthogonalLoop=1;jettySize=auto;html=1;exitX=0.5;exitY=0;exitDx=0;exitDy=0;entryX=0.5;entryY=0;entryDx=0;entryDy=0;dashed=1;strokeWidth=1;endArrow=none;endFill=0;" edge="1" parent="1">
          <mxGeometry relative="1" as="geometry">
            <mxPoint x="487.9200000000001" y="670" as="sourcePoint" />
            <mxPoint x="1472.08" y="603.8699999999999" as="targetPoint" />
            <Array as="points">
              <mxPoint x="488" y="400" />
              <mxPoint x="1472" y="400" />
            </Array>
          </mxGeometry>
        </mxCell>
        <mxCell id="ujFVM9XAjsb7zgqNAqnT-43" value="&lt;font style=&quot;font-size: 24px&quot;&gt;Test Key: &lt;br&gt;BIDSOJP-36&lt;/font&gt;" style="text;html=1;strokeColor=none;fillColor=none;align=center;verticalAlign=middle;whiteSpace=wrap;rounded=0;fontStyle=1;fontColor=#3399FF;" vertex="1" parent="1">
          <mxGeometry x="365" y="652" width="260" height="50" as="geometry" />
        </mxCell>
        <mxCell id="ujFVM9XAjsb7zgqNAqnT-51" style="edgeStyle=orthogonalEdgeStyle;rounded=0;orthogonalLoop=1;jettySize=auto;html=1;exitX=0;exitY=0.5;exitDx=0;exitDy=0;entryX=1;entryY=0.5;entryDx=0;entryDy=0;fontColor=#3399FF;endArrow=classic;endFill=1;strokeWidth=1;" edge="1" parent="1" source="ujFVM9XAjsb7zgqNAqnT-45" target="ujFVM9XAjsb7zgqNAqnT-7">
          <mxGeometry relative="1" as="geometry" />
        </mxCell>
        <mxCell id="ujFVM9XAjsb7zgqNAqnT-45" value="&lt;font style=&quot;font-size: 24px&quot;&gt;Test Key: &lt;br&gt;BIDSOJP-36&lt;/font&gt;" style="text;html=1;strokeColor=none;fillColor=none;align=center;verticalAlign=middle;whiteSpace=wrap;rounded=0;fontStyle=1;fontColor=#3399FF;" vertex="1" parent="1">
          <mxGeometry x="1390" y="629" width="190" height="59" as="geometry" />
        </mxCell>
      </root>
    </mxGraphModel>
  </diagram>
</mxfile>
